<?xml version="1.0" standalone="no"?>
<!DOCTYPE svg PUBLIC "-//W3C//DTD SVG 20010904//EN"
 "http://www.w3.org/TR/2001/REC-SVG-20010904/DTD/svg10.dtd">
<svg version="1.0" xmlns="http://www.w3.org/2000/svg"
 width="155.026395pt" height="161.362706pt" viewBox="0 0 155.026395 161.362706"
 preserveAspectRatio="xMidYMid meet">
<g transform="translate(-15.958448,171.949282) rotate(-360.00) scale(0.095238,-0.095238)"
fill="#000000" stroke="none">
<path d="M462 1785 c-26 -11 -62 -20 -80 -20 -45 -1 -139 -45 -180 -85 -37
-35 -46 -82 -20 -104 8 -7 75 -16 148 -20 154 -10 161 -14 174 -98 15 -103 43
-152 124 -225 41 -36 81 -70 88 -75 23 -14 66 -78 99 -145 l30 -63 -1 -220
c-1 -181 -4 -229 -19 -268 -10 -26 -22 -63 -27 -82 -20 -78 -54 -147 -77 -153
-12 -3 -71 -6 -130 -6 -59 0 -118 -5 -133 -10 -34 -13 -46 -50 -23 -73 16 -16
61 -17 455 -15 469 3 476 4 459 55 -9 29 -45 42 -113 43 -30 0 -60 3 -67 8
-23 14 -28 63 -9 92 15 24 22 26 63 20 39 -6 47 -4 62 17 9 14 17 35 17 47 0
62 59 73 100 18 16 -24 22 -52 26 -146 7 -142 15 -156 99 -164 73 -8 247 16
259 35 5 8 9 62 9 119 0 95 -9 152 -42 250 -21 62 -33 98 -43 129 -6 17 -20
55 -32 84 -11 29 -26 69 -32 89 -5 20 -19 49 -29 63 -10 14 -21 42 -25 61 -3
19 -23 60 -43 90 -20 31 -37 62 -37 68 0 7 -48 61 -108 121 -101 101 -169 148
-246 169 -13 4 -45 32 -72 63 -27 32 -75 75 -108 96 -33 22 -73 50 -89 64 -35
28 -86 31 -121 7 -34 -24 -50 -12 -59 44 -5 37 -18 60 -50 95 -40 43 -46 46
-96 45 -30 0 -75 -9 -101 -20z m140 -38 c25 -9 63 -95 55 -124 -7 -31 -39 -43
-70 -26 -14 7 -40 9 -65 5 -52 -8 -112 10 -112 34 0 10 7 30 17 43 l17 25 19
-23 c23 -27 69 -27 87 1 8 13 7 23 -7 38 -10 10 -18 23 -18 26 0 9 55 10 77 1z
m249 -193 c27 -15 26 -22 -11 -68 -54 -68 -43 -153 41 -336 62 -135 73 -161
68 -166 -8 -8 -72 65 -93 108 -11 20 -72 88 -138 152 -102 100 -120 122 -129
163 -16 67 -14 121 4 136 25 21 37 3 37 -56 0 -61 28 -111 62 -111 31 0 43 21
36 69 -11 82 58 143 123 109z m154 -119 c78 -38 100 -51 145 -93 23 -21 68
-54 100 -75 96 -61 261 -252 262 -302 0 -8 10 -27 21 -41 11 -14 21 -34 21
-43 0 -20 43 -137 67 -183 9 -17 17 -43 17 -58 0 -14 7 -36 15 -48 9 -12 19
-43 23 -68 4 -26 15 -58 24 -71 23 -37 31 -222 9 -222 -41 0 -522 521 -522
566 0 6 -14 26 -30 45 -82 95 -191 268 -191 304 0 10 -4 21 -10 24 -5 4 -15
24 -22 46 -7 21 -22 50 -33 64 -14 18 -19 43 -19 95 0 39 3 74 7 77 14 15 68
7 116 -17z m129 -694 c32 -45 73 -101 92 -124 40 -49 49 -79 41 -130 -12 -72
-55 -88 -112 -39 -38 32 -57 67 -67 121 -4 22 -14 52 -23 68 -8 17 -15 45 -15
64 0 19 -6 48 -14 63 -19 37 -30 102 -20 112 9 9 43 -29 118 -135z m-166 2
c11 -30 25 -74 32 -97 6 -23 18 -52 25 -63 38 -55 -9 -169 -59 -142 -32 17
-77 101 -69 129 4 13 11 67 16 120 9 93 17 126 29 114 4 -3 15 -30 26 -61z
m-23 -388 c16 -10 28 -10 58 1 26 9 42 10 49 3 15 -15 1 -102 -19 -123 -17
-16 -124 -22 -148 -7 -22 14 -26 60 -10 100 17 40 36 47 70 26z m624 -101 c26
-25 48 -54 48 -66 0 -17 -7 -20 -48 -20 -44 0 -49 2 -63 36 -22 54 -18 107 7
98 4 -1 30 -23 56 -48z"/>
</g>
</svg>
