<?xml version="1.0" standalone="no"?>
<!DOCTYPE svg PUBLIC "-//W3C//DTD SVG 20010904//EN"
 "http://www.w3.org/TR/2001/REC-SVG-20010904/DTD/svg10.dtd">
<svg version="1.0" xmlns="http://www.w3.org/2000/svg"
 width="103.885633pt" height="155.497422pt" viewBox="0 0 103.885633 155.497422"
 preserveAspectRatio="xMidYMid meet">
<g transform="translate(-29.014792,167.971964) rotate(-360.00) scale(0.095238,-0.095238)"
fill="#000000" stroke="none">
<path d="M1132 1753 c-42 -24 -44 -46 -53 -514 -8 -450 -19 -708 -29 -716 -3
-3 -34 -18 -68 -34 -35 -16 -73 -34 -84 -40 -11 -6 -42 -17 -68 -25 -64 -18
-178 -60 -209 -77 -19 -10 -53 -11 -133 -6 l-107 7 -38 -33 c-36 -31 -38 -38
-38 -93 0 -33 4 -66 10 -75 8 -14 75 -16 491 -16 500 0 535 3 557 44 14 25 36
940 32 1272 l-4 256 -34 30 c-32 29 -40 31 -121 31 -47 0 -94 -5 -104 -11z
m130 -91 c30 -34 35 -153 32 -773 -2 -471 -6 -625 -16 -646 -18 -37 -54 -41
-415 -43 -415 -1 -470 1 -491 22 -42 42 24 77 86 47 78 -37 205 -15 399 68 53
22 99 41 103 41 15 0 120 75 153 110 l37 38 6 517 c4 284 8 534 8 556 2 66 62
105 98 63z"/>
</g>
</svg>
