<?xml version="1.0" standalone="no"?>
<!DOCTYPE svg PUBLIC "-//W3C//DTD SVG 20010904//EN"
 "http://www.w3.org/TR/2001/REC-SVG-20010904/DTD/svg10.dtd">
<svg version="1.0" xmlns="http://www.w3.org/2000/svg"
 width="169.149642pt" height="55.794543pt" viewBox="0 0 169.149642 55.794543"
 preserveAspectRatio="xMidYMid meet">
<g transform="translate(-7.850358,104.828001) rotate(-360.00) scale(0.095238,-0.095238)"
fill="#000000" stroke="none">
<path d="M834 1092 c-812 -6 -755 2 -748 -110 5 -84 42 -140 167 -251 84 -75
290 -184 347 -185 14 -1 37 -7 51 -16 20 -11 69 -15 200 -15 147 0 183 3 233
21 33 11 67 21 77 21 9 0 34 8 55 19 21 11 71 35 110 55 43 21 104 66 159 117
48 45 93 82 98 82 15 0 41 -35 48 -65 17 -70 158 -121 205 -73 19 18 23 35 23
95 0 40 -5 86 -11 102 -13 32 -74 102 -150 169 -48 42 -53 44 -110 42 -33 -1
-372 -5 -754 -8z m658 -116 c73 -39 -49 -185 -227 -271 -57 -28 -146 -64 -196
-80 -84 -26 -102 -28 -231 -25 -106 3 -146 8 -166 21 -14 9 -46 20 -70 23 -24
4 -72 23 -107 43 -35 20 -74 39 -88 42 -13 4 -63 48 -110 98 -92 97 -107 132
-63 149 34 14 1232 14 1258 0z m250 -89 c51 -58 59 -133 16 -139 -47 -7 -119
124 -89 160 21 24 37 20 73 -21z"/>
</g>
</svg>
