<?xml version="1.0" standalone="no"?>
<!DOCTYPE svg PUBLIC "-//W3C//DTD SVG 20010904//EN"
 "http://www.w3.org/TR/2001/REC-SVG-20010904/DTD/svg10.dtd">
<svg version="1.0" xmlns="http://www.w3.org/2000/svg"
 width="166.810364pt" height="69.468238pt" viewBox="0 0 166.810364 69.468238"
 preserveAspectRatio="xMidYMid meet">
<g transform="translate(-8.293840,119.028300) rotate(-360.00) scale(0.095238,-0.095238)"
fill="#000000" stroke="none">
<path d="M173 1230 c-63 -39 -73 -60 -73 -147 0 -108 8 -130 58 -164 l43 -28
-42 -36 c-51 -44 -80 -120 -70 -183 9 -50 61 -119 105 -138 51 -22 140 -16
194 12 l47 25 609 3 c336 2 625 6 644 9 122 21 192 230 123 368 -35 72 -78
110 -133 121 -25 5 -275 9 -556 9 -280 0 -532 4 -559 7 -42 6 -59 16 -119 75
-38 37 -81 72 -95 77 -44 17 -141 11 -176 -10z m136 -109 c45 -64 -11 -144
-71 -100 -10 7 -21 32 -25 54 -5 33 -2 44 13 55 29 21 65 17 83 -9z m828 -175
l503 -9 31 -30 c27 -26 31 -36 28 -81 -3 -43 -8 -56 -33 -74 -27 -21 -45 -22
-241 -25 -117 -2 -369 0 -560 5 -394 10 -357 1 -472 107 l-50 46 24 20 c13 11
37 22 52 25 15 3 46 12 69 20 26 9 63 13 95 10 29 -2 278 -9 554 -14z m-818
-201 c34 -27 36 -68 5 -101 -47 -50 -114 -16 -114 57 0 22 6 46 13 53 19 19
65 15 96 -9z"/>
</g>
</svg>
