<?xml version="1.0" standalone="no"?>
<!DOCTYPE svg PUBLIC "-//W3C//DTD SVG 20010904//EN"
 "http://www.w3.org/TR/2001/REC-SVG-20010904/DTD/svg10.dtd">
<svg version="1.0" xmlns="http://www.w3.org/2000/svg"
 width="160.787032pt" height="51.940318pt" viewBox="0 0 160.787032 51.940318"
 preserveAspectRatio="xMidYMid meet">
<g transform="translate(-12.000000,121.940289) rotate(-360.00) scale(0.095238,-0.095238)"
fill="#000000" stroke="none">
<path d="M809 1259 c-38 -11 -84 -20 -102 -20 -18 0 -51 -7 -75 -15 -23 -8
-65 -18 -93 -22 -82 -11 -87 -14 -87 -47 0 -40 -25 -52 -103 -52 -143 0 -223
-64 -223 -179 0 -58 2 -62 46 -103 95 -87 89 -86 544 -86 377 0 407 1 466 21
34 12 76 30 94 40 27 15 62 18 241 19 116 0 220 4 233 8 38 12 57 55 63 136 9
136 -13 149 -265 160 -155 7 -171 10 -250 43 -46 19 -93 35 -104 35 -11 0 -41
9 -69 20 -80 32 -194 64 -222 63 -14 0 -57 -10 -94 -21z m199 -93 c36 -12 77
-21 90 -21 13 0 27 -5 30 -10 4 -6 33 -16 67 -22 33 -7 65 -17 72 -23 28 -22
92 -32 246 -39 190 -8 220 -18 220 -79 0 -62 -23 -69 -210 -69 -121 0 -169 -4
-185 -14 -11 -8 -43 -18 -71 -22 -27 -4 -67 -15 -89 -25 -35 -16 -82 -17 -443
-14 -222 1 -408 7 -413 11 -17 18 17 24 159 29 184 6 189 7 193 43 3 25 10 30
51 40 36 9 48 17 50 35 5 32 41 43 142 43 88 0 133 16 133 47 0 30 -31 37
-190 41 -191 5 -177 4 -177 16 0 5 25 12 55 15 31 4 75 14 97 22 58 21 97 20
173 -4z"/>
</g>
</svg>
