<?xml version="1.0" standalone="no"?>
<!DOCTYPE svg PUBLIC "-//W3C//DTD SVG 20010904//EN"
 "http://www.w3.org/TR/2001/REC-SVG-20010904/DTD/svg10.dtd">
<svg version="1.0" xmlns="http://www.w3.org/2000/svg"
 width="46.963246pt" height="184.633075pt" viewBox="0 0 46.963246 184.633075"
 preserveAspectRatio="xMidYMid meet">
<g transform="translate(-56.000000,186.903865) rotate(-360.00) scale(0.095238,-0.095238)"
fill="#000000" stroke="none">
<path d="M745 1942 c-31 -31 -38 -57 -47 -163 -4 -51 -14 -117 -22 -146 -8
-28 -15 -87 -15 -131 -1 -43 -5 -105 -11 -137 -5 -32 -14 -100 -20 -152 -7
-52 -19 -133 -27 -181 -8 -47 -15 -110 -15 -139 0 -46 3 -55 24 -63 13 -5 71
-56 130 -113 87 -85 109 -112 119 -150 7 -26 19 -59 26 -73 9 -18 16 -96 21
-226 4 -110 9 -207 12 -217 6 -22 124 -37 147 -19 17 15 19 311 5 1092 l-9
477 -29 69 c-16 37 -30 86 -31 108 -1 28 -10 48 -29 65 -15 14 -40 42 -55 61
-19 25 -41 40 -74 48 -63 16 -75 15 -100 -10z m129 -221 c31 -39 45 -91 30
-113 -7 -12 -16 -9 -47 14 -66 50 -97 121 -67 150 15 16 43 -1 84 -51z m-48
-125 c15 -17 34 -31 40 -31 36 0 69 -87 48 -126 -7 -12 -22 -21 -36 -21 -39 0
-108 56 -122 99 -18 54 0 110 34 110 4 0 20 -14 36 -31z m4 -198 c78 -50 106
-96 83 -139 -30 -57 -188 18 -188 90 0 35 25 79 45 79 7 0 34 -13 60 -30z
m-36 -175 c17 -8 38 -15 48 -15 25 -1 82 -70 82 -101 0 -40 -19 -67 -46 -67
-34 0 -157 85 -168 116 -11 34 8 83 34 83 11 0 34 -7 50 -16z m19 -194 c46
-23 87 -47 92 -55 11 -18 11 -79 -1 -86 -5 -3 -34 7 -64 23 -30 16 -70 37 -89
47 -40 20 -59 71 -37 98 7 8 14 15 15 15 0 0 38 -19 84 -42z m-46 -136 c26
-16 68 -41 94 -55 45 -24 47 -27 47 -72 0 -33 -4 -47 -15 -49 -21 -3 -186 153
-195 183 -9 33 12 31 69 -7z m268 -743 c-3 -8 -11 -12 -16 -8 -13 7 -14 173
-3 337 l7 114 9 -214 c4 -119 6 -222 3 -229z"/>
</g>
</svg>
