<?xml version="1.0" standalone="no"?>
<!DOCTYPE svg PUBLIC "-//W3C//DTD SVG 20010904//EN"
 "http://www.w3.org/TR/2001/REC-SVG-20010904/DTD/svg10.dtd">
<svg version="1.0" xmlns="http://www.w3.org/2000/svg"
 width="163.546101pt" height="57.250639pt" viewBox="0 0 163.546101 57.250639"
 preserveAspectRatio="xMidYMid meet">
<g transform="translate(-8.953899,118.068900) rotate(-360.00) scale(0.095238,-0.095238)"
fill="#000000" stroke="none">
<path d="M123 1232 c-16 -15 -6 -54 20 -78 52 -48 52 -58 -1 -106 -65 -59 -64
-87 5 -145 48 -40 59 -44 133 -51 70 -7 83 -12 97 -34 29 -47 113 -119 172
-149 50 -25 72 -30 151 -30 80 -1 101 3 154 28 59 28 65 28 210 24 108 -3 160
-9 189 -22 35 -15 78 -18 273 -18 266 0 285 5 285 63 0 56 -23 63 -231 63
-136 0 -184 4 -204 15 -15 9 -34 18 -42 22 -9 3 -30 13 -46 21 -78 40 -170 70
-243 78 -92 10 -234 -3 -290 -27 -20 -9 -58 -17 -84 -18 -44 -1 -53 3 -115 57
-37 32 -88 73 -112 92 -55 43 -57 65 -8 118 20 23 37 48 37 56 0 16 -28 48
-41 48 -10 0 -52 -29 -94 -65 -19 -16 -43 -29 -54 -29 -11 0 -40 21 -65 47
-41 43 -78 59 -96 40z m195 -239 c86 -38 85 -55 -4 -64 -52 -5 -77 -3 -88 6
-23 18 -20 48 7 67 28 20 16 21 85 -9z m186 -115 c8 -7 39 -33 67 -57 55 -47
78 -52 134 -29 20 8 85 23 144 33 94 16 118 16 183 4 90 -16 129 -29 119 -39
-4 -4 -65 -10 -136 -14 -98 -6 -146 -14 -205 -35 -135 -47 -248 -29 -306 50
-14 21 -42 59 -61 86 l-35 48 40 -17 c22 -9 47 -22 56 -30z"/>
</g>
</svg>
