<?xml version="1.0" standalone="no"?>
<!DOCTYPE svg PUBLIC "-//W3C//DTD SVG 20010904//EN"
 "http://www.w3.org/TR/2001/REC-SVG-20010904/DTD/svg10.dtd">
<svg version="1.0" xmlns="http://www.w3.org/2000/svg"
 width="138.997132pt" height="120.976657pt" viewBox="0 0 138.997132 120.976657"
 preserveAspectRatio="xMidYMid meet">
<g transform="translate(-22.502868,150.000000) rotate(-360.00) scale(0.095238,-0.095238)"
fill="#000000" stroke="none">
<path d="M394 1561 c-27 -20 -13 -67 27 -89 17 -10 34 -27 37 -39 7 -28 -24
-258 -43 -320 -8 -26 -29 -106 -46 -178 -32 -134 -56 -210 -76 -246 -6 -11
-23 -55 -37 -98 -25 -77 -25 -80 -7 -112 22 -37 109 -84 176 -95 23 -4 48 -12
55 -19 8 -6 46 -17 85 -25 39 -7 89 -18 112 -24 24 -6 155 -11 303 -11 344 -1
404 14 674 162 l42 23 -1 67 c-1 67 -18 132 -58 216 -11 24 -20 57 -20 73 -1
17 -7 43 -16 57 -8 14 -15 43 -15 63 0 20 -10 75 -21 121 -17 71 -26 202 -22
311 0 20 11 34 37 50 33 19 37 26 37 64 0 36 -4 44 -27 53 -16 6 -254 10 -602
10 -464 0 -578 -3 -594 -14z m1025 -192 c9 -36 21 -116 25 -179 4 -63 13 -133
21 -156 7 -23 16 -65 20 -94 7 -57 40 -166 71 -233 11 -24 22 -66 26 -94 5
-42 2 -54 -14 -68 -48 -43 -252 -102 -391 -114 -125 -10 -483 3 -513 19 -12 7
-52 19 -88 27 -78 18 -166 47 -185 61 -24 19 -15 71 39 223 34 95 44 126 55
163 5 20 15 51 21 68 19 57 61 272 61 315 0 53 16 112 34 123 7 4 190 7 407 6
l393 -3 18 -64z"/>
<path d="M952 1206 c-8 -14 -25 -53 -38 -88 -13 -34 -30 -77 -38 -94 -23 -52
-55 -155 -63 -204 -4 -25 -13 -62 -21 -81 -22 -51 -19 -133 5 -163 20 -24 24
-25 189 -25 206 0 206 0 205 114 0 80 -19 166 -63 285 -15 41 -36 97 -46 126
-49 137 -96 184 -130 130z m76 -304 c37 -40 57 -150 37 -203 -9 -23 -133 -24
-152 -1 -18 22 -8 97 22 159 42 90 49 93 93 45z"/>
</g>
</svg>
