<?xml version="1.0" standalone="no"?>
<!DOCTYPE svg PUBLIC "-//W3C//DTD SVG 20010904//EN"
 "http://www.w3.org/TR/2001/REC-SVG-20010904/DTD/svg10.dtd">
<svg version="1.0" xmlns="http://www.w3.org/2000/svg"
 width="40.726204pt" height="164.710385pt" viewBox="0 0 40.726204 164.710385"
 preserveAspectRatio="xMidYMid meet">
<g transform="translate(-72.273796,172.710385) rotate(-360.00) scale(0.095238,-0.095238)"
fill="#000000" stroke="none">
<path d="M940 1807 c-57 -25 -100 -112 -100 -202 0 -40 10 -71 43 -136 47 -91
48 -113 6 -169 -20 -27 -23 -45 -23 -128 0 -83 4 -100 24 -129 14 -20 24 -48
24 -71 0 -23 -10 -51 -24 -70 -21 -29 -24 -45 -24 -139 0 -94 3 -110 24 -138
38 -51 42 -120 11 -186 -14 -31 -37 -82 -51 -113 -14 -32 -41 -86 -60 -120
-40 -72 -41 -106 -3 -106 25 0 47 26 75 89 6 14 16 33 21 42 6 9 17 32 26 52
9 20 29 52 44 71 l27 36 24 -30 c13 -16 27 -39 31 -50 3 -12 15 -40 26 -63 11
-23 32 -69 48 -103 15 -33 33 -60 40 -60 18 0 37 23 37 44 0 24 -68 187 -127
304 -28 54 -25 129 7 193 21 44 25 68 26 147 0 86 -3 99 -26 131 -32 43 -34
93 -5 129 26 33 52 105 52 144 0 31 -36 121 -53 131 -5 4 -10 20 -10 37 0 17
5 33 10 37 6 3 20 26 32 50 12 24 31 61 43 81 43 78 14 226 -55 276 -31 23
-108 33 -140 19z m107 -136 c54 -81 7 -214 -69 -194 -39 10 -68 71 -62 131 10
100 82 135 131 63z m-14 -475 c11 -58 -8 -107 -42 -112 -49 -7 -72 73 -40 135
13 25 22 31 44 29 25 -3 30 -10 38 -52z m-20 -348 c10 -15 16 -46 16 -87 0
-55 -4 -68 -25 -88 -30 -28 -45 -22 -65 26 -21 49 -19 98 6 138 24 40 45 44
68 11z"/>
</g>
</svg>
