<?xml version="1.0" standalone="no"?>
<!DOCTYPE svg PUBLIC "-//W3C//DTD SVG 20010904//EN"
 "http://www.w3.org/TR/2001/REC-SVG-20010904/DTD/svg10.dtd">
<svg version="1.0" xmlns="http://www.w3.org/2000/svg"
 width="71.776988pt" height="62.014301pt" viewBox="0 0 71.776988 62.014301"
 preserveAspectRatio="xMidYMid meet">
<g transform="translate(-54.168646,125.000000) rotate(-360.00) scale(0.095238,-0.095238)"
fill="#000000" stroke="none">
<path d="M840 1296 c-10 -12 -11 -22 -2 -41 13 -30 99 -143 123 -163 9 -8 24
-29 33 -46 10 -18 33 -54 53 -80 46 -62 99 -137 152 -218 47 -73 85 -94 110
-60 17 23 18 56 3 96 -19 49 -189 299 -251 368 -32 36 -77 87 -99 113 -33 38
-47 48 -75 48 -19 0 -40 -8 -47 -17z"/>
<path d="M576 1277 c-21 -46 0 -95 107 -254 121 -181 206 -292 254 -332 39
-33 99 -40 109 -13 11 29 -26 104 -88 175 -33 38 -74 90 -90 115 -64 98 -77
116 -113 165 -21 27 -46 64 -54 80 -43 82 -103 112 -125 64z"/>
</g>
</svg>
