<?xml version="1.0" standalone="no"?>
<!DOCTYPE svg PUBLIC "-//W3C//DTD SVG 20010904//EN"
 "http://www.w3.org/TR/2001/REC-SVG-20010904/DTD/svg10.dtd">
<svg version="1.0" xmlns="http://www.w3.org/2000/svg"
 width="130.968489pt" height="146.582798pt" viewBox="0 0 130.968489 146.582798"
 preserveAspectRatio="xMidYMid meet">
<g transform="translate(-24.031511,163.582798) rotate(-360.00) scale(0.095238,-0.095238)"
fill="#000000" stroke="none">
<path d="M347 1715 c-47 -6 -95 -51 -95 -87 1 -37 24 -64 76 -89 70 -35 83
-61 70 -141 -13 -81 -5 -122 25 -144 20 -14 64 -15 333 -9 311 6 330 5 465
-32 189 -53 225 -132 234 -515 6 -241 6 -238 63 -367 7 -18 17 -44 21 -58 11
-40 47 -94 62 -94 31 -1 29 76 -5 173 -49 141 -55 182 -43 281 11 90 21 136
55 247 14 46 20 98 20 174 0 93 -4 117 -26 165 -26 57 -82 113 -168 168 -75
47 -372 71 -590 46 -284 -32 -349 -16 -286 68 13 18 25 53 27 83 5 47 3 55
-30 91 -33 36 -41 39 -104 42 -37 1 -84 1 -104 -2z m124 -94 c2 -1 1 -10 -2
-19 -7 -18 -56 -22 -80 -7 -13 8 -13 13 -1 27 10 12 23 15 47 10 18 -4 34 -9
36 -11z m903 -318 c14 -9 32 -28 41 -40 l14 -22 -49 14 c-27 9 -56 21 -63 27
-8 6 -42 20 -75 31 l-61 20 84 -6 c55 -4 93 -12 109 -24z m145 -198 c-2 -10
-5 -4 -5 13 0 18 2 26 5 19 3 -7 3 -21 0 -32z"/>
</g>
</svg>
