<?xml version="1.0" standalone="no"?>
<!DOCTYPE svg PUBLIC "-//W3C//DTD SVG 20010904//EN"
 "http://www.w3.org/TR/2001/REC-SVG-20010904/DTD/svg10.dtd">
<svg version="1.0" xmlns="http://www.w3.org/2000/svg"
 width="170.721203pt" height="54.381235pt" viewBox="0 0 170.721203 54.381235"
 preserveAspectRatio="xMidYMid meet">
<g transform="translate(-9.976835,103.714569) rotate(-360.00) scale(0.095238,-0.095238)"
fill="#000000" stroke="none">
<path d="M144 1080 c-84 -31 -27 -203 112 -331 80 -75 231 -164 298 -177 21
-4 52 -14 68 -22 17 -9 88 -21 158 -27 150 -14 320 1 392 34 25 11 49 20 55
20 20 0 125 54 175 90 29 20 57 37 63 37 6 0 37 26 68 58 64 64 91 70 113 24
7 -16 35 -48 62 -71 61 -54 106 -58 151 -13 41 41 48 76 27 140 -17 54 -39 88
-101 155 -20 22 -44 51 -54 65 l-17 25 -770 2 c-504 1 -781 -2 -800 -9z m1399
-109 c44 -44 -95 -188 -257 -267 -165 -80 -163 -79 -287 -94 -89 -11 -251 -1
-322 20 -107 31 -246 94 -268 121 -8 10 -33 30 -55 44 -54 34 -126 145 -112
172 13 25 62 26 756 22 440 -2 532 -5 545 -18z m217 -71 c12 -13 30 -43 40
-68 16 -36 17 -47 6 -60 -33 -40 -92 -2 -105 67 -15 82 14 112 59 61z"/>
</g>
</svg>
