<?xml version="1.0" standalone="no"?>
<!DOCTYPE svg PUBLIC "-//W3C//DTD SVG 20010904//EN"
 "http://www.w3.org/TR/2001/REC-SVG-20010904/DTD/svg10.dtd">
<svg version="1.0" xmlns="http://www.w3.org/2000/svg"
 width="111.978253pt" height="114.143552pt" viewBox="0 0 111.978253 114.143552"
 preserveAspectRatio="xMidYMid meet">
<g transform="translate(-35.021747,142.594142) rotate(-360.00) scale(0.095238,-0.095238)"
fill="#000000" stroke="none">
<path d="M788 1472 c-122 -45 -173 -74 -233 -132 -50 -50 -145 -183 -145 -205
-1 -5 -10 -30 -21 -55 -17 -38 -21 -69 -21 -180 -1 -143 19 -233 63 -289 11
-14 21 -32 21 -41 -1 -22 157 -175 202 -195 21 -10 54 -25 73 -34 19 -9 79
-23 133 -32 81 -13 114 -13 184 -3 46 7 101 21 122 31 20 10 60 29 88 42 29
13 70 40 92 60 57 51 131 168 167 260 27 69 30 93 31 187 0 126 -16 188 -76
301 -101 191 -270 293 -507 308 -86 5 -102 3 -173 -23z m263 -97 c56 -10 104
-36 112 -61 6 -18 -375 -17 -401 2 -17 12 -17 15 -1 27 40 34 192 51 290 32z
m288 -210 c16 -14 26 -34 24 -46 -3 -21 -10 -22 -386 -25 -211 -1 -394 0 -407
3 -18 4 -24 13 -24 37 0 19 8 36 24 48 21 15 62 16 383 13 l359 -4 27 -26z
m68 -192 c34 -16 43 -78 15 -98 -21 -16 -498 -18 -785 -5 -164 8 -174 11 -175
61 0 56 -3 56 476 56 335 0 449 -4 469 -14z m-26 -221 c19 -14 19 -18 6 -55
-8 -23 -19 -47 -25 -54 -8 -10 -101 -13 -403 -13 l-394 0 -30 31 c-34 33 -36
40 -21 64 8 12 55 16 268 22 142 3 261 9 265 13 4 4 76 7 160 7 116 0 159 -4
174 -15z m-196 -247 c8 -5 12 -14 8 -20 -14 -22 -112 -65 -178 -77 -85 -15
-163 -1 -246 46 -56 31 -66 44 -42 54 23 9 443 7 458 -3z"/>
</g>
</svg>
