<?xml version="1.0" standalone="no"?>
<!DOCTYPE svg PUBLIC "-//W3C//DTD SVG 20010904//EN"
 "http://www.w3.org/TR/2001/REC-SVG-20010904/DTD/svg10.dtd">
<svg version="1.0" xmlns="http://www.w3.org/2000/svg"
 width="167.454545pt" height="76.587036pt" viewBox="0 0 167.454545 76.587036"
 preserveAspectRatio="xMidYMid meet">
<g transform="translate(-4.545455,129.810565) rotate(-360.00) scale(0.095238,-0.095238)"
fill="#000000" stroke="none">
<path d="M494 1343 c-53 -19 -115 -72 -116 -99 0 -7 -14 -25 -31 -41 -44 -43
-63 -90 -63 -156 0 -46 5 -65 24 -88 14 -16 32 -44 41 -62 22 -41 61 -62 103
-53 40 8 73 -8 73 -36 0 -16 -7 -21 -34 -21 -19 0 -57 -7 -86 -15 -67 -21
-129 -20 -169 1 -17 10 -54 18 -81 18 -68 1 -107 -36 -107 -99 0 -36 5 -48 36
-73 64 -53 101 -66 167 -58 32 4 70 14 83 23 18 12 41 15 84 11 33 -4 124 -9
202 -13 120 -6 148 -4 176 10 42 22 150 22 193 0 24 -12 50 -15 107 -10 113 8
404 9 459 1 39 -6 57 -3 92 15 23 12 50 21 58 21 9 0 25 13 35 27 10 15 29 41
42 57 21 26 24 42 24 136 0 77 -5 116 -17 139 -17 34 -15 66 7 121 13 32 12
37 -28 94 -29 43 -59 72 -104 98 -59 35 -68 37 -153 37 -83 0 -93 -2 -129 -30
-22 -16 -55 -47 -73 -67 -84 -92 -129 -129 -170 -139 -23 -6 -55 -18 -71 -26
-86 -46 -174 4 -275 153 -33 50 -104 107 -161 129 -55 21 -66 21 -138 -5z m99
-66 c19 -13 19 -16 2 -58 -13 -32 -16 -59 -11 -101 6 -51 4 -61 -17 -84 -43
-46 -126 -60 -126 -21 0 9 -5 16 -10 16 -6 0 -20 9 -32 21 -23 23 -27 63 -10
95 11 20 12 20 41 3 16 -9 37 -14 47 -11 21 9 22 53 1 71 -57 47 54 114 115
69z m216 -159 c84 -106 190 -147 271 -105 17 8 53 18 83 22 l52 7 20 -50 c10
-28 19 -72 19 -98 1 -47 0 -49 -41 -62 -59 -19 -107 -42 -168 -80 -29 -18 -79
-44 -112 -57 -56 -23 -60 -23 -96 -6 -35 17 -37 16 -82 -9 -46 -27 -48 -27
-196 -19 -139 7 -172 13 -158 27 4 4 36 10 72 16 48 6 76 17 103 39 48 39 52
66 18 111 -15 19 -27 41 -27 48 0 6 25 35 55 64 l55 51 1 81 c1 65 5 84 20 95
27 19 46 6 111 -75z m871 73 c8 -8 11 -18 7 -22 -8 -8 -38 16 -38 29 0 15 17
11 31 -7z m-112 -69 c45 -23 132 -124 143 -165 18 -68 24 -134 17 -184 -6 -40
-14 -53 -51 -80 -39 -29 -51 -33 -95 -29 -37 4 -58 13 -79 33 -15 15 -22 28
-15 28 7 0 15 -5 19 -11 3 -6 32 -10 63 -10 49 0 59 3 74 25 23 36 12 48 -45
48 -45 0 -53 4 -110 61 -70 70 -77 99 -29 116 19 7 31 18 31 30 0 11 -14 34
-31 50 -36 35 -38 44 -16 77 19 26 84 32 124 11z m-234 -82 c0 -18 -5 -32 -11
-32 -6 0 -10 14 -10 32 0 17 4 31 10 31 6 0 11 -14 11 -31z m-1126 -340 c24
-26 21 -38 -9 -38 -26 0 -67 36 -58 50 12 20 43 14 67 -12z m1140 8 c10 -4 17
-13 17 -22 0 -11 -18 -14 -92 -12 -70 2 -100 -2 -127 -15 -42 -22 -63 -14 -37
14 14 16 33 20 87 21 38 0 79 5 90 10 26 11 41 12 62 4z"/>
</g>
</svg>
