<?xml version="1.0" standalone="no"?>
<!DOCTYPE svg PUBLIC "-//W3C//DTD SVG 20010904//EN"
 "http://www.w3.org/TR/2001/REC-SVG-20010904/DTD/svg10.dtd">
<svg version="1.0" xmlns="http://www.w3.org/2000/svg"
 width="151.792423pt" height="162.041988pt" viewBox="0 0 151.792423 162.041988"
 preserveAspectRatio="xMidYMid meet">
<g transform="translate(-19.199509,175.000000) rotate(-360.00) scale(0.095238,-0.095238)"
fill="#000000" stroke="none">
<path d="M379 1820 c-25 -17 -25 -18 -19 -176 5 -145 7 -163 34 -216 34 -71
64 -121 104 -181 126 -185 112 -152 129 -320 13 -133 13 -181 0 -367 -10 -134
-20 -219 -28 -229 -11 -13 -44 -16 -171 -16 l-157 0 -36 -36 c-74 -74 -36 -87
227 -79 14 1 118 -2 229 -5 l203 -7 37 28 c44 34 66 82 67 143 0 69 10 78 62
61 40 -13 44 -13 69 11 15 14 29 42 33 65 3 22 11 43 16 46 13 8 49 -26 67
-64 26 -54 68 -125 95 -160 14 -18 25 -38 25 -44 0 -24 66 -84 118 -107 65
-28 251 -42 290 -21 27 14 30 60 7 91 -19 25 -20 61 -4 87 19 30 3 70 -54 133
-29 32 -53 62 -52 67 0 5 -32 46 -70 91 -57 69 -136 181 -188 268 -15 25 -64
99 -130 197 -32 48 -75 112 -95 143 -21 31 -62 86 -93 122 -30 37 -69 85 -87
106 -17 22 -60 55 -96 74 l-66 34 -9 74 c-4 40 -17 90 -28 111 -11 21 -21 46
-20 55 0 31 -40 39 -213 39 -142 0 -176 -3 -196 -18z m352 -71 c20 -28 20
-100 -1 -100 -8 0 -18 4 -21 10 -10 16 -56 13 -84 -6 -24 -15 -27 -15 -57 7
-27 20 -36 22 -59 12 -33 -16 -33 -33 0 -72 17 -19 29 -49 33 -82 9 -62 37
-96 67 -80 20 11 25 21 37 82 4 20 16 39 29 46 13 6 34 21 47 33 19 17 26 19
39 8 9 -8 16 -21 16 -31 0 -20 69 -95 87 -95 22 0 116 -96 182 -184 72 -97
151 -214 151 -224 0 -4 18 -32 39 -61 22 -30 48 -67 58 -84 53 -89 107 -169
134 -200 31 -35 41 -66 21 -66 -5 0 -33 20 -61 44 -28 25 -72 58 -97 73 -26
16 -87 58 -136 93 -49 35 -103 70 -121 78 -50 23 -177 140 -252 231 -37 47
-68 88 -68 93 0 4 7 22 16 39 18 34 49 55 71 46 21 -8 71 14 71 31 0 9 -10 19
-22 22 -34 11 -134 -6 -162 -28 -24 -18 -26 -28 -26 -94 0 -69 2 -78 38 -126
39 -55 231 -224 283 -251 42 -21 179 -122 230 -168 23 -21 65 -54 94 -74 109
-72 312 -288 373 -394 37 -63 26 -78 -59 -78 -61 0 -74 4 -110 33 -61 48 -143
161 -201 274 -14 28 -52 81 -86 119 -54 61 -65 69 -94 66 l-33 -3 -10 -89 c-9
-78 -14 -90 -32 -93 -31 -4 -78 47 -118 127 -19 38 -39 72 -44 75 -9 6 -20 25
-64 111 -10 20 -33 53 -51 73 -24 26 -32 46 -32 74 0 27 -11 54 -37 90 -20 28
-37 55 -37 60 0 4 -28 42 -62 84 -34 42 -77 104 -95 139 -19 34 -38 67 -43 73
-16 21 -41 167 -41 244 0 64 3 80 21 98 20 20 32 22 143 19 105 -3 123 -6 136
-24z m21 -912 c48 -54 78 -132 78 -207 0 -40 -5 -75 -11 -79 -14 -9 -86 16
-102 36 -9 10 -13 53 -13 128 0 150 7 169 48 122z m152 -376 c13 -20 12 -94
-2 -134 -15 -42 -66 -59 -141 -47 l-52 9 -3 82 c-2 50 1 88 8 97 17 20 176 14
190 -7z"/>
</g>
</svg>
