<?xml version="1.0" standalone="no"?>
<!DOCTYPE svg PUBLIC "-//W3C//DTD SVG 20010904//EN"
 "http://www.w3.org/TR/2001/REC-SVG-20010904/DTD/svg10.dtd">
<svg version="1.0" xmlns="http://www.w3.org/2000/svg"
 width="168.871374pt" height="42.370729pt" viewBox="0 0 168.871374 42.370729"
 preserveAspectRatio="xMidYMid meet">
<g transform="translate(-3.597656,104.519856) rotate(-360.00) scale(0.095238,-0.095238)"
fill="#000000" stroke="none">
<path d="M1118 1095 c-11 -3 -34 -17 -49 -32 l-29 -27 -42 29 c-50 35 -84 31
-118 -15 -30 -41 -66 -42 -87 -1 -17 34 -35 43 -83 43 -25 0 -43 -10 -69 -37
-20 -20 -44 -36 -53 -36 -9 0 -32 16 -50 36 -39 45 -72 48 -116 11 -38 -32
-48 -33 -67 -3 -12 18 -26 23 -61 23 -49 0 -49 0 -148 -130 -28 -38 -55 -74
-61 -80 -5 -6 -19 -34 -31 -61 -21 -47 -21 -52 -5 -76 22 -33 46 -46 88 -46
26 0 44 10 75 43 45 47 69 50 89 10 15 -30 43 -53 63 -53 7 0 33 25 57 55 57
72 79 73 115 3 18 -36 35 -56 56 -63 27 -9 33 -7 68 35 47 55 69 55 106 -2 27
-41 66 -59 94 -42 9 6 25 28 36 49 25 50 50 49 92 -3 22 -28 43 -42 58 -42 17
0 33 13 52 42 16 23 33 42 39 42 6 0 28 -19 50 -42 57 -62 104 -53 146 28 24
48 87 20 104 -46 5 -16 20 -37 35 -45 24 -13 30 -13 56 4 16 10 36 37 45 60 8
22 21 41 28 41 16 0 51 -40 66 -76 24 -56 103 -47 135 14 13 26 12 35 -6 83
-19 52 -100 168 -116 168 -5 0 -13 13 -19 29 -27 78 -103 123 -128 76 -6 -12
-20 -21 -30 -21 -11 0 -32 9 -46 21 -37 28 -86 27 -107 -3 -22 -31 -21 -36 9
-44 14 -3 41 -28 60 -54 45 -63 78 -62 108 3 12 25 27 45 34 45 22 0 88 -64
88 -84 0 -11 11 -33 24 -49 14 -16 28 -40 32 -52 4 -13 14 -29 23 -36 8 -7 15
-27 15 -44 0 -54 -32 -30 -66 50 -60 142 -88 146 -158 23 -39 -68 -58 -65 -91
15 -14 35 -32 66 -40 69 -27 11 -71 -19 -97 -68 -36 -70 -59 -67 -99 13 -39
78 -68 88 -99 35 -12 -18 -24 -47 -28 -63 -11 -52 -58 -35 -73 26 -8 31 -41
60 -69 60 -10 0 -23 -13 -30 -30 -14 -35 -68 -96 -84 -96 -6 0 -25 31 -42 68
-28 62 -34 69 -61 69 -30 0 -65 -28 -66 -50 0 -7 -12 -27 -27 -45 l-28 -33
-24 23 c-13 12 -27 35 -31 50 -10 41 -25 55 -59 55 -25 0 -36 -10 -62 -53 -18
-29 -40 -52 -48 -52 -8 0 -28 21 -44 47 -46 78 -99 71 -136 -16 -27 -66 -66
-95 -65 -50 1 42 120 217 148 218 10 0 33 -19 51 -41 54 -69 87 -65 136 17 10
17 13 16 37 -11 15 -16 26 -36 26 -44 1 -18 33 -37 65 -36 19 0 33 15 62 63
20 34 44 62 52 62 9 0 33 -24 54 -55 32 -48 41 -55 73 -55 30 0 38 6 52 36 24
49 46 59 72 32 11 -13 26 -36 33 -53 10 -23 19 -30 41 -30 32 0 47 13 73 65
23 47 44 47 75 0 51 -77 97 -105 123 -73 6 7 18 38 27 69 l17 57 -34 -7 c-30
-7 -38 -3 -76 39 -43 48 -68 61 -105 52z"/>
</g>
</svg>
