<?xml version="1.0" standalone="no"?>
<!DOCTYPE svg PUBLIC "-//W3C//DTD SVG 20010904//EN"
 "http://www.w3.org/TR/2001/REC-SVG-20010904/DTD/svg10.dtd">
<svg version="1.0" xmlns="http://www.w3.org/2000/svg"
 width="106.116681pt" height="157.767977pt" viewBox="0 0 106.116681 157.767977"
 preserveAspectRatio="xMidYMid meet">
<g transform="translate(-39.883319,168.759102) rotate(-360.00) scale(0.095238,-0.095238)"
fill="#000000" stroke="none">
<path d="M650 1766 c-9 -4 -55 -38 -102 -75 -74 -57 -87 -71 -84 -94 2 -21 15
-33 51 -50 84 -40 96 -62 106 -184 7 -96 13 -118 51 -194 23 -48 42 -92 42
-98 0 -7 40 -82 89 -168 l90 -156 -1 -87 c0 -52 -7 -105 -16 -130 -9 -23 -30
-84 -46 -135 -49 -149 -104 -190 -204 -148 -48 20 -84 20 -127 -1 -79 -37
-106 -100 -52 -120 37 -14 745 -14 772 0 13 7 20 22 20 43 0 24 -6 33 -29 42
-16 7 -36 15 -44 20 -25 13 -15 84 20 151 18 34 33 83 37 119 12 105 16 110
80 124 86 20 202 65 217 85 7 10 13 39 13 64 0 38 -7 53 -40 90 -48 53 -103
131 -144 202 -16 29 -67 91 -112 138 -45 47 -82 95 -82 106 0 12 -37 58 -84
106 -66 66 -84 91 -84 115 0 50 -50 172 -84 206 -31 31 -36 32 -134 35 -56 1
-110 -1 -119 -6z m161 -122 c45 -40 71 -93 71 -150 1 -54 14 -74 98 -150 39
-36 78 -82 86 -101 8 -20 65 -88 125 -151 61 -63 111 -121 111 -128 0 -24 55
-117 80 -138 48 -37 33 -54 -65 -80 -113 -30 -163 -29 -236 3 -74 33 -131 90
-180 178 -52 95 -57 113 -33 112 32 0 134 -42 154 -64 24 -26 73 -23 79 5 11
57 -41 122 -97 123 -68 0 -145 92 -123 149 5 14 17 31 26 39 38 31 4 85 -53
85 -31 0 -38 -5 -51 -37 -9 -20 -15 -61 -15 -91 0 -48 -3 -53 -15 -40 -8 8
-30 45 -49 81 -28 56 -32 72 -25 105 5 22 8 64 7 93 0 52 1 54 33 63 27 8 33
16 36 43 3 26 -2 34 -19 40 -27 8 -48 -8 -57 -43 -9 -35 -42 -30 -46 7 -2 20
6 35 30 55 44 37 80 35 128 -8z m24 -560 c-9 -9 -48 31 -47 49 0 12 8 8 27
-13 14 -17 24 -33 20 -36z m247 -520 c27 -59 26 -87 -6 -146 -14 -27 -26 -58
-26 -69 0 -11 -15 -39 -33 -64 -23 -32 -39 -44 -55 -41 -33 4 -33 52 -2 149
15 45 27 87 27 94 0 6 6 24 14 39 8 15 17 39 21 55 11 41 37 34 60 -17z"/>
</g>
</svg>
