<?xml version="1.0" standalone="no"?>
<!DOCTYPE svg PUBLIC "-//W3C//DTD SVG 20010904//EN"
 "http://www.w3.org/TR/2001/REC-SVG-20010904/DTD/svg10.dtd">
<svg version="1.0" xmlns="http://www.w3.org/2000/svg"
 width="97.884172pt" height="114.877253pt" viewBox="0 0 97.884172 114.877253"
 preserveAspectRatio="xMidYMid meet">
<g transform="translate(-36.039604,141.067809) rotate(-360.00) scale(0.095238,-0.095238)"
fill="#000000" stroke="none">
<path d="M1202 1447 c-76 -39 -246 -208 -283 -281 -14 -27 -29 -74 -35 -106
-13 -66 -33 -113 -93 -215 -52 -87 -109 -147 -166 -174 -82 -39 -178 -110
-209 -153 -25 -37 -31 -58 -36 -122 -4 -70 -2 -81 18 -101 22 -22 27 -23 256
-17 128 3 338 8 465 10 145 2 241 8 255 15 32 18 37 65 29 310 -4 122 -7 335
-5 474 2 332 2 339 -17 368 -24 38 -97 34 -179 -8z m83 -166 c-1 -26 -5 -142
-10 -259 -5 -148 -4 -234 5 -289 18 -112 18 -255 0 -277 -22 -27 -61 -37 -141
-37 -40 0 -118 -7 -172 -16 -68 -12 -123 -15 -174 -10 -40 4 -106 9 -145 11
-73 4 -102 17 -102 44 0 18 70 85 98 94 64 21 221 173 264 256 60 117 79 160
79 179 0 12 9 40 21 63 12 22 21 46 21 53 0 14 66 118 99 155 41 47 104 87
132 83 24 -2 26 -7 25 -50z"/>
</g>
</svg>
