<?xml version="1.0" standalone="no"?>
<!DOCTYPE svg PUBLIC "-//W3C//DTD SVG 20010904//EN"
 "http://www.w3.org/TR/2001/REC-SVG-20010904/DTD/svg10.dtd">
<svg version="1.0" xmlns="http://www.w3.org/2000/svg"
 width="169.972342pt" height="49.906552pt" viewBox="0 0 169.972342 49.906552"
 preserveAspectRatio="xMidYMid meet">
<g transform="translate(-5.017633,118.906552) rotate(-360.00) scale(0.095238,-0.095238)"
fill="#000000" stroke="none">
<path d="M651 1222 c-99 -25 -167 -44 -336 -95 -105 -31 -241 -96 -257 -122
-17 -29 4 -51 90 -93 90 -45 280 -105 511 -161 94 -23 132 -26 286 -26 154 0
192 3 286 26 231 56 421 116 511 161 127 62 127 88 0 150 -90 45 -280 105
-511 161 -96 24 -129 26 -294 25 -159 -1 -201 -4 -286 -26z m582 -103 c186
-47 313 -89 344 -113 l24 -19 -24 -19 c-31 -24 -158 -66 -344 -113 -128 -33
-156 -36 -288 -36 -132 0 -160 3 -288 36 -186 47 -313 89 -344 113 l-24 19 25
19 c27 22 176 71 353 117 100 26 136 30 270 31 143 1 165 -2 296 -35z"/>
</g>
</svg>
