<?xml version="1.0" standalone="no"?>
<!DOCTYPE svg PUBLIC "-//W3C//DTD SVG 20010904//EN"
 "http://www.w3.org/TR/2001/REC-SVG-20010904/DTD/svg10.dtd">
<svg version="1.0" xmlns="http://www.w3.org/2000/svg"
 width="48.817570pt" height="177.761605pt" viewBox="0 0 48.817570 177.761605"
 preserveAspectRatio="xMidYMid meet">
<g transform="translate(-59.682430,177.761605) rotate(-360.00) scale(0.095238,-0.095238)"
fill="#000000" stroke="none">
<path d="M801 1860 c-38 -11 -117 -84 -142 -131 l-24 -44 -6 -777 c-4 -427 -3
-800 1 -828 10 -65 29 -80 101 -80 64 0 92 22 109 84 5 20 12 358 16 751 3
392 8 729 11 749 7 44 38 42 48 -4 3 -17 7 -212 8 -434 1 -476 -2 -463 103
-463 111 -1 113 8 113 561 0 400 -2 455 -17 483 -26 48 -110 125 -143 133 -38
9 -149 9 -178 0z m178 -96 c10 0 30 -18 44 -39 25 -39 26 -46 32 -292 3 -138
3 -342 -2 -451 -8 -190 -9 -200 -29 -200 -21 0 -21 7 -21 431 0 487 1 479 -76
491 -66 11 -110 -4 -134 -45 -19 -33 -22 -61 -28 -294 -4 -141 -7 -480 -8
-753 -1 -272 -4 -502 -7 -511 -4 -10 -13 -17 -21 -17 -38 0 -39 30 -32 713 3
367 8 699 10 737 6 90 32 178 62 206 25 24 88 35 155 28 20 -2 45 -4 55 -4z"/>
</g>
</svg>
