<?xml version="1.0" standalone="no"?>
<!DOCTYPE svg PUBLIC "-//W3C//DTD SVG 20010904//EN"
 "http://www.w3.org/TR/2001/REC-SVG-20010904/DTD/svg10.dtd">
<svg version="1.0" xmlns="http://www.w3.org/2000/svg"
 width="51.970694pt" height="76.867005pt" viewBox="0 0 51.970694 76.867005"
 preserveAspectRatio="xMidYMid meet">
<g transform="translate(-63.029306,133.934412) rotate(-360.00) scale(0.095238,-0.095238)"
fill="#000000" stroke="none">
<path d="M836 1392 c-51 -19 -104 -69 -144 -139 -30 -52 -30 -57 -30 -199 0
-122 4 -153 21 -188 11 -23 20 -48 20 -55 1 -17 151 -182 181 -199 46 -25 114
-12 114 22 0 5 -45 55 -100 110 -126 129 -163 200 -163 314 0 64 5 87 31 138
33 65 80 112 122 123 38 9 111 -4 150 -28 100 -61 76 -241 -32 -241 -50 0 -63
36 -34 93 34 67 -31 89 -88 30 -44 -45 -44 -84 -1 -143 35 -49 83 -74 140 -74
70 -1 185 130 185 210 0 94 -57 178 -147 219 -57 26 -163 29 -225 7z"/>
</g>
</svg>
