<?xml version="1.0" standalone="no"?>
<!DOCTYPE svg PUBLIC "-//W3C//DTD SVG 20010904//EN"
 "http://www.w3.org/TR/2001/REC-SVG-20010904/DTD/svg10.dtd">
<svg version="1.0" xmlns="http://www.w3.org/2000/svg"
 width="166.738386pt" height="58.255812pt" viewBox="0 0 166.738386 58.255812"
 preserveAspectRatio="xMidYMid meet">
<g transform="translate(-5.181226,111.874727) rotate(-360.00) scale(0.095238,-0.095238)"
fill="#000000" stroke="none">
<path d="M91 1154 c-20 -28 -11 -58 26 -84 16 -12 30 -27 30 -34 0 -7 -21 -34
-47 -59 -55 -54 -59 -80 -19 -118 51 -46 101 -69 169 -77 55 -6 71 -12 90 -35
51 -63 123 -125 180 -153 53 -27 72 -31 146 -31 68 0 95 5 137 26 50 23 62 25
231 23 157 -1 185 -4 229 -24 48 -21 60 -22 272 -15 213 7 224 9 247 32 28 28
30 54 9 83 -14 19 -31 21 -220 24 -162 3 -207 6 -217 18 -7 9 -18 16 -24 16
-6 0 -30 9 -54 20 -23 11 -64 28 -89 38 -26 9 -67 24 -90 33 -91 35 -250 26
-468 -24 -21 -5 -38 3 -78 36 -29 24 -82 67 -118 96 -36 30 -65 62 -65 72 0
11 16 34 36 53 40 35 47 64 21 85 -29 24 -68 15 -109 -25 -21 -21 -48 -38 -60
-38 -12 0 -41 19 -65 42 -47 47 -77 53 -100 20z m200 -233 c19 -13 34 -27 34
-31 1 -10 -64 -21 -94 -17 -13 2 -29 12 -36 23 -9 15 -7 22 9 34 28 21 46 19
87 -9z m225 -157 c96 -64 112 -69 149 -48 34 20 138 41 232 47 63 5 98 1 147
-14 l64 -19 -53 -7 c-29 -4 -87 -8 -129 -8 -57 -1 -88 -7 -121 -24 -34 -18
-63 -23 -128 -24 -46 0 -97 3 -112 8 -28 8 -155 128 -155 147 0 12 2 11 106
-58z"/>
</g>
</svg>
