<?xml version="1.0" standalone="no"?>
<!DOCTYPE svg PUBLIC "-//W3C//DTD SVG 20010904//EN"
 "http://www.w3.org/TR/2001/REC-SVG-20010904/DTD/svg10.dtd">
<svg version="1.0" xmlns="http://www.w3.org/2000/svg"
 width="106.194850pt" height="157.911594pt" viewBox="0 0 106.194850 157.911594"
 preserveAspectRatio="xMidYMid meet">
<g transform="translate(-36.189765,167.911594) rotate(-360.00) scale(0.095238,-0.095238)"
fill="#000000" stroke="none">
<path d="M613 1754 c-12 -5 -44 -30 -70 -56 -27 -26 -63 -52 -80 -60 -58 -24
-52 -83 12 -105 19 -6 48 -22 65 -36 28 -23 30 -32 40 -133 7 -77 17 -125 35
-164 14 -30 26 -58 26 -62 -1 -10 94 -197 142 -282 77 -136 81 -149 74 -238
-3 -48 -14 -98 -26 -122 -11 -21 -23 -58 -27 -80 -12 -64 -53 -147 -85 -173
-35 -27 -87 -29 -149 -5 -63 24 -108 13 -154 -39 -44 -49 -46 -56 -15 -78 20
-14 76 -16 393 -16 341 0 371 1 393 19 32 26 20 60 -30 84 -37 18 -39 21 -37
68 1 30 11 64 24 86 13 21 30 78 39 129 9 50 21 98 27 105 6 7 25 13 42 13 17
0 49 9 70 20 21 11 54 23 75 27 20 3 50 17 67 30 27 22 31 32 31 80 0 51 -3
58 -44 97 -24 23 -44 48 -44 56 0 8 -19 36 -42 63 -23 27 -50 64 -59 82 -10
18 -55 73 -100 121 -45 48 -82 95 -82 105 0 10 -38 57 -83 105 -70 74 -84 94
-89 132 -5 39 -20 78 -51 132 -5 9 -16 31 -24 49 -9 19 -25 39 -36 45 -25 13
-196 13 -228 1z m162 -112 c32 -21 64 -95 72 -164 5 -53 10 -59 89 -135 45
-44 83 -88 83 -98 0 -10 38 -59 86 -109 48 -51 100 -111 116 -133 59 -85 91
-137 91 -148 0 -6 12 -22 27 -36 44 -42 35 -58 -50 -85 -130 -40 -213 -28
-326 47 -32 22 -81 93 -129 187 -33 64 -30 84 8 59 13 -9 43 -19 65 -22 23 -4
54 -19 70 -34 62 -60 110 -5 60 69 -17 26 -37 39 -67 47 -61 15 -92 39 -114
89 -16 35 -17 47 -8 61 42 59 47 76 29 103 -21 32 -59 32 -96 1 -23 -20 -29
-36 -33 -84 -3 -33 -9 -60 -14 -60 -4 0 -21 27 -37 60 -25 54 -29 73 -29 173
l-1 113 31 3 c29 2 32 6 32 40 0 30 -4 37 -26 40 -30 4 -53 -22 -53 -58 0 -30
-16 -32 -32 -3 -15 29 3 76 35 92 28 14 88 6 121 -15z m264 -1076 c17 -31 22
-53 18 -81 -7 -53 -38 -138 -61 -169 -11 -14 -19 -30 -19 -36 0 -18 -34 -49
-54 -49 -10 0 -21 7 -24 16 -8 21 18 130 58 244 17 51 34 98 36 105 7 23 21
14 46 -30z"/>
</g>
</svg>
