<?xml version="1.0" standalone="no"?>
<!DOCTYPE svg PUBLIC "-//W3C//DTD SVG 20010904//EN"
 "http://www.w3.org/TR/2001/REC-SVG-20010904/DTD/svg10.dtd">
<svg version="1.0" xmlns="http://www.w3.org/2000/svg"
 width="49.311125pt" height="178.925015pt" viewBox="0 0 49.311125 178.925015"
 preserveAspectRatio="xMidYMid meet">
<g transform="translate(-56.611457,178.925015) rotate(-360.00) scale(0.095238,-0.095238)"
fill="#000000" stroke="none">
<path d="M798 1860 c-88 -26 -131 -61 -161 -127 l-27 -58 -8 -656 c-5 -361 -8
-727 -7 -812 1 -147 2 -157 25 -181 20 -21 34 -26 78 -26 45 0 59 5 80 27 30
32 30 29 52 969 12 489 17 603 29 608 36 14 38 -13 40 -450 1 -272 5 -435 12
-442 22 -22 90 -38 119 -28 64 23 66 32 74 280 4 125 8 336 8 468 1 266 -10
329 -62 362 -14 9 -36 24 -47 34 -21 17 -115 52 -136 51 -6 -1 -37 -9 -69 -19z
m179 -124 l52 -48 0 -434 c0 -238 -3 -441 -6 -450 -9 -22 -46 -21 -49 2 -1 10
-2 205 -2 433 -1 475 1 466 -82 478 -63 9 -97 -7 -126 -60 l-24 -45 -5 -754
c-6 -792 -5 -784 -50 -766 -12 4 -14 118 -11 757 4 746 4 753 27 815 38 101
63 119 163 120 58 1 63 -1 113 -48z"/>
</g>
</svg>
