<?xml version="1.0" standalone="no"?>
<!DOCTYPE svg PUBLIC "-//W3C//DTD SVG 20010904//EN"
 "http://www.w3.org/TR/2001/REC-SVG-20010904/DTD/svg10.dtd">
<svg version="1.0" xmlns="http://www.w3.org/2000/svg"
 width="108.063226pt" height="179.949724pt" viewBox="0 0 108.063226 179.949724"
 preserveAspectRatio="xMidYMid meet">
<g transform="translate(-26.107184,180.000000) rotate(-360.00) scale(0.095238,-0.095238)"
fill="#000000" stroke="none">
<path d="M453 1869 c-34 -37 -54 -88 -54 -138 0 -25 -5 -64 -10 -87 -5 -23
-15 -103 -21 -178 -7 -76 -19 -169 -27 -207 -8 -39 -18 -112 -22 -163 -3 -51
-15 -121 -27 -155 -36 -111 -31 -122 140 -280 44 -41 93 -98 109 -127 28 -52
29 -60 37 -275 4 -122 12 -231 16 -241 6 -16 19 -18 92 -16 l86 3 -2 32 c0 17
-4 369 -8 782 -5 557 -10 767 -20 814 -16 73 -86 194 -123 211 -31 15 -91 36
-122 43 -14 3 -30 -3 -44 -18z m108 -209 c37 -59 45 -95 21 -95 -30 0 -88 62
-88 94 0 57 32 57 67 1z m13 -192 c33 -34 39 -48 36 -85 -1 -24 -34 -23 -85 3
-46 24 -63 48 -63 92 0 65 44 62 112 -10z m-47 -145 c19 -17 38 -31 42 -31 17
0 40 -36 40 -64 0 -56 -55 -60 -128 -8 -45 31 -50 39 -50 73 -1 31 23 62 47
62 8 0 30 -15 49 -32z m35 -209 c36 -24 42 -34 45 -72 4 -53 -15 -67 -55 -40
-15 9 -41 17 -58 17 -20 0 -32 5 -32 14 0 7 -9 22 -21 33 -21 18 -29 67 -13
83 14 14 92 -6 134 -35z m-60 -147 c22 -16 49 -33 62 -37 30 -9 48 -42 40 -69
-10 -30 -34 -26 -75 11 -20 17 -42 31 -49 31 -7 0 -28 15 -47 33 -28 25 -32
35 -23 47 19 23 51 17 92 -16z m73 -196 c25 -20 34 -35 34 -58 0 -18 -7 -34
-15 -37 -18 -7 -132 87 -132 109 0 8 -14 22 -31 32 -18 10 -32 23 -32 30 0 16
127 -40 176 -76z"/>
<path d="M1064 1846 c-25 -40 -29 -59 -36 -184 -5 -77 -13 -158 -19 -179 -6
-22 -13 -72 -16 -113 -4 -40 -13 -113 -22 -162 -29 -174 -50 -357 -43 -383 4
-14 28 -42 53 -62 79 -60 114 -94 166 -160 44 -56 51 -73 62 -142 6 -43 14
-154 18 -248 6 -141 10 -173 25 -188 23 -23 138 -34 150 -14 13 21 6 1572 -8
1627 -6 26 -22 64 -36 84 -13 20 -24 42 -24 49 0 19 -62 86 -96 104 -16 8 -56
15 -88 15 -57 0 -58 -1 -86 -44z m138 -174 c28 -41 36 -97 13 -97 -7 0 -29 14
-47 31 -26 24 -34 39 -34 68 0 52 32 51 68 -2z m-6 -168 c43 -41 54 -58 54
-85 0 -42 -21 -51 -60 -27 -64 40 -87 70 -87 110 0 69 21 69 93 2z m-47 -160
c11 -11 35 -25 55 -32 38 -13 53 -43 41 -89 -5 -20 -13 -26 -36 -26 -17 0 -36
7 -43 15 -6 8 -25 18 -40 22 -35 8 -44 22 -44 65 -1 67 30 87 67 45z m26 -197
c69 -38 93 -88 58 -122 -17 -18 -57 -9 -88 20 -9 7 -30 17 -46 21 -33 9 -54
48 -44 86 8 34 55 32 120 -5z m-20 -176 c30 -20 59 -36 64 -36 13 0 29 -44 23
-61 -9 -22 -32 -15 -103 30 -69 44 -90 67 -81 91 8 22 40 14 97 -24z m60 -190
c24 -24 33 -81 14 -93 -9 -6 -189 169 -189 184 0 13 148 -64 175 -91z"/>
</g>
</svg>
