<?xml version="1.0" standalone="no"?>
<!DOCTYPE svg PUBLIC "-//W3C//DTD SVG 20010904//EN"
 "http://www.w3.org/TR/2001/REC-SVG-20010904/DTD/svg10.dtd">
<svg version="1.0" xmlns="http://www.w3.org/2000/svg"
 width="167.000000pt" height="24.573466pt" viewBox="0 0 167.000000 24.573466"
 preserveAspectRatio="xMidYMid meet">
<g transform="translate(-4.000000,107.786733) rotate(-360.00) scale(0.095238,-0.095238)"
fill="#000000" stroke="none">
<path d="M791 1109 c-68 -57 -83 -59 -412 -59 -262 0 -306 -2 -321 -17 -9 -9
-16 -22 -16 -30 0 -8 7 -22 16 -31 15 -14 59 -16 321 -16 329 0 344 -3 412
-59 28 -24 38 -27 75 -20 23 4 54 6 69 5 84 -8 105 -4 133 23 16 16 43 33 59
39 18 7 145 12 336 12 323 0 333 1 333 47 0 46 -10 47 -333 47 -191 0 -318 4
-336 11 -16 6 -43 24 -59 39 -28 27 -49 31 -133 24 -15 -1 -46 1 -69 5 -37 6
-47 3 -75 -20z m96 -89 c10 -32 -5 -54 -36 -54 -32 0 -47 22 -37 54 4 13 16
20 37 20 20 0 32 -7 36 -20z m137 -17 c0 -28 -4 -32 -32 -32 -22 0 -32 6 -35
19 -6 34 7 51 38 48 24 -3 29 -9 29 -35z"/>
</g>
</svg>
