solid OpenSCAD_Model
  facet normal -0 0 -1
    outer loop
      vertex 18.7168 0.609375 -2.5
      vertex 18.623 0.493164 -2.5
      vertex 18.7344 0.651367 -2.5
    endloop
  endfacet
  facet normal -0 0 -1
    outer loop
      vertex 18.7344 0.651367 -2.5
      vertex 18.3789 0.37207 -2.5
      vertex 18.8047 0.820312 -2.5
    endloop
  endfacet
  facet normal -0 0 -1
    outer loop
      vertex 18.623 0.493164 -2.5
      vertex 18.3789 0.37207 -2.5
      vertex 18.7344 0.651367 -2.5
    endloop
  endfacet
  facet normal 0 0 -1
    outer loop
      vertex 18.8047 0.820312 -2.5
      vertex 18.3789 0.37207 -2.5
      vertex 17.9199 0.28418 -2.5
    endloop
  endfacet
  facet normal 0 0 -1
    outer loop
      vertex 18.8252 1.80957 -2.5
      vertex 18.8047 0.820312 -2.5
      vertex 17.9199 0.28418 -2.5
    endloop
  endfacet
  facet normal 0 0 -1
    outer loop
      vertex 17.1611 0.22168 -2.5
      vertex 18.8252 1.80957 -2.5
      vertex 17.9199 0.28418 -2.5
    endloop
  endfacet
  facet normal 0 0 -1
    outer loop
      vertex 15.1006 3.97656 -2.5
      vertex 15.3154 4.29688 -2.5
      vertex 18.8252 1.80957 -2.5
    endloop
  endfacet
  facet normal 0 0 -1
    outer loop
      vertex 15.3154 4.29688 -2.5
      vertex 15.4834 5.30859 -2.5
      vertex 18.8877 4.44141 -2.5
    endloop
  endfacet
  facet normal 0 0 -1
    outer loop
      vertex 18.8252 1.80957 -2.5
      vertex 15.3154 4.29688 -2.5
      vertex 18.8877 4.44141 -2.5
    endloop
  endfacet
  facet normal 0 0 -1
    outer loop
      vertex 17.1611 0.22168 -2.5
      vertex 15.1006 3.97656 -2.5
      vertex 18.8252 1.80957 -2.5
    endloop
  endfacet
  facet normal 0 -0 -1
    outer loop
      vertex 15.5508 7.58203 -2.5
      vertex 18.9219 8.05371 -2.5
      vertex 15.4834 5.30859 -2.5
    endloop
  endfacet
  facet normal 0 0 -1
    outer loop
      vertex 13.542 3.56934 -2.5
      vertex 14.5107 3.6875 -2.5
      vertex 14.3994 0.160156 -2.5
    endloop
  endfacet
  facet normal 0 0 -1
    outer loop
      vertex -0.000976562 11.5938 -2.5
      vertex 3.42188 11.376 -2.5
      vertex 3.45703 8.67383 -2.5
    endloop
  endfacet
  facet normal -0 0 -1
    outer loop
      vertex 9.96875 23.6074 -2.5
      vertex 9.18066 20.2363 -2.5
      vertex 6.76465 23.6338 -2.5
    endloop
  endfacet
  facet normal 0 0 -1
    outer loop
      vertex 15.918 23.498 -2.5
      vertex 14.9795 19.7832 -2.5
      vertex 14.6494 19.9648 -2.5
    endloop
  endfacet
  facet normal 0 0 -1
    outer loop
      vertex 17.8984 23.4238 -2.5
      vertex 18.7754 23.2705 -2.5
      vertex 18.7988 22.3135 -2.5
    endloop
  endfacet
  facet normal 0 0 -1
    outer loop
      vertex 17.8984 23.4238 -2.5
      vertex 18.707 23.3408 -2.5
      vertex 18.7754 23.2705 -2.5
    endloop
  endfacet
  facet normal 0 0 -1
    outer loop
      vertex 17.8984 23.4238 -2.5
      vertex 18.6436 23.3975 -2.5
      vertex 18.707 23.3408 -2.5
    endloop
  endfacet
  facet normal 0 0 -1
    outer loop
      vertex 15.918 23.498 -2.5
      vertex 17.8984 23.4238 -2.5
      vertex 18.7988 22.3135 -2.5
    endloop
  endfacet
  facet normal 0 0 -1
    outer loop
      vertex 13.1475 23.5615 -2.5
      vertex 12.4092 20.1963 -2.5
      vertex 10.6113 20.2236 -2.5
    endloop
  endfacet
  facet normal 0 0 -1
    outer loop
      vertex 9.96875 23.6074 -2.5
      vertex 10.6113 20.2236 -2.5
      vertex 10.0127 20.2285 -2.5
    endloop
  endfacet
  facet normal 0 -0 -1
    outer loop
      vertex 6.76465 23.6338 -2.5
      vertex 9.18066 20.2363 -2.5
      vertex 6.68652 20.2383 -2.5
    endloop
  endfacet
  facet normal 0 0 -1
    outer loop
      vertex 3.44531 16.542 -2.5
      vertex 3.41602 14.1045 -2.5
      vertex 0.00976562 15.5508 -2.5
    endloop
  endfacet
  facet normal 0 -0 -1
    outer loop
      vertex 3.91504 23.6338 -2.5
      vertex 3.97656 19.834 -2.5
      vertex 1.80371 23.6035 -2.5
    endloop
  endfacet
  facet normal 0 0 -1
    outer loop
      vertex 0.0410156 19.0498 -2.5
      vertex 3.54004 19.0684 -2.5
      vertex 3.51172 18.3701 -2.5
    endloop
  endfacet
  facet normal 0 -0 -1
    outer loop
      vertex 0.416016 23.2549 -2.5
      vertex 1.01562 23.5938 -2.5
      vertex 0.167969 22.7803 -2.5
    endloop
  endfacet
  facet normal 0 0 -1
    outer loop
      vertex 0.416016 23.2549 -2.5
      vertex 0.813477 23.5371 -2.5
      vertex 1.01562 23.5938 -2.5
    endloop
  endfacet
  facet normal 0 0 -1
    outer loop
      vertex 0.416016 23.2549 -2.5
      vertex 0.743164 23.5166 -2.5
      vertex 0.813477 23.5371 -2.5
    endloop
  endfacet
  facet normal 0 -0 -1
    outer loop
      vertex 0.188477 22.8643 -2.5
      vertex 0.416016 23.2549 -2.5
      vertex 0.167969 22.7803 -2.5
    endloop
  endfacet
  facet normal 0 -0 -1
    outer loop
      vertex 0.167969 22.7803 -2.5
      vertex 1.01562 23.5938 -2.5
      vertex 0.111328 22.5781 -2.5
    endloop
  endfacet
  facet normal 0 0 -1
    outer loop
      vertex 0.111328 22.5781 -2.5
      vertex 1.01562 23.5938 -2.5
      vertex 1.80371 23.6035 -2.5
    endloop
  endfacet
  facet normal 0 0 -1
    outer loop
      vertex 0.09375 21.6172 -2.5
      vertex 0.111328 22.5781 -2.5
      vertex 1.80371 23.6035 -2.5
    endloop
  endfacet
  facet normal 0 0 -1
    outer loop
      vertex 0.0410156 19.0498 -2.5
      vertex 3.61719 19.2744 -2.5
      vertex 3.54004 19.0684 -2.5
    endloop
  endfacet
  facet normal 0 0 -1
    outer loop
      vertex 0.00976562 15.5508 -2.5
      vertex 0.0410156 19.0498 -2.5
      vertex 3.44531 16.542 -2.5
    endloop
  endfacet
  facet normal 0 0 -1
    outer loop
      vertex -0.000976562 11.5938 -2.5
      vertex 3.41602 14.1045 -2.5
      vertex 3.42188 11.376 -2.5
    endloop
  endfacet
  facet normal 0 0 -1
    outer loop
      vertex 0.00976562 7.64648 -2.5
      vertex -0.000976562 11.5938 -2.5
      vertex 3.45703 8.67383 -2.5
    endloop
  endfacet
  facet normal -0 0 -1
    outer loop
      vertex 12.2305 0.150391 -2.5
      vertex 10.124 0.147461 -2.5
      vertex 11.8525 3.53613 -2.5
    endloop
  endfacet
  facet normal 0 0 -1
    outer loop
      vertex 8.21973 0.147461 -2.5
      vertex 8.6875 3.5791 -2.5
      vertex 10.124 0.147461 -2.5
    endloop
  endfacet
  facet normal 0 0 -1
    outer loop
      vertex 8.21973 0.147461 -2.5
      vertex 7.15625 3.62598 -2.5
      vertex 8.6875 3.5791 -2.5
    endloop
  endfacet
  facet normal 0 0 -1
    outer loop
      vertex 4.6123 0.163086 -2.5
      vertex 3.76465 3.84863 -2.5
      vertex 4.24121 3.79004 -2.5
    endloop
  endfacet
  facet normal 0 0 -1
    outer loop
      vertex 0.543945 0.359375 -2.5
      vertex 0.167969 0.595703 -2.5
      vertex 0.111328 0.736328 -2.5
    endloop
  endfacet
  facet normal 0 0 -1
    outer loop
      vertex 0.543945 0.359375 -2.5
      vertex 0.197266 0.513672 -2.5
      vertex 0.167969 0.595703 -2.5
    endloop
  endfacet
  facet normal 0 0 -1
    outer loop
      vertex 0.09375 1.67676 -2.5
      vertex 0.543945 0.359375 -2.5
      vertex 0.111328 0.736328 -2.5
    endloop
  endfacet
  facet normal 0 0 -1
    outer loop
      vertex 0.09375 1.67676 -2.5
      vertex 1.83984 0.224609 -2.5
      vertex 0.543945 0.359375 -2.5
    endloop
  endfacet
  facet normal -0 0 -1
    outer loop
      vertex 5.44434 3.70312 -2.5
      vertex 4.6123 0.163086 -2.5
      vertex 4.24121 3.79004 -2.5
    endloop
  endfacet
  facet normal 0 0 -1
    outer loop
      vertex 10.124 0.147461 -2.5
      vertex 8.6875 3.5791 -2.5
      vertex 9.86133 3.55664 -2.5
    endloop
  endfacet
  facet normal -0 0 -1
    outer loop
      vertex 11.8525 3.53613 -2.5
      vertex 10.124 0.147461 -2.5
      vertex 9.86133 3.55664 -2.5
    endloop
  endfacet
  facet normal 0 0 -1
    outer loop
      vertex 15.5645 12.7646 -2.5
      vertex 18.9121 16.2168 -2.5
      vertex 18.9297 12.1436 -2.5
    endloop
  endfacet
  facet normal 0 0 -1
    outer loop
      vertex 0.0410156 4.18555 -2.5
      vertex 0.00976562 7.64648 -2.5
      vertex 3.52246 6.31152 -2.5
    endloop
  endfacet
  facet normal 0 0 -1
    outer loop
      vertex 0.09375 1.67676 -2.5
      vertex 3.73047 3.87598 -2.5
      vertex 1.83984 0.224609 -2.5
    endloop
  endfacet
  facet normal 0 0 -1
    outer loop
      vertex 8.21973 0.147461 -2.5
      vertex 4.6123 0.163086 -2.5
      vertex 7.15625 3.62598 -2.5
    endloop
  endfacet
  facet normal -0 0 -1
    outer loop
      vertex 7.15625 3.62598 -2.5
      vertex 4.6123 0.163086 -2.5
      vertex 5.44434 3.70312 -2.5
    endloop
  endfacet
  facet normal 0 0 -1
    outer loop
      vertex 1.83984 0.224609 -2.5
      vertex 3.76465 3.84863 -2.5
      vertex 4.6123 0.163086 -2.5
    endloop
  endfacet
  facet normal 0 0 -1
    outer loop
      vertex 1.83984 0.224609 -2.5
      vertex 3.73047 3.87598 -2.5
      vertex 3.76465 3.84863 -2.5
    endloop
  endfacet
  facet normal 0 0 -1
    outer loop
      vertex 0.09375 1.67676 -2.5
      vertex 3.64648 3.96875 -2.5
      vertex 3.73047 3.87598 -2.5
    endloop
  endfacet
  facet normal 0 0 -1
    outer loop
      vertex 0.09375 1.67676 -2.5
      vertex 0.0410156 4.18555 -2.5
      vertex 3.64648 3.96875 -2.5
    endloop
  endfacet
  facet normal 0 0 -1
    outer loop
      vertex 3.64648 3.96875 -2.5
      vertex 0.0410156 4.18555 -2.5
      vertex 3.61426 4.60645 -2.5
    endloop
  endfacet
  facet normal -0 0 -1
    outer loop
      vertex 3.61426 4.60645 -2.5
      vertex 0.0410156 4.18555 -2.5
      vertex 3.52246 6.31152 -2.5
    endloop
  endfacet
  facet normal 0 0 -1
    outer loop
      vertex 3.52246 6.31152 -2.5
      vertex 0.00976562 7.64648 -2.5
      vertex 3.45703 8.67383 -2.5
    endloop
  endfacet
  facet normal -0 0 -1
    outer loop
      vertex 18.8682 19.7725 -2.5
      vertex 15.1533 19.6025 -2.5
      vertex 18.7988 22.3135 -2.5
    endloop
  endfacet
  facet normal 0 0 -1
    outer loop
      vertex 3.91504 23.6338 -2.5
      vertex 4.83691 20.1309 -2.5
      vertex 3.97656 19.834 -2.5
    endloop
  endfacet
  facet normal 0 -0 -1
    outer loop
      vertex 0.00976562 15.5508 -2.5
      vertex 3.41602 14.1045 -2.5
      vertex -0.000976562 11.5938 -2.5
    endloop
  endfacet
  facet normal 0 0 -1
    outer loop
      vertex 18.9121 16.2168 -2.5
      vertex 15.5645 12.7646 -2.5
      vertex 15.5488 15.7871 -2.5
    endloop
  endfacet
  facet normal 0 0 -1
    outer loop
      vertex 3.44531 16.542 -2.5
      vertex 0.0410156 19.0498 -2.5
      vertex 3.51172 18.3701 -2.5
    endloop
  endfacet
  facet normal 0 0 -1
    outer loop
      vertex 3.6748 19.4277 -2.5
      vertex 3.61719 19.2744 -2.5
      vertex 0.0410156 19.0498 -2.5
    endloop
  endfacet
  facet normal 0 -0 -1
    outer loop
      vertex 0.09375 21.6172 -2.5
      vertex 3.6748 19.4277 -2.5
      vertex 0.0410156 19.0498 -2.5
    endloop
  endfacet
  facet normal 0 0 -1
    outer loop
      vertex 3.6748 19.4277 -2.5
      vertex 0.09375 21.6172 -2.5
      vertex 3.97656 19.834 -2.5
    endloop
  endfacet
  facet normal 0 0 -1
    outer loop
      vertex 3.97656 19.834 -2.5
      vertex 0.09375 21.6172 -2.5
      vertex 1.80371 23.6035 -2.5
    endloop
  endfacet
  facet normal 0 0 -1
    outer loop
      vertex 3.91504 23.6338 -2.5
      vertex 6.76465 23.6338 -2.5
      vertex 4.83691 20.1309 -2.5
    endloop
  endfacet
  facet normal 0 0 -1
    outer loop
      vertex 4.83691 20.1309 -2.5
      vertex 6.76465 23.6338 -2.5
      vertex 6.68652 20.2383 -2.5
    endloop
  endfacet
  facet normal 0 -0 -1
    outer loop
      vertex 9.96875 23.6074 -2.5
      vertex 10.0127 20.2285 -2.5
      vertex 9.18066 20.2363 -2.5
    endloop
  endfacet
  facet normal -0 0 -1
    outer loop
      vertex 18.7988 22.3135 -2.5
      vertex 14.9795 19.7832 -2.5
      vertex 15.918 23.498 -2.5
    endloop
  endfacet
  facet normal 0 0 -1
    outer loop
      vertex 9.96875 23.6074 -2.5
      vertex 13.1475 23.5615 -2.5
      vertex 10.6113 20.2236 -2.5
    endloop
  endfacet
  facet normal 0 -0 -1
    outer loop
      vertex 13.1475 23.5615 -2.5
      vertex 13.8613 20.1191 -2.5
      vertex 12.4092 20.1963 -2.5
    endloop
  endfacet
  facet normal 0 0 -1
    outer loop
      vertex 13.1475 23.5615 -2.5
      vertex 15.918 23.498 -2.5
      vertex 13.8613 20.1191 -2.5
    endloop
  endfacet
  facet normal 0 0 -1
    outer loop
      vertex 13.8613 20.1191 -2.5
      vertex 15.918 23.498 -2.5
      vertex 14.6494 19.9648 -2.5
    endloop
  endfacet
  facet normal 0 0 -1
    outer loop
      vertex 18.7988 22.3135 -2.5
      vertex 15.0605 19.6953 -2.5
      vertex 14.9795 19.7832 -2.5
    endloop
  endfacet
  facet normal 0 0 -1
    outer loop
      vertex 18.7988 22.3135 -2.5
      vertex 15.1533 19.6025 -2.5
      vertex 15.0605 19.6953 -2.5
    endloop
  endfacet
  facet normal 0 0 -1
    outer loop
      vertex 18.8682 19.7725 -2.5
      vertex 15.3281 19.2168 -2.5
      vertex 15.1533 19.6025 -2.5
    endloop
  endfacet
  facet normal 0 0 -1
    outer loop
      vertex 18.8682 19.7725 -2.5
      vertex 15.4805 18.0938 -2.5
      vertex 15.3281 19.2168 -2.5
    endloop
  endfacet
  facet normal 0 -0 -1
    outer loop
      vertex 18.8682 19.7725 -2.5
      vertex 18.9121 16.2168 -2.5
      vertex 15.4805 18.0938 -2.5
    endloop
  endfacet
  facet normal 0 0 -1
    outer loop
      vertex 15.4805 18.0938 -2.5
      vertex 18.9121 16.2168 -2.5
      vertex 15.5488 15.7871 -2.5
    endloop
  endfacet
  facet normal 0 0 -1
    outer loop
      vertex 15.5645 12.7646 -2.5
      vertex 18.9297 12.1436 -2.5
      vertex 15.5645 10.7139 -2.5
    endloop
  endfacet
  facet normal 0 0 -1
    outer loop
      vertex 15.5645 10.7139 -2.5
      vertex 18.9297 12.1436 -2.5
      vertex 18.9219 8.05371 -2.5
    endloop
  endfacet
  facet normal 0 0 -1
    outer loop
      vertex 15.5508 7.58203 -2.5
      vertex 15.5645 10.7139 -2.5
      vertex 18.9219 8.05371 -2.5
    endloop
  endfacet
  facet normal 0 0 -1
    outer loop
      vertex 15.4834 5.30859 -2.5
      vertex 18.9219 8.05371 -2.5
      vertex 18.8877 4.44141 -2.5
    endloop
  endfacet
  facet normal -0 0 -1
    outer loop
      vertex 17.1611 0.22168 -2.5
      vertex 16.0146 0.181641 -2.5
      vertex 15.1006 3.97656 -2.5
    endloop
  endfacet
  facet normal 0 -0 -1
    outer loop
      vertex 15.1006 3.97656 -2.5
      vertex 16.0146 0.181641 -2.5
      vertex 15.0039 3.90527 -2.5
    endloop
  endfacet
  facet normal 0 -0 -1
    outer loop
      vertex 15.0039 3.90527 -2.5
      vertex 16.0146 0.181641 -2.5
      vertex 14.9033 3.82422 -2.5
    endloop
  endfacet
  facet normal 0 -0 -1
    outer loop
      vertex 14.9033 3.82422 -2.5
      vertex 16.0146 0.181641 -2.5
      vertex 14.5107 3.6875 -2.5
    endloop
  endfacet
  facet normal 0 -0 -1
    outer loop
      vertex 14.5107 3.6875 -2.5
      vertex 16.0146 0.181641 -2.5
      vertex 14.3994 0.160156 -2.5
    endloop
  endfacet
  facet normal 0 0 -1
    outer loop
      vertex 11.8525 3.53613 -2.5
      vertex 13.542 3.56934 -2.5
      vertex 12.2305 0.150391 -2.5
    endloop
  endfacet
  facet normal 0 -0 -1
    outer loop
      vertex 13.542 3.56934 -2.5
      vertex 14.3994 0.160156 -2.5
      vertex 12.2305 0.150391 -2.5
    endloop
  endfacet
  facet normal 0 0 1
    outer loop
      vertex 18.7344 0.651367 2.5
      vertex 18.623 0.493164 2.5
      vertex 18.7168 0.609375 2.5
    endloop
  endfacet
  facet normal 0 0 1
    outer loop
      vertex 18.8047 0.820312 2.5
      vertex 18.3789 0.37207 2.5
      vertex 18.7344 0.651367 2.5
    endloop
  endfacet
  facet normal 0 0 1
    outer loop
      vertex 18.7344 0.651367 2.5
      vertex 18.3789 0.37207 2.5
      vertex 18.623 0.493164 2.5
    endloop
  endfacet
  facet normal 0 0 1
    outer loop
      vertex 17.9199 0.28418 2.5
      vertex 18.3789 0.37207 2.5
      vertex 18.8047 0.820312 2.5
    endloop
  endfacet
  facet normal 0 0 1
    outer loop
      vertex 17.9199 0.28418 2.5
      vertex 18.8047 0.820312 2.5
      vertex 18.8252 1.80957 2.5
    endloop
  endfacet
  facet normal 0 -0 1
    outer loop
      vertex 17.9199 0.28418 2.5
      vertex 18.8252 1.80957 2.5
      vertex 17.1611 0.22168 2.5
    endloop
  endfacet
  facet normal 0 0 1
    outer loop
      vertex 18.8252 1.80957 2.5
      vertex 15.3154 4.29688 2.5
      vertex 15.1006 3.97656 2.5
    endloop
  endfacet
  facet normal 0 0 1
    outer loop
      vertex 18.8877 4.44141 2.5
      vertex 15.4834 5.30859 2.5
      vertex 15.3154 4.29688 2.5
    endloop
  endfacet
  facet normal 0 0 1
    outer loop
      vertex 18.8877 4.44141 2.5
      vertex 15.3154 4.29688 2.5
      vertex 18.8252 1.80957 2.5
    endloop
  endfacet
  facet normal 0 0 1
    outer loop
      vertex 18.8252 1.80957 2.5
      vertex 15.1006 3.97656 2.5
      vertex 17.1611 0.22168 2.5
    endloop
  endfacet
  facet normal 0 0 1
    outer loop
      vertex 15.4834 5.30859 2.5
      vertex 18.9219 8.05371 2.5
      vertex 15.5508 7.58203 2.5
    endloop
  endfacet
  facet normal 0 -0 1
    outer loop
      vertex 14.3994 0.160156 2.5
      vertex 14.5107 3.6875 2.5
      vertex 13.542 3.56934 2.5
    endloop
  endfacet
  facet normal 0 0 1
    outer loop
      vertex 3.45703 8.67383 2.5
      vertex 3.42188 11.376 2.5
      vertex -0.000976562 11.5938 2.5
    endloop
  endfacet
  facet normal 0 0 1
    outer loop
      vertex 6.76465 23.6338 2.5
      vertex 9.18066 20.2363 2.5
      vertex 9.96875 23.6074 2.5
    endloop
  endfacet
  facet normal -0 0 1
    outer loop
      vertex 14.6494 19.9648 2.5
      vertex 14.9795 19.7832 2.5
      vertex 15.918 23.498 2.5
    endloop
  endfacet
  facet normal 0 0 1
    outer loop
      vertex 18.7988 22.3135 2.5
      vertex 18.7754 23.2705 2.5
      vertex 17.8984 23.4238 2.5
    endloop
  endfacet
  facet normal 0 0 1
    outer loop
      vertex 18.7754 23.2705 2.5
      vertex 18.707 23.3408 2.5
      vertex 17.8984 23.4238 2.5
    endloop
  endfacet
  facet normal 0 0 1
    outer loop
      vertex 18.707 23.3408 2.5
      vertex 18.6436 23.3975 2.5
      vertex 17.8984 23.4238 2.5
    endloop
  endfacet
  facet normal 0 0 1
    outer loop
      vertex 18.7988 22.3135 2.5
      vertex 17.8984 23.4238 2.5
      vertex 15.918 23.498 2.5
    endloop
  endfacet
  facet normal -0 0 1
    outer loop
      vertex 10.6113 20.2236 2.5
      vertex 12.4092 20.1963 2.5
      vertex 13.1475 23.5615 2.5
    endloop
  endfacet
  facet normal -0 -0 1
    outer loop
      vertex 10.0127 20.2285 2.5
      vertex 10.6113 20.2236 2.5
      vertex 9.96875 23.6074 2.5
    endloop
  endfacet
  facet normal -0 0 1
    outer loop
      vertex 6.68652 20.2383 2.5
      vertex 9.18066 20.2363 2.5
      vertex 6.76465 23.6338 2.5
    endloop
  endfacet
  facet normal -0 0 1
    outer loop
      vertex 0.00976562 15.5508 2.5
      vertex 3.41602 14.1045 2.5
      vertex 3.44531 16.542 2.5
    endloop
  endfacet
  facet normal -0 0 1
    outer loop
      vertex 1.80371 23.6035 2.5
      vertex 3.97656 19.834 2.5
      vertex 3.91504 23.6338 2.5
    endloop
  endfacet
  facet normal 0 -0 1
    outer loop
      vertex 3.51172 18.3701 2.5
      vertex 3.54004 19.0684 2.5
      vertex 0.0410156 19.0498 2.5
    endloop
  endfacet
  facet normal 0 0 1
    outer loop
      vertex 0.167969 22.7803 2.5
      vertex 1.01562 23.5938 2.5
      vertex 0.416016 23.2549 2.5
    endloop
  endfacet
  facet normal 0 0 1
    outer loop
      vertex 1.01562 23.5938 2.5
      vertex 0.813477 23.5371 2.5
      vertex 0.416016 23.2549 2.5
    endloop
  endfacet
  facet normal 0 0 1
    outer loop
      vertex 0.813477 23.5371 2.5
      vertex 0.743164 23.5166 2.5
      vertex 0.416016 23.2549 2.5
    endloop
  endfacet
  facet normal 0 0 1
    outer loop
      vertex 0.167969 22.7803 2.5
      vertex 0.416016 23.2549 2.5
      vertex 0.188477 22.8643 2.5
    endloop
  endfacet
  facet normal 0 0 1
    outer loop
      vertex 0.111328 22.5781 2.5
      vertex 1.01562 23.5938 2.5
      vertex 0.167969 22.7803 2.5
    endloop
  endfacet
  facet normal 0 0 1
    outer loop
      vertex 1.80371 23.6035 2.5
      vertex 1.01562 23.5938 2.5
      vertex 0.111328 22.5781 2.5
    endloop
  endfacet
  facet normal 0 0 1
    outer loop
      vertex 1.80371 23.6035 2.5
      vertex 0.111328 22.5781 2.5
      vertex 0.09375 21.6172 2.5
    endloop
  endfacet
  facet normal 0 -0 1
    outer loop
      vertex 3.54004 19.0684 2.5
      vertex 3.61719 19.2744 2.5
      vertex 0.0410156 19.0498 2.5
    endloop
  endfacet
  facet normal 0 0 1
    outer loop
      vertex 3.44531 16.542 2.5
      vertex 0.0410156 19.0498 2.5
      vertex 0.00976562 15.5508 2.5
    endloop
  endfacet
  facet normal 0 0 1
    outer loop
      vertex 3.42188 11.376 2.5
      vertex 3.41602 14.1045 2.5
      vertex -0.000976562 11.5938 2.5
    endloop
  endfacet
  facet normal 0 0 1
    outer loop
      vertex 3.45703 8.67383 2.5
      vertex -0.000976562 11.5938 2.5
      vertex 0.00976562 7.64648 2.5
    endloop
  endfacet
  facet normal 0 0 1
    outer loop
      vertex 11.8525 3.53613 2.5
      vertex 10.124 0.147461 2.5
      vertex 12.2305 0.150391 2.5
    endloop
  endfacet
  facet normal 0 0 1
    outer loop
      vertex 10.124 0.147461 2.5
      vertex 8.6875 3.5791 2.5
      vertex 8.21973 0.147461 2.5
    endloop
  endfacet
  facet normal 0 0 1
    outer loop
      vertex 8.6875 3.5791 2.5
      vertex 7.15625 3.62598 2.5
      vertex 8.21973 0.147461 2.5
    endloop
  endfacet
  facet normal 0 0 1
    outer loop
      vertex 4.24121 3.79004 2.5
      vertex 3.76465 3.84863 2.5
      vertex 4.6123 0.163086 2.5
    endloop
  endfacet
  facet normal 0 0 1
    outer loop
      vertex 0.111328 0.736328 2.5
      vertex 0.167969 0.595703 2.5
      vertex 0.543945 0.359375 2.5
    endloop
  endfacet
  facet normal 0 0 1
    outer loop
      vertex 0.167969 0.595703 2.5
      vertex 0.197266 0.513672 2.5
      vertex 0.543945 0.359375 2.5
    endloop
  endfacet
  facet normal -0 -0 1
    outer loop
      vertex 0.111328 0.736328 2.5
      vertex 0.543945 0.359375 2.5
      vertex 0.09375 1.67676 2.5
    endloop
  endfacet
  facet normal -0 -0 1
    outer loop
      vertex 0.543945 0.359375 2.5
      vertex 1.83984 0.224609 2.5
      vertex 0.09375 1.67676 2.5
    endloop
  endfacet
  facet normal 0 0 1
    outer loop
      vertex 4.24121 3.79004 2.5
      vertex 4.6123 0.163086 2.5
      vertex 5.44434 3.70312 2.5
    endloop
  endfacet
  facet normal 0 0 1
    outer loop
      vertex 9.86133 3.55664 2.5
      vertex 8.6875 3.5791 2.5
      vertex 10.124 0.147461 2.5
    endloop
  endfacet
  facet normal 0 0 1
    outer loop
      vertex 9.86133 3.55664 2.5
      vertex 10.124 0.147461 2.5
      vertex 11.8525 3.53613 2.5
    endloop
  endfacet
  facet normal 0 0 1
    outer loop
      vertex 18.9297 12.1436 2.5
      vertex 18.9121 16.2168 2.5
      vertex 15.5645 12.7646 2.5
    endloop
  endfacet
  facet normal 0 0 1
    outer loop
      vertex 3.52246 6.31152 2.5
      vertex 0.00976562 7.64648 2.5
      vertex 0.0410156 4.18555 2.5
    endloop
  endfacet
  facet normal 0 -0 1
    outer loop
      vertex 1.83984 0.224609 2.5
      vertex 3.73047 3.87598 2.5
      vertex 0.09375 1.67676 2.5
    endloop
  endfacet
  facet normal 0 0 1
    outer loop
      vertex 7.15625 3.62598 2.5
      vertex 4.6123 0.163086 2.5
      vertex 8.21973 0.147461 2.5
    endloop
  endfacet
  facet normal 0 0 1
    outer loop
      vertex 5.44434 3.70312 2.5
      vertex 4.6123 0.163086 2.5
      vertex 7.15625 3.62598 2.5
    endloop
  endfacet
  facet normal 0 0 1
    outer loop
      vertex 4.6123 0.163086 2.5
      vertex 3.76465 3.84863 2.5
      vertex 1.83984 0.224609 2.5
    endloop
  endfacet
  facet normal 0 0 1
    outer loop
      vertex 3.76465 3.84863 2.5
      vertex 3.73047 3.87598 2.5
      vertex 1.83984 0.224609 2.5
    endloop
  endfacet
  facet normal 0 0 1
    outer loop
      vertex 3.73047 3.87598 2.5
      vertex 3.64648 3.96875 2.5
      vertex 0.09375 1.67676 2.5
    endloop
  endfacet
  facet normal 0 0 1
    outer loop
      vertex 3.64648 3.96875 2.5
      vertex 0.0410156 4.18555 2.5
      vertex 0.09375 1.67676 2.5
    endloop
  endfacet
  facet normal 0 0 1
    outer loop
      vertex 3.61426 4.60645 2.5
      vertex 0.0410156 4.18555 2.5
      vertex 3.64648 3.96875 2.5
    endloop
  endfacet
  facet normal 0 0 1
    outer loop
      vertex 3.52246 6.31152 2.5
      vertex 0.0410156 4.18555 2.5
      vertex 3.61426 4.60645 2.5
    endloop
  endfacet
  facet normal 0 0 1
    outer loop
      vertex 3.45703 8.67383 2.5
      vertex 0.00976562 7.64648 2.5
      vertex 3.52246 6.31152 2.5
    endloop
  endfacet
  facet normal 0 0 1
    outer loop
      vertex 18.7988 22.3135 2.5
      vertex 15.1533 19.6025 2.5
      vertex 18.8682 19.7725 2.5
    endloop
  endfacet
  facet normal 0 -0 1
    outer loop
      vertex 3.97656 19.834 2.5
      vertex 4.83691 20.1309 2.5
      vertex 3.91504 23.6338 2.5
    endloop
  endfacet
  facet normal 0 0 1
    outer loop
      vertex -0.000976562 11.5938 2.5
      vertex 3.41602 14.1045 2.5
      vertex 0.00976562 15.5508 2.5
    endloop
  endfacet
  facet normal -0 0 1
    outer loop
      vertex 15.5488 15.7871 2.5
      vertex 15.5645 12.7646 2.5
      vertex 18.9121 16.2168 2.5
    endloop
  endfacet
  facet normal 0 0 1
    outer loop
      vertex 3.51172 18.3701 2.5
      vertex 0.0410156 19.0498 2.5
      vertex 3.44531 16.542 2.5
    endloop
  endfacet
  facet normal 0 0 1
    outer loop
      vertex 0.0410156 19.0498 2.5
      vertex 3.61719 19.2744 2.5
      vertex 3.6748 19.4277 2.5
    endloop
  endfacet
  facet normal 0 0 1
    outer loop
      vertex 0.0410156 19.0498 2.5
      vertex 3.6748 19.4277 2.5
      vertex 0.09375 21.6172 2.5
    endloop
  endfacet
  facet normal 0 0 1
    outer loop
      vertex 3.97656 19.834 2.5
      vertex 0.09375 21.6172 2.5
      vertex 3.6748 19.4277 2.5
    endloop
  endfacet
  facet normal 0 0 1
    outer loop
      vertex 1.80371 23.6035 2.5
      vertex 0.09375 21.6172 2.5
      vertex 3.97656 19.834 2.5
    endloop
  endfacet
  facet normal 0 -0 1
    outer loop
      vertex 4.83691 20.1309 2.5
      vertex 6.76465 23.6338 2.5
      vertex 3.91504 23.6338 2.5
    endloop
  endfacet
  facet normal 0 -0 1
    outer loop
      vertex 6.68652 20.2383 2.5
      vertex 6.76465 23.6338 2.5
      vertex 4.83691 20.1309 2.5
    endloop
  endfacet
  facet normal -0 0 1
    outer loop
      vertex 9.18066 20.2363 2.5
      vertex 10.0127 20.2285 2.5
      vertex 9.96875 23.6074 2.5
    endloop
  endfacet
  facet normal 0 0 1
    outer loop
      vertex 15.918 23.498 2.5
      vertex 14.9795 19.7832 2.5
      vertex 18.7988 22.3135 2.5
    endloop
  endfacet
  facet normal 0 -0 1
    outer loop
      vertex 10.6113 20.2236 2.5
      vertex 13.1475 23.5615 2.5
      vertex 9.96875 23.6074 2.5
    endloop
  endfacet
  facet normal -0 0 1
    outer loop
      vertex 12.4092 20.1963 2.5
      vertex 13.8613 20.1191 2.5
      vertex 13.1475 23.5615 2.5
    endloop
  endfacet
  facet normal 0 -0 1
    outer loop
      vertex 13.8613 20.1191 2.5
      vertex 15.918 23.498 2.5
      vertex 13.1475 23.5615 2.5
    endloop
  endfacet
  facet normal 0 -0 1
    outer loop
      vertex 14.6494 19.9648 2.5
      vertex 15.918 23.498 2.5
      vertex 13.8613 20.1191 2.5
    endloop
  endfacet
  facet normal -0 0 1
    outer loop
      vertex 14.9795 19.7832 2.5
      vertex 15.0605 19.6953 2.5
      vertex 18.7988 22.3135 2.5
    endloop
  endfacet
  facet normal -0 0 1
    outer loop
      vertex 15.0605 19.6953 2.5
      vertex 15.1533 19.6025 2.5
      vertex 18.7988 22.3135 2.5
    endloop
  endfacet
  facet normal -0 0 1
    outer loop
      vertex 15.1533 19.6025 2.5
      vertex 15.3281 19.2168 2.5
      vertex 18.8682 19.7725 2.5
    endloop
  endfacet
  facet normal -0 0 1
    outer loop
      vertex 15.3281 19.2168 2.5
      vertex 15.4805 18.0938 2.5
      vertex 18.8682 19.7725 2.5
    endloop
  endfacet
  facet normal -0 0 1
    outer loop
      vertex 15.4805 18.0938 2.5
      vertex 18.9121 16.2168 2.5
      vertex 18.8682 19.7725 2.5
    endloop
  endfacet
  facet normal 0 -0 1
    outer loop
      vertex 15.5488 15.7871 2.5
      vertex 18.9121 16.2168 2.5
      vertex 15.4805 18.0938 2.5
    endloop
  endfacet
  facet normal 0 0 1
    outer loop
      vertex 15.5645 10.7139 2.5
      vertex 18.9297 12.1436 2.5
      vertex 15.5645 12.7646 2.5
    endloop
  endfacet
  facet normal 0 -0 1
    outer loop
      vertex 18.9219 8.05371 2.5
      vertex 18.9297 12.1436 2.5
      vertex 15.5645 10.7139 2.5
    endloop
  endfacet
  facet normal 0 0 1
    outer loop
      vertex 18.9219 8.05371 2.5
      vertex 15.5645 10.7139 2.5
      vertex 15.5508 7.58203 2.5
    endloop
  endfacet
  facet normal 0 -0 1
    outer loop
      vertex 18.8877 4.44141 2.5
      vertex 18.9219 8.05371 2.5
      vertex 15.4834 5.30859 2.5
    endloop
  endfacet
  facet normal 0 0 1
    outer loop
      vertex 15.1006 3.97656 2.5
      vertex 16.0146 0.181641 2.5
      vertex 17.1611 0.22168 2.5
    endloop
  endfacet
  facet normal -0 0 1
    outer loop
      vertex 15.0039 3.90527 2.5
      vertex 16.0146 0.181641 2.5
      vertex 15.1006 3.97656 2.5
    endloop
  endfacet
  facet normal -0 0 1
    outer loop
      vertex 14.9033 3.82422 2.5
      vertex 16.0146 0.181641 2.5
      vertex 15.0039 3.90527 2.5
    endloop
  endfacet
  facet normal -0 0 1
    outer loop
      vertex 14.5107 3.6875 2.5
      vertex 16.0146 0.181641 2.5
      vertex 14.9033 3.82422 2.5
    endloop
  endfacet
  facet normal 0 0 1
    outer loop
      vertex 14.3994 0.160156 2.5
      vertex 16.0146 0.181641 2.5
      vertex 14.5107 3.6875 2.5
    endloop
  endfacet
  facet normal 0 -0 1
    outer loop
      vertex 12.2305 0.150391 2.5
      vertex 13.542 3.56934 2.5
      vertex 11.8525 3.53613 2.5
    endloop
  endfacet
  facet normal 0 0 1
    outer loop
      vertex 12.2305 0.150391 2.5
      vertex 14.3994 0.160156 2.5
      vertex 13.542 3.56934 2.5
    endloop
  endfacet
  facet normal 0.00450224 -0.99999 0
    outer loop
      vertex 14.3994 0.160156 -2.5
      vertex 12.2305 0.150391 2.5
      vertex 12.2305 0.150391 -2.5
    endloop
  endfacet
  facet normal 0.00450224 -0.99999 0
    outer loop
      vertex 14.3994 0.160156 -2.5
      vertex 14.3994 0.160156 2.5
      vertex 12.2305 0.150391 2.5
    endloop
  endfacet
  facet normal 0.0133006 -0.999912 0
    outer loop
      vertex 16.0146 0.181641 -2.5
      vertex 14.3994 0.160156 2.5
      vertex 14.3994 0.160156 -2.5
    endloop
  endfacet
  facet normal 0.0133006 -0.999912 0
    outer loop
      vertex 16.0146 0.181641 -2.5
      vertex 16.0146 0.181641 2.5
      vertex 14.3994 0.160156 2.5
    endloop
  endfacet
  facet normal 0.0349015 -0.999391 0
    outer loop
      vertex 17.1611 0.22168 -2.5
      vertex 16.0146 0.181641 2.5
      vertex 16.0146 0.181641 -2.5
    endloop
  endfacet
  facet normal 0.0349015 -0.999391 0
    outer loop
      vertex 17.1611 0.22168 -2.5
      vertex 17.1611 0.22168 2.5
      vertex 16.0146 0.181641 2.5
    endloop
  endfacet
  facet normal 0.0820889 -0.996625 0
    outer loop
      vertex 17.9199 0.28418 -2.5
      vertex 17.1611 0.22168 2.5
      vertex 17.1611 0.22168 -2.5
    endloop
  endfacet
  facet normal 0.0820889 -0.996625 0
    outer loop
      vertex 17.9199 0.28418 -2.5
      vertex 17.9199 0.28418 2.5
      vertex 17.1611 0.22168 2.5
    endloop
  endfacet
  facet normal 0.188065 -0.982157 0
    outer loop
      vertex 18.3789 0.37207 -2.5
      vertex 17.9199 0.28418 2.5
      vertex 17.9199 0.28418 -2.5
    endloop
  endfacet
  facet normal 0.188065 -0.982157 0
    outer loop
      vertex 18.3789 0.37207 -2.5
      vertex 18.3789 0.37207 2.5
      vertex 17.9199 0.28418 2.5
    endloop
  endfacet
  facet normal 0.444405 -0.895826 0
    outer loop
      vertex 18.623 0.493164 -2.5
      vertex 18.3789 0.37207 2.5
      vertex 18.3789 0.37207 -2.5
    endloop
  endfacet
  facet normal 0.444405 -0.895826 0
    outer loop
      vertex 18.623 0.493164 -2.5
      vertex 18.623 0.493164 2.5
      vertex 18.3789 0.37207 2.5
    endloop
  endfacet
  facet normal 0.778146 -0.628083 0
    outer loop
      vertex 18.7168 0.609375 -2.5
      vertex 18.623 0.493164 2.5
      vertex 18.623 0.493164 -2.5
    endloop
  endfacet
  facet normal 0.778146 -0.628083 0
    outer loop
      vertex 18.7168 0.609375 -2.5
      vertex 18.7168 0.609375 2.5
      vertex 18.623 0.493164 2.5
    endloop
  endfacet
  facet normal 0.922269 -0.386548 0
    outer loop
      vertex 18.7344 0.651367 -2.5
      vertex 18.7168 0.609375 2.5
      vertex 18.7168 0.609375 -2.5
    endloop
  endfacet
  facet normal 0.922269 -0.386548 0
    outer loop
      vertex 18.7344 0.651367 -2.5
      vertex 18.7344 0.651367 2.5
      vertex 18.7168 0.609375 2.5
    endloop
  endfacet
  facet normal 0.923259 -0.384179 0
    outer loop
      vertex 18.8047 0.820312 -2.5
      vertex 18.7344 0.651367 2.5
      vertex 18.7344 0.651367 -2.5
    endloop
  endfacet
  facet normal 0.923259 -0.384179 0
    outer loop
      vertex 18.8047 0.820312 -2.5
      vertex 18.8047 0.820312 2.5
      vertex 18.7344 0.651367 2.5
    endloop
  endfacet
  facet normal 0.999785 -0.0207182 0
    outer loop
      vertex 18.8252 1.80957 -2.5
      vertex 18.8047 0.820312 2.5
      vertex 18.8047 0.820312 -2.5
    endloop
  endfacet
  facet normal 0.999785 -0.0207182 0
    outer loop
      vertex 18.8252 1.80957 -2.5
      vertex 18.8252 1.80957 2.5
      vertex 18.8047 0.820312 2.5
    endloop
  endfacet
  facet normal 0.999718 -0.023741 0
    outer loop
      vertex 18.8877 4.44141 -2.5
      vertex 18.8252 1.80957 2.5
      vertex 18.8252 1.80957 -2.5
    endloop
  endfacet
  facet normal 0.999718 -0.023741 0
    outer loop
      vertex 18.8877 4.44141 -2.5
      vertex 18.8877 4.44141 2.5
      vertex 18.8252 1.80957 2.5
    endloop
  endfacet
  facet normal 0.999955 -0.00946723 0
    outer loop
      vertex 18.9219 8.05371 -2.5
      vertex 18.8877 4.44141 2.5
      vertex 18.8877 4.44141 -2.5
    endloop
  endfacet
  facet normal 0.999955 -0.00946723 0
    outer loop
      vertex 18.9219 8.05371 -2.5
      vertex 18.9219 8.05371 2.5
      vertex 18.8877 4.44141 2.5
    endloop
  endfacet
  facet normal 0.999998 -0.00190714 0
    outer loop
      vertex 18.9297 12.1436 -2.5
      vertex 18.9219 8.05371 2.5
      vertex 18.9219 8.05371 -2.5
    endloop
  endfacet
  facet normal 0.999998 -0.00190714 0
    outer loop
      vertex 18.9297 12.1436 -2.5
      vertex 18.9297 12.1436 2.5
      vertex 18.9219 8.05371 2.5
    endloop
  endfacet
  facet normal 0.999991 0.00432089 0
    outer loop
      vertex 18.9121 16.2168 -2.5
      vertex 18.9297 12.1436 2.5
      vertex 18.9297 12.1436 -2.5
    endloop
  endfacet
  facet normal 0.999991 0.00432089 -0
    outer loop
      vertex 18.9121 16.2168 -2.5
      vertex 18.9121 16.2168 2.5
      vertex 18.9297 12.1436 2.5
    endloop
  endfacet
  facet normal 0.999924 0.0123454 0
    outer loop
      vertex 18.8682 19.7725 -2.5
      vertex 18.9121 16.2168 2.5
      vertex 18.9121 16.2168 -2.5
    endloop
  endfacet
  facet normal 0.999924 0.0123454 -0
    outer loop
      vertex 18.8682 19.7725 -2.5
      vertex 18.8682 19.7725 2.5
      vertex 18.9121 16.2168 2.5
    endloop
  endfacet
  facet normal 0.999627 0.0273019 0
    outer loop
      vertex 18.7988 22.3135 -2.5
      vertex 18.8682 19.7725 2.5
      vertex 18.8682 19.7725 -2.5
    endloop
  endfacet
  facet normal 0.999627 0.0273019 -0
    outer loop
      vertex 18.7988 22.3135 -2.5
      vertex 18.7988 22.3135 2.5
      vertex 18.8682 19.7725 2.5
    endloop
  endfacet
  facet normal 0.999701 0.0244441 0
    outer loop
      vertex 18.7754 23.2705 -2.5
      vertex 18.7988 22.3135 2.5
      vertex 18.7988 22.3135 -2.5
    endloop
  endfacet
  facet normal 0.999701 0.0244441 -0
    outer loop
      vertex 18.7754 23.2705 -2.5
      vertex 18.7754 23.2705 2.5
      vertex 18.7988 22.3135 2.5
    endloop
  endfacet
  facet normal 0.716726 0.697355 0
    outer loop
      vertex 18.707 23.3408 -2.5
      vertex 18.7754 23.2705 2.5
      vertex 18.7754 23.2705 -2.5
    endloop
  endfacet
  facet normal 0.716726 0.697355 -0
    outer loop
      vertex 18.707 23.3408 -2.5
      vertex 18.707 23.3408 2.5
      vertex 18.7754 23.2705 2.5
    endloop
  endfacet
  facet normal 0.666623 0.745395 0
    outer loop
      vertex 18.6436 23.3975 -2.5
      vertex 18.707 23.3408 2.5
      vertex 18.707 23.3408 -2.5
    endloop
  endfacet
  facet normal 0.666623 0.745395 -0
    outer loop
      vertex 18.6436 23.3975 -2.5
      vertex 18.6436 23.3975 2.5
      vertex 18.707 23.3408 2.5
    endloop
  endfacet
  facet normal 0.0352706 0.999378 0
    outer loop
      vertex 17.8984 23.4238 -2.5
      vertex 18.6436 23.3975 2.5
      vertex 18.6436 23.3975 -2.5
    endloop
  endfacet
  facet normal 0.0352706 0.999378 -0
    outer loop
      vertex 17.8984 23.4238 -2.5
      vertex 17.8984 23.4238 2.5
      vertex 18.6436 23.3975 2.5
    endloop
  endfacet
  facet normal 0.0374409 0.999299 0
    outer loop
      vertex 15.918 23.498 -2.5
      vertex 17.8984 23.4238 2.5
      vertex 17.8984 23.4238 -2.5
    endloop
  endfacet
  facet normal 0.0374409 0.999299 -0
    outer loop
      vertex 15.918 23.498 -2.5
      vertex 15.918 23.498 2.5
      vertex 17.8984 23.4238 2.5
    endloop
  endfacet
  facet normal 0.022914 0.999737 0
    outer loop
      vertex 13.1475 23.5615 -2.5
      vertex 15.918 23.498 2.5
      vertex 15.918 23.498 -2.5
    endloop
  endfacet
  facet normal 0.022914 0.999737 -0
    outer loop
      vertex 13.1475 23.5615 -2.5
      vertex 13.1475 23.5615 2.5
      vertex 15.918 23.498 2.5
    endloop
  endfacet
  facet normal 0.0144381 0.999896 0
    outer loop
      vertex 9.96875 23.6074 -2.5
      vertex 13.1475 23.5615 2.5
      vertex 13.1475 23.5615 -2.5
    endloop
  endfacet
  facet normal 0.0144381 0.999896 -0
    outer loop
      vertex 9.96875 23.6074 -2.5
      vertex 9.96875 23.6074 2.5
      vertex 13.1475 23.5615 2.5
    endloop
  endfacet
  facet normal 0.00823916 0.999966 0
    outer loop
      vertex 6.76465 23.6338 -2.5
      vertex 9.96875 23.6074 2.5
      vertex 9.96875 23.6074 -2.5
    endloop
  endfacet
  facet normal 0.00823916 0.999966 -0
    outer loop
      vertex 6.76465 23.6338 -2.5
      vertex 6.76465 23.6338 2.5
      vertex 9.96875 23.6074 2.5
    endloop
  endfacet
  facet normal 0 1 0
    outer loop
      vertex 3.91504 23.6338 -2.5
      vertex 6.76465 23.6338 2.5
      vertex 6.76465 23.6338 -2.5
    endloop
  endfacet
  facet normal 0 1 0
    outer loop
      vertex 3.91504 23.6338 -2.5
      vertex 3.91504 23.6338 2.5
      vertex 6.76465 23.6338 2.5
    endloop
  endfacet
  facet normal -0.0143497 0.999897 0
    outer loop
      vertex 1.80371 23.6035 -2.5
      vertex 3.91504 23.6338 2.5
      vertex 3.91504 23.6338 -2.5
    endloop
  endfacet
  facet normal -0.0143497 0.999897 0
    outer loop
      vertex 1.80371 23.6035 -2.5
      vertex 1.80371 23.6035 2.5
      vertex 3.91504 23.6338 2.5
    endloop
  endfacet
  facet normal -0.0123073 0.999924 0
    outer loop
      vertex 1.01562 23.5938 -2.5
      vertex 1.80371 23.6035 2.5
      vertex 1.80371 23.6035 -2.5
    endloop
  endfacet
  facet normal -0.0123073 0.999924 0
    outer loop
      vertex 1.01562 23.5938 -2.5
      vertex 1.01562 23.5938 2.5
      vertex 1.80371 23.6035 2.5
    endloop
  endfacet
  facet normal -0.270071 0.96284 0
    outer loop
      vertex 0.813477 23.5371 -2.5
      vertex 1.01562 23.5938 2.5
      vertex 1.01562 23.5938 -2.5
    endloop
  endfacet
  facet normal -0.270071 0.96284 0
    outer loop
      vertex 0.813477 23.5371 -2.5
      vertex 0.813477 23.5371 2.5
      vertex 1.01562 23.5938 2.5
    endloop
  endfacet
  facet normal -0.2799 0.960029 0
    outer loop
      vertex 0.743164 23.5166 -2.5
      vertex 0.813477 23.5371 2.5
      vertex 0.813477 23.5371 -2.5
    endloop
  endfacet
  facet normal -0.2799 0.960029 0
    outer loop
      vertex 0.743164 23.5166 -2.5
      vertex 0.743164 23.5166 2.5
      vertex 0.813477 23.5371 2.5
    endloop
  endfacet
  facet normal -0.624668 0.78089 0
    outer loop
      vertex 0.416016 23.2549 -2.5
      vertex 0.743164 23.5166 2.5
      vertex 0.743164 23.5166 -2.5
    endloop
  endfacet
  facet normal -0.624668 0.78089 0
    outer loop
      vertex 0.416016 23.2549 -2.5
      vertex 0.416016 23.2549 2.5
      vertex 0.743164 23.5166 2.5
    endloop
  endfacet
  facet normal -0.864078 0.503358 0
    outer loop
      vertex 0.188477 22.8643 -2.5
      vertex 0.416016 23.2549 2.5
      vertex 0.416016 23.2549 -2.5
    endloop
  endfacet
  facet normal -0.864078 0.503358 0
    outer loop
      vertex 0.188477 22.8643 -2.5
      vertex 0.188477 22.8643 2.5
      vertex 0.416016 23.2549 2.5
    endloop
  endfacet
  facet normal -0.971467 0.237177 0
    outer loop
      vertex 0.167969 22.7803 -2.5
      vertex 0.188477 22.8643 2.5
      vertex 0.188477 22.8643 -2.5
    endloop
  endfacet
  facet normal -0.971467 0.237177 0
    outer loop
      vertex 0.167969 22.7803 -2.5
      vertex 0.167969 22.7803 2.5
      vertex 0.188477 22.8643 2.5
    endloop
  endfacet
  facet normal -0.962933 0.26974 0
    outer loop
      vertex 0.111328 22.5781 -2.5
      vertex 0.167969 22.7803 2.5
      vertex 0.167969 22.7803 -2.5
    endloop
  endfacet
  facet normal -0.962933 0.26974 0
    outer loop
      vertex 0.111328 22.5781 -2.5
      vertex 0.111328 22.5781 2.5
      vertex 0.167969 22.7803 2.5
    endloop
  endfacet
  facet normal -0.999833 0.0182902 0
    outer loop
      vertex 0.09375 21.6172 -2.5
      vertex 0.111328 22.5781 2.5
      vertex 0.111328 22.5781 -2.5
    endloop
  endfacet
  facet normal -0.999833 0.0182902 0
    outer loop
      vertex 0.09375 21.6172 -2.5
      vertex 0.09375 21.6172 2.5
      vertex 0.111328 22.5781 2.5
    endloop
  endfacet
  facet normal -0.999789 0.0205357 0
    outer loop
      vertex 0.0410156 19.0498 -2.5
      vertex 0.09375 21.6172 2.5
      vertex 0.09375 21.6172 -2.5
    endloop
  endfacet
  facet normal -0.999789 0.0205357 0
    outer loop
      vertex 0.0410156 19.0498 -2.5
      vertex 0.0410156 19.0498 2.5
      vertex 0.09375 21.6172 2.5
    endloop
  endfacet
  facet normal -0.99996 0.00893076 0
    outer loop
      vertex 0.00976562 15.5508 -2.5
      vertex 0.0410156 19.0498 2.5
      vertex 0.0410156 19.0498 -2.5
    endloop
  endfacet
  facet normal -0.99996 0.00893076 0
    outer loop
      vertex 0.00976562 15.5508 -2.5
      vertex 0.00976562 15.5508 2.5
      vertex 0.0410156 19.0498 2.5
    endloop
  endfacet
  facet normal -0.999996 0.00271472 0
    outer loop
      vertex -0.000976562 11.5938 -2.5
      vertex 0.00976562 15.5508 2.5
      vertex 0.00976562 15.5508 -2.5
    endloop
  endfacet
  facet normal -0.999996 0.00271472 0
    outer loop
      vertex -0.000976562 11.5938 -2.5
      vertex -0.000976562 11.5938 2.5
      vertex 0.00976562 15.5508 2.5
    endloop
  endfacet
  facet normal -0.999996 -0.00272138 0
    outer loop
      vertex 0.00976562 7.64648 -2.5
      vertex -0.000976562 11.5938 2.5
      vertex -0.000976562 11.5938 -2.5
    endloop
  endfacet
  facet normal -0.999996 -0.00272138 0
    outer loop
      vertex 0.00976562 7.64648 -2.5
      vertex 0.00976562 7.64648 2.5
      vertex -0.000976562 11.5938 2.5
    endloop
  endfacet
  facet normal -0.999959 -0.00902899 0
    outer loop
      vertex 0.0410156 4.18555 -2.5
      vertex 0.00976562 7.64648 2.5
      vertex 0.00976562 7.64648 -2.5
    endloop
  endfacet
  facet normal -0.999959 -0.00902899 0
    outer loop
      vertex 0.0410156 4.18555 -2.5
      vertex 0.0410156 4.18555 2.5
      vertex 0.00976562 7.64648 2.5
    endloop
  endfacet
  facet normal -0.999779 -0.0210152 0
    outer loop
      vertex 0.09375 1.67676 -2.5
      vertex 0.0410156 4.18555 2.5
      vertex 0.0410156 4.18555 -2.5
    endloop
  endfacet
  facet normal -0.999779 -0.0210152 0
    outer loop
      vertex 0.09375 1.67676 -2.5
      vertex 0.09375 1.67676 2.5
      vertex 0.0410156 4.18555 2.5
    endloop
  endfacet
  facet normal -0.999825 -0.0186881 0
    outer loop
      vertex 0.111328 0.736328 -2.5
      vertex 0.09375 1.67676 2.5
      vertex 0.09375 1.67676 -2.5
    endloop
  endfacet
  facet normal -0.999825 -0.0186881 0
    outer loop
      vertex 0.111328 0.736328 -2.5
      vertex 0.111328 0.736328 2.5
      vertex 0.09375 1.67676 2.5
    endloop
  endfacet
  facet normal -0.927585 -0.373613 0
    outer loop
      vertex 0.167969 0.595703 -2.5
      vertex 0.111328 0.736328 2.5
      vertex 0.111328 0.736328 -2.5
    endloop
  endfacet
  facet normal -0.927585 -0.373613 0
    outer loop
      vertex 0.167969 0.595703 -2.5
      vertex 0.167969 0.595703 2.5
      vertex 0.111328 0.736328 2.5
    endloop
  endfacet
  facet normal -0.941741 -0.336339 0
    outer loop
      vertex 0.197266 0.513672 -2.5
      vertex 0.167969 0.595703 2.5
      vertex 0.167969 0.595703 -2.5
    endloop
  endfacet
  facet normal -0.941741 -0.336339 0
    outer loop
      vertex 0.197266 0.513672 -2.5
      vertex 0.197266 0.513672 2.5
      vertex 0.167969 0.595703 2.5
    endloop
  endfacet
  facet normal -0.406617 -0.913599 0
    outer loop
      vertex 0.543945 0.359375 -2.5
      vertex 0.197266 0.513672 2.5
      vertex 0.197266 0.513672 -2.5
    endloop
  endfacet
  facet normal -0.406617 -0.913599 0
    outer loop
      vertex 0.543945 0.359375 -2.5
      vertex 0.543945 0.359375 2.5
      vertex 0.197266 0.513672 2.5
    endloop
  endfacet
  facet normal -0.103437 -0.994636 0
    outer loop
      vertex 1.83984 0.224609 -2.5
      vertex 0.543945 0.359375 2.5
      vertex 0.543945 0.359375 -2.5
    endloop
  endfacet
  facet normal -0.103437 -0.994636 0
    outer loop
      vertex 1.83984 0.224609 -2.5
      vertex 1.83984 0.224609 2.5
      vertex 0.543945 0.359375 2.5
    endloop
  endfacet
  facet normal -0.0221853 -0.999754 0
    outer loop
      vertex 4.6123 0.163086 -2.5
      vertex 1.83984 0.224609 2.5
      vertex 1.83984 0.224609 -2.5
    endloop
  endfacet
  facet normal -0.0221853 -0.999754 0
    outer loop
      vertex 4.6123 0.163086 -2.5
      vertex 4.6123 0.163086 2.5
      vertex 1.83984 0.224609 2.5
    endloop
  endfacet
  facet normal -0.0043313 -0.999991 0
    outer loop
      vertex 8.21973 0.147461 -2.5
      vertex 4.6123 0.163086 2.5
      vertex 4.6123 0.163086 -2.5
    endloop
  endfacet
  facet normal -0.0043313 -0.999991 0
    outer loop
      vertex 8.21973 0.147461 -2.5
      vertex 8.21973 0.147461 2.5
      vertex 4.6123 0.163086 2.5
    endloop
  endfacet
  facet normal 0 -1 0
    outer loop
      vertex 10.124 0.147461 -2.5
      vertex 8.21973 0.147461 2.5
      vertex 8.21973 0.147461 -2.5
    endloop
  endfacet
  facet normal 0 -1 0
    outer loop
      vertex 10.124 0.147461 -2.5
      vertex 10.124 0.147461 2.5
      vertex 8.21973 0.147461 2.5
    endloop
  endfacet
  facet normal 0.00139093 -0.999999 0
    outer loop
      vertex 12.2305 0.150391 -2.5
      vertex 10.124 0.147461 2.5
      vertex 10.124 0.147461 -2.5
    endloop
  endfacet
  facet normal 0.00139093 -0.999999 0
    outer loop
      vertex 12.2305 0.150391 -2.5
      vertex 12.2305 0.150391 2.5
      vertex 10.124 0.147461 2.5
    endloop
  endfacet
  facet normal 0.0191304 0.999817 -0
    outer loop
      vertex 8.6875 3.5791 -2.5
      vertex 8.6875 3.5791 2.5
      vertex 9.86133 3.55664 -2.5
    endloop
  endfacet
  facet normal 0.0191304 0.999817 0
    outer loop
      vertex 9.86133 3.55664 2.5
      vertex 9.86133 3.55664 -2.5
      vertex 8.6875 3.5791 2.5
    endloop
  endfacet
  facet normal 0.0306012 0.999532 -0
    outer loop
      vertex 7.15625 3.62598 -2.5
      vertex 7.15625 3.62598 2.5
      vertex 8.6875 3.5791 -2.5
    endloop
  endfacet
  facet normal 0.0306012 0.999532 0
    outer loop
      vertex 8.6875 3.5791 2.5
      vertex 8.6875 3.5791 -2.5
      vertex 7.15625 3.62598 2.5
    endloop
  endfacet
  facet normal 0.0450151 0.998986 -0
    outer loop
      vertex 5.44434 3.70312 -2.5
      vertex 5.44434 3.70312 2.5
      vertex 7.15625 3.62598 -2.5
    endloop
  endfacet
  facet normal 0.0450151 0.998986 0
    outer loop
      vertex 7.15625 3.62598 2.5
      vertex 7.15625 3.62598 -2.5
      vertex 5.44434 3.70312 2.5
    endloop
  endfacet
  facet normal 0.0720571 0.997401 -0
    outer loop
      vertex 4.24121 3.79004 -2.5
      vertex 4.24121 3.79004 2.5
      vertex 5.44434 3.70312 -2.5
    endloop
  endfacet
  facet normal 0.0720571 0.997401 0
    outer loop
      vertex 5.44434 3.70312 2.5
      vertex 5.44434 3.70312 -2.5
      vertex 4.24121 3.79004 2.5
    endloop
  endfacet
  facet normal 0.122025 0.992527 -0
    outer loop
      vertex 3.76465 3.84863 -2.5
      vertex 3.76465 3.84863 2.5
      vertex 4.24121 3.79004 -2.5
    endloop
  endfacet
  facet normal 0.122025 0.992527 0
    outer loop
      vertex 4.24121 3.79004 2.5
      vertex 4.24121 3.79004 -2.5
      vertex 3.76465 3.84863 2.5
    endloop
  endfacet
  facet normal 0.624779 0.780802 -0
    outer loop
      vertex 3.73047 3.87598 -2.5
      vertex 3.73047 3.87598 2.5
      vertex 3.76465 3.84863 -2.5
    endloop
  endfacet
  facet normal 0.624779 0.780802 0
    outer loop
      vertex 3.76465 3.84863 2.5
      vertex 3.76465 3.84863 -2.5
      vertex 3.73047 3.87598 2.5
    endloop
  endfacet
  facet normal 0.741316 0.671156 -0
    outer loop
      vertex 3.64648 3.96875 -2.5
      vertex 3.64648 3.96875 2.5
      vertex 3.73047 3.87598 -2.5
    endloop
  endfacet
  facet normal 0.741316 0.671156 0
    outer loop
      vertex 3.73047 3.87598 2.5
      vertex 3.73047 3.87598 -2.5
      vertex 3.64648 3.96875 2.5
    endloop
  endfacet
  facet normal 0.998726 0.050461 -0
    outer loop
      vertex 3.61426 4.60645 -2.5
      vertex 3.61426 4.60645 2.5
      vertex 3.64648 3.96875 -2.5
    endloop
  endfacet
  facet normal 0.998726 0.050461 0
    outer loop
      vertex 3.64648 3.96875 2.5
      vertex 3.64648 3.96875 -2.5
      vertex 3.61426 4.60645 2.5
    endloop
  endfacet
  facet normal 0.998554 0.0537616 -0
    outer loop
      vertex 3.52246 6.31152 -2.5
      vertex 3.52246 6.31152 2.5
      vertex 3.61426 4.60645 -2.5
    endloop
  endfacet
  facet normal 0.998554 0.0537616 0
    outer loop
      vertex 3.61426 4.60645 2.5
      vertex 3.61426 4.60645 -2.5
      vertex 3.52246 6.31152 2.5
    endloop
  endfacet
  facet normal 0.999617 0.0276868 -0
    outer loop
      vertex 3.45703 8.67383 -2.5
      vertex 3.45703 8.67383 2.5
      vertex 3.52246 6.31152 -2.5
    endloop
  endfacet
  facet normal 0.999617 0.0276868 0
    outer loop
      vertex 3.52246 6.31152 2.5
      vertex 3.52246 6.31152 -2.5
      vertex 3.45703 8.67383 2.5
    endloop
  endfacet
  facet normal 0.999915 0.013007 -0
    outer loop
      vertex 3.42188 11.376 -2.5
      vertex 3.42188 11.376 2.5
      vertex 3.45703 8.67383 -2.5
    endloop
  endfacet
  facet normal 0.999915 0.013007 0
    outer loop
      vertex 3.45703 8.67383 2.5
      vertex 3.45703 8.67383 -2.5
      vertex 3.42188 11.376 2.5
    endloop
  endfacet
  facet normal 0.999998 0.0021477 -0
    outer loop
      vertex 3.41602 14.1045 -2.5
      vertex 3.41602 14.1045 2.5
      vertex 3.42188 11.376 -2.5
    endloop
  endfacet
  facet normal 0.999998 0.0021477 0
    outer loop
      vertex 3.42188 11.376 2.5
      vertex 3.42188 11.376 -2.5
      vertex 3.41602 14.1045 2.5
    endloop
  endfacet
  facet normal 0.999928 -0.0120155 0
    outer loop
      vertex 3.44531 16.542 -2.5
      vertex 3.44531 16.542 2.5
      vertex 3.41602 14.1045 -2.5
    endloop
  endfacet
  facet normal 0.999928 -0.0120155 0
    outer loop
      vertex 3.41602 14.1045 2.5
      vertex 3.41602 14.1045 -2.5
      vertex 3.44531 16.542 2.5
    endloop
  endfacet
  facet normal 0.999341 -0.0363034 0
    outer loop
      vertex 3.51172 18.3701 -2.5
      vertex 3.51172 18.3701 2.5
      vertex 3.44531 16.542 -2.5
    endloop
  endfacet
  facet normal 0.999341 -0.0363034 0
    outer loop
      vertex 3.44531 16.542 2.5
      vertex 3.44531 16.542 -2.5
      vertex 3.51172 18.3701 2.5
    endloop
  endfacet
  facet normal 0.999179 -0.0405223 0
    outer loop
      vertex 3.54004 19.0684 -2.5
      vertex 3.54004 19.0684 2.5
      vertex 3.51172 18.3701 -2.5
    endloop
  endfacet
  facet normal 0.999179 -0.0405223 0
    outer loop
      vertex 3.51172 18.3701 2.5
      vertex 3.51172 18.3701 -2.5
      vertex 3.54004 19.0684 2.5
    endloop
  endfacet
  facet normal 0.936479 -0.350725 0
    outer loop
      vertex 3.61719 19.2744 -2.5
      vertex 3.61719 19.2744 2.5
      vertex 3.54004 19.0684 -2.5
    endloop
  endfacet
  facet normal 0.936479 -0.350725 0
    outer loop
      vertex 3.54004 19.0684 2.5
      vertex 3.54004 19.0684 -2.5
      vertex 3.61719 19.2744 2.5
    endloop
  endfacet
  facet normal 0.936083 -0.351779 0
    outer loop
      vertex 3.6748 19.4277 -2.5
      vertex 3.6748 19.4277 2.5
      vertex 3.61719 19.2744 -2.5
    endloop
  endfacet
  facet normal 0.936083 -0.351779 0
    outer loop
      vertex 3.61719 19.2744 2.5
      vertex 3.61719 19.2744 -2.5
      vertex 3.6748 19.4277 2.5
    endloop
  endfacet
  facet normal 0.802803 -0.596244 0
    outer loop
      vertex 3.97656 19.834 -2.5
      vertex 3.97656 19.834 2.5
      vertex 3.6748 19.4277 -2.5
    endloop
  endfacet
  facet normal 0.802803 -0.596244 0
    outer loop
      vertex 3.6748 19.4277 2.5
      vertex 3.6748 19.4277 -2.5
      vertex 3.97656 19.834 2.5
    endloop
  endfacet
  facet normal 0.326214 -0.945296 0
    outer loop
      vertex 4.83691 20.1309 -2.5
      vertex 4.83691 20.1309 2.5
      vertex 3.97656 19.834 -2.5
    endloop
  endfacet
  facet normal 0.326214 -0.945296 0
    outer loop
      vertex 3.97656 19.834 2.5
      vertex 3.97656 19.834 -2.5
      vertex 4.83691 20.1309 2.5
    endloop
  endfacet
  facet normal 0.0579687 -0.998318 0
    outer loop
      vertex 6.68652 20.2383 -2.5
      vertex 6.68652 20.2383 2.5
      vertex 4.83691 20.1309 -2.5
    endloop
  endfacet
  facet normal 0.0579687 -0.998318 0
    outer loop
      vertex 4.83691 20.1309 2.5
      vertex 4.83691 20.1309 -2.5
      vertex 6.68652 20.2383 2.5
    endloop
  endfacet
  facet normal -0.000801879 -1 0
    outer loop
      vertex 9.18066 20.2363 -2.5
      vertex 9.18066 20.2363 2.5
      vertex 6.68652 20.2383 -2.5
    endloop
  endfacet
  facet normal -0.000801879 -1 -0
    outer loop
      vertex 6.68652 20.2383 2.5
      vertex 6.68652 20.2383 -2.5
      vertex 9.18066 20.2363 2.5
    endloop
  endfacet
  facet normal -0.00937414 -0.999956 0
    outer loop
      vertex 10.0127 20.2285 -2.5
      vertex 10.0127 20.2285 2.5
      vertex 9.18066 20.2363 -2.5
    endloop
  endfacet
  facet normal -0.00937414 -0.999956 -0
    outer loop
      vertex 9.18066 20.2363 2.5
      vertex 9.18066 20.2363 -2.5
      vertex 10.0127 20.2285 2.5
    endloop
  endfacet
  facet normal -0.00818549 -0.999966 0
    outer loop
      vertex 10.6113 20.2236 -2.5
      vertex 10.6113 20.2236 2.5
      vertex 10.0127 20.2285 -2.5
    endloop
  endfacet
  facet normal -0.00818549 -0.999966 -0
    outer loop
      vertex 10.0127 20.2285 2.5
      vertex 10.0127 20.2285 -2.5
      vertex 10.6113 20.2236 2.5
    endloop
  endfacet
  facet normal -0.0151826 -0.999885 0
    outer loop
      vertex 12.4092 20.1963 -2.5
      vertex 12.4092 20.1963 2.5
      vertex 10.6113 20.2236 -2.5
    endloop
  endfacet
  facet normal -0.0151826 -0.999885 -0
    outer loop
      vertex 10.6113 20.2236 2.5
      vertex 10.6113 20.2236 -2.5
      vertex 12.4092 20.1963 2.5
    endloop
  endfacet
  facet normal -0.0530894 -0.99859 0
    outer loop
      vertex 13.8613 20.1191 -2.5
      vertex 13.8613 20.1191 2.5
      vertex 12.4092 20.1963 -2.5
    endloop
  endfacet
  facet normal -0.0530894 -0.99859 -0
    outer loop
      vertex 12.4092 20.1963 2.5
      vertex 12.4092 20.1963 -2.5
      vertex 13.8613 20.1191 2.5
    endloop
  endfacet
  facet normal -0.192139 -0.981368 0
    outer loop
      vertex 14.6494 19.9648 -2.5
      vertex 14.6494 19.9648 2.5
      vertex 13.8613 20.1191 -2.5
    endloop
  endfacet
  facet normal -0.192139 -0.981368 -0
    outer loop
      vertex 13.8613 20.1191 2.5
      vertex 13.8613 20.1191 -2.5
      vertex 14.6494 19.9648 2.5
    endloop
  endfacet
  facet normal -0.48201 -0.876165 0
    outer loop
      vertex 14.9795 19.7832 -2.5
      vertex 14.9795 19.7832 2.5
      vertex 14.6494 19.9648 -2.5
    endloop
  endfacet
  facet normal -0.48201 -0.876165 -0
    outer loop
      vertex 14.6494 19.9648 2.5
      vertex 14.6494 19.9648 -2.5
      vertex 14.9795 19.7832 2.5
    endloop
  endfacet
  facet normal -0.735381 -0.677654 0
    outer loop
      vertex 15.0605 19.6953 -2.5
      vertex 15.0605 19.6953 2.5
      vertex 14.9795 19.7832 -2.5
    endloop
  endfacet
  facet normal -0.735381 -0.677654 -0
    outer loop
      vertex 14.9795 19.7832 2.5
      vertex 14.9795 19.7832 -2.5
      vertex 15.0605 19.6953 2.5
    endloop
  endfacet
  facet normal -0.707107 -0.707107 0
    outer loop
      vertex 15.1533 19.6025 -2.5
      vertex 15.1533 19.6025 2.5
      vertex 15.0605 19.6953 -2.5
    endloop
  endfacet
  facet normal -0.707107 -0.707107 -0
    outer loop
      vertex 15.0605 19.6953 2.5
      vertex 15.0605 19.6953 -2.5
      vertex 15.1533 19.6025 2.5
    endloop
  endfacet
  facet normal -0.910827 -0.412789 0
    outer loop
      vertex 15.3281 19.2168 -2.5
      vertex 15.3281 19.2168 2.5
      vertex 15.1533 19.6025 -2.5
    endloop
  endfacet
  facet normal -0.910827 -0.412789 -0
    outer loop
      vertex 15.1533 19.6025 2.5
      vertex 15.1533 19.6025 -2.5
      vertex 15.3281 19.2168 2.5
    endloop
  endfacet
  facet normal -0.990917 -0.134475 0
    outer loop
      vertex 15.4805 18.0938 -2.5
      vertex 15.4805 18.0938 2.5
      vertex 15.3281 19.2168 -2.5
    endloop
  endfacet
  facet normal -0.990917 -0.134475 -0
    outer loop
      vertex 15.3281 19.2168 2.5
      vertex 15.3281 19.2168 -2.5
      vertex 15.4805 18.0938 2.5
    endloop
  endfacet
  facet normal -0.999562 -0.0295964 0
    outer loop
      vertex 15.5488 15.7871 -2.5
      vertex 15.5488 15.7871 2.5
      vertex 15.4805 18.0938 -2.5
    endloop
  endfacet
  facet normal -0.999562 -0.0295964 -0
    outer loop
      vertex 15.4805 18.0938 2.5
      vertex 15.4805 18.0938 -2.5
      vertex 15.5488 15.7871 2.5
    endloop
  endfacet
  facet normal -0.999987 -0.00519431 0
    outer loop
      vertex 15.5645 12.7646 -2.5
      vertex 15.5645 12.7646 2.5
      vertex 15.5488 15.7871 -2.5
    endloop
  endfacet
  facet normal -0.999987 -0.00519431 -0
    outer loop
      vertex 15.5488 15.7871 2.5
      vertex 15.5488 15.7871 -2.5
      vertex 15.5645 12.7646 2.5
    endloop
  endfacet
  facet normal -1 0 0
    outer loop
      vertex 15.5645 10.7139 -2.5
      vertex 15.5645 10.7139 2.5
      vertex 15.5645 12.7646 -2.5
    endloop
  endfacet
  facet normal -1 -0 -0
    outer loop
      vertex 15.5645 12.7646 2.5
      vertex 15.5645 12.7646 -2.5
      vertex 15.5645 10.7139 2.5
    endloop
  endfacet
  facet normal -0.99999 0.00437434 0
    outer loop
      vertex 15.5508 7.58203 -2.5
      vertex 15.5508 7.58203 2.5
      vertex 15.5645 10.7139 -2.5
    endloop
  endfacet
  facet normal -0.99999 0.00437434 0
    outer loop
      vertex 15.5645 10.7139 2.5
      vertex 15.5645 10.7139 -2.5
      vertex 15.5508 7.58203 2.5
    endloop
  endfacet
  facet normal -0.999561 0.0296337 0
    outer loop
      vertex 15.4834 5.30859 -2.5
      vertex 15.4834 5.30859 2.5
      vertex 15.5508 7.58203 -2.5
    endloop
  endfacet
  facet normal -0.999561 0.0296337 0
    outer loop
      vertex 15.5508 7.58203 2.5
      vertex 15.5508 7.58203 -2.5
      vertex 15.4834 5.30859 2.5
    endloop
  endfacet
  facet normal -0.986492 0.163812 0
    outer loop
      vertex 15.3154 4.29688 -2.5
      vertex 15.3154 4.29688 2.5
      vertex 15.4834 5.30859 -2.5
    endloop
  endfacet
  facet normal -0.986492 0.163812 0
    outer loop
      vertex 15.4834 5.30859 2.5
      vertex 15.4834 5.30859 -2.5
      vertex 15.3154 4.29688 2.5
    endloop
  endfacet
  facet normal -0.830547 0.556948 0
    outer loop
      vertex 15.1006 3.97656 -2.5
      vertex 15.1006 3.97656 2.5
      vertex 15.3154 4.29688 -2.5
    endloop
  endfacet
  facet normal -0.830547 0.556948 0
    outer loop
      vertex 15.3154 4.29688 2.5
      vertex 15.3154 4.29688 -2.5
      vertex 15.1006 3.97656 2.5
    endloop
  endfacet
  facet normal -0.593401 0.804907 0
    outer loop
      vertex 15.0039 3.90527 -2.5
      vertex 15.0039 3.90527 2.5
      vertex 15.1006 3.97656 -2.5
    endloop
  endfacet
  facet normal -0.593401 0.804907 0
    outer loop
      vertex 15.1006 3.97656 2.5
      vertex 15.1006 3.97656 -2.5
      vertex 15.0039 3.90527 2.5
    endloop
  endfacet
  facet normal -0.627382 0.778712 0
    outer loop
      vertex 14.9033 3.82422 -2.5
      vertex 14.9033 3.82422 2.5
      vertex 15.0039 3.90527 -2.5
    endloop
  endfacet
  facet normal -0.627382 0.778712 0
    outer loop
      vertex 15.0039 3.90527 2.5
      vertex 15.0039 3.90527 -2.5
      vertex 14.9033 3.82422 2.5
    endloop
  endfacet
  facet normal -0.328871 0.944375 0
    outer loop
      vertex 14.5107 3.6875 -2.5
      vertex 14.5107 3.6875 2.5
      vertex 14.9033 3.82422 -2.5
    endloop
  endfacet
  facet normal -0.328871 0.944375 0
    outer loop
      vertex 14.9033 3.82422 2.5
      vertex 14.9033 3.82422 -2.5
      vertex 14.5107 3.6875 2.5
    endloop
  endfacet
  facet normal -0.12108 0.992643 0
    outer loop
      vertex 13.542 3.56934 -2.5
      vertex 13.542 3.56934 2.5
      vertex 14.5107 3.6875 -2.5
    endloop
  endfacet
  facet normal -0.12108 0.992643 0
    outer loop
      vertex 14.5107 3.6875 2.5
      vertex 14.5107 3.6875 -2.5
      vertex 13.542 3.56934 2.5
    endloop
  endfacet
  facet normal -0.0196529 0.999807 0
    outer loop
      vertex 11.8525 3.53613 -2.5
      vertex 11.8525 3.53613 2.5
      vertex 13.542 3.56934 -2.5
    endloop
  endfacet
  facet normal -0.0196529 0.999807 0
    outer loop
      vertex 13.542 3.56934 2.5
      vertex 13.542 3.56934 -2.5
      vertex 11.8525 3.53613 2.5
    endloop
  endfacet
  facet normal 0.0102999 0.999947 -0
    outer loop
      vertex 9.86133 3.55664 -2.5
      vertex 9.86133 3.55664 2.5
      vertex 11.8525 3.53613 -2.5
    endloop
  endfacet
  facet normal 0.0102999 0.999947 0
    outer loop
      vertex 11.8525 3.53613 2.5
      vertex 11.8525 3.53613 -2.5
      vertex 9.86133 3.55664 2.5
    endloop
  endfacet
endsolid OpenSCAD_Model
