solid OpenSCAD_Model
  facet normal 0 0 -1
    outer loop
      vertex 62.3701 1.36719 -2.5
      vertex 62.2559 0.904297 -2.5
      vertex 61.9619 0.614258 -2.5
    endloop
  endfacet
  facet normal 0 -0 -1
    outer loop
      vertex 58.7012 5.33301 -2.5
      vertex 62.5547 4.75879 -2.5
      vertex 58.5967 5.13477 -2.5
    endloop
  endfacet
  facet normal 0 0 -1
    outer loop
      vertex 61.9619 0.614258 -2.5
      vertex 62.2559 0.904297 -2.5
      vertex 62.1787 0.791016 -2.5
    endloop
  endfacet
  facet normal -0 0 -1
    outer loop
      vertex 62.1387 0.737305 -2.5
      vertex 61.9619 0.614258 -2.5
      vertex 62.1787 0.791016 -2.5
    endloop
  endfacet
  facet normal 0 0 -1
    outer loop
      vertex 61.3984 0.480469 -2.5
      vertex 62.3701 1.36719 -2.5
      vertex 61.9619 0.614258 -2.5
    endloop
  endfacet
  facet normal 0 0 -1
    outer loop
      vertex 61.3984 0.480469 -2.5
      vertex 62.4912 2.59766 -2.5
      vertex 62.3701 1.36719 -2.5
    endloop
  endfacet
  facet normal -0 0 -1
    outer loop
      vertex 61.3984 0.480469 -2.5
      vertex 60.1621 0.381836 -2.5
      vertex 62.4912 2.59766 -2.5
    endloop
  endfacet
  facet normal 0 0 -1
    outer loop
      vertex 58.7012 5.33301 -2.5
      vertex 58.7529 6.40234 -2.5
      vertex 62.5547 4.75879 -2.5
    endloop
  endfacet
  facet normal 0 0 -1
    outer loop
      vertex 58.54 5.02832 -2.5
      vertex 62.5547 4.75879 -2.5
      vertex 62.4912 2.59766 -2.5
    endloop
  endfacet
  facet normal 0 0 -1
    outer loop
      vertex 58.0889 11.4805 -2.5
      vertex 62.4844 13.0684 -2.5
      vertex 62.5488 10.8145 -2.5
    endloop
  endfacet
  facet normal 0 0 -1
    outer loop
      vertex 52.8975 15.751 -2.5
      vertex 56.8223 15.7041 -2.5
      vertex 55.7471 11.9736 -2.5
    endloop
  endfacet
  facet normal 0 0 -1
    outer loop
      vertex 57.0215 11.8887 -2.5
      vertex 56.8223 15.7041 -2.5
      vertex 57.6768 11.7725 -2.5
    endloop
  endfacet
  facet normal -0 -0 -1
    outer loop
      vertex 61.1445 15.5674 -2.5
      vertex 62.4844 13.0684 -2.5
      vertex 59.4951 15.6445 -2.5
    endloop
  endfacet
  facet normal 0 0 -1
    outer loop
      vertex 62.291 15.3447 -2.5
      vertex 61.999 15.4688 -2.5
      vertex 62.2568 15.3994 -2.5
    endloop
  endfacet
  facet normal -0 -0 -1
    outer loop
      vertex 62.291 15.3447 -2.5
      vertex 62.3262 15.2881 -2.5
      vertex 61.999 15.4688 -2.5
    endloop
  endfacet
  facet normal -0 -0 -1
    outer loop
      vertex 62.3262 15.2881 -2.5
      vertex 62.3945 14.6523 -2.5
      vertex 61.999 15.4688 -2.5
    endloop
  endfacet
  facet normal -0 -0 -1
    outer loop
      vertex 61.999 15.4688 -2.5
      vertex 62.3945 14.6523 -2.5
      vertex 61.1445 15.5674 -2.5
    endloop
  endfacet
  facet normal 0 0 -1
    outer loop
      vertex 61.1445 15.5674 -2.5
      vertex 62.3945 14.6523 -2.5
      vertex 62.4844 13.0684 -2.5
    endloop
  endfacet
  facet normal 0 0 -1
    outer loop
      vertex 53.6143 12.0342 -2.5
      vertex 50.3848 12.0762 -2.5
      vertex 52.8975 15.751 -2.5
    endloop
  endfacet
  facet normal 0 0 -1
    outer loop
      vertex 58.0889 11.4805 -2.5
      vertex 59.4951 15.6445 -2.5
      vertex 62.4844 13.0684 -2.5
    endloop
  endfacet
  facet normal 0 0 -1
    outer loop
      vertex 47.4932 15.79 -2.5
      vertex 52.8975 15.751 -2.5
      vertex 50.3848 12.0762 -2.5
    endloop
  endfacet
  facet normal 0 0 -1
    outer loop
      vertex 45.8223 12.1016 -2.5
      vertex 47.4932 15.79 -2.5
      vertex 50.3848 12.0762 -2.5
    endloop
  endfacet
  facet normal 0 0 -1
    outer loop
      vertex 45.8223 12.1016 -2.5
      vertex 39.6875 12.1182 -2.5
      vertex 40.377 15.8213 -2.5
    endloop
  endfacet
  facet normal 0 0 -1
    outer loop
      vertex 49.2002 0.228516 -2.5
      vertex 45.9316 3.94531 -2.5
      vertex 50.873 3.99316 -2.5
    endloop
  endfacet
  facet normal -0 0 -1
    outer loop
      vertex 33.5859 15.8447 -2.5
      vertex 31.7461 12.1299 -2.5
      vertex 31.3232 15.8516 -2.5
    endloop
  endfacet
  facet normal 0 -0 -1
    outer loop
      vertex 39.1504 3.92578 -2.5
      vertex 42.0518 0.200195 -2.5
      vertex 34.9785 0.177734 -2.5
    endloop
  endfacet
  facet normal 0 -0 -1
    outer loop
      vertex 29.1162 15.8574 -2.5
      vertex 30.4482 12.1318 -2.5
      vertex 26.5537 12.1367 -2.5
    endloop
  endfacet
  facet normal -0 0 -1
    outer loop
      vertex 32.6211 0.170898 -2.5
      vertex 31.1494 0.169922 -2.5
      vertex 32.4541 3.92188 -2.5
    endloop
  endfacet
  facet normal 0 0 -1
    outer loop
      vertex 21.6699 12.1367 -2.5
      vertex 22.501 15.8691 -2.5
      vertex 26.5537 12.1367 -2.5
    endloop
  endfacet
  facet normal -0 0 -1
    outer loop
      vertex 32.4541 3.92188 -2.5
      vertex 31.1494 0.169922 -2.5
      vertex 28.5117 3.92188 -2.5
    endloop
  endfacet
  facet normal 0 0 -1
    outer loop
      vertex 34.9785 0.177734 -2.5
      vertex 32.4541 3.92188 -2.5
      vertex 39.1504 3.92578 -2.5
    endloop
  endfacet
  facet normal -0 0 -1
    outer loop
      vertex 17.7627 3.93945 -2.5
      vertex 16.0723 0.173828 -2.5
      vertex 13.2695 3.96289 -2.5
    endloop
  endfacet
  facet normal 0 0 -1
    outer loop
      vertex 4.05664 4.36719 -2.5
      vertex 2.72852 0.272461 -2.5
      vertex 2.02441 0.28418 -2.5
    endloop
  endfacet
  facet normal 0 0 -1
    outer loop
      vertex 0.00683594 8.68555 -2.5
      vertex 3.68066 10.2412 -2.5
      vertex 3.63965 8.96094 -2.5
    endloop
  endfacet
  facet normal 0 0 -1
    outer loop
      vertex 3.87793 11.374 -2.5
      vertex 0.0371094 13.543 -2.5
      vertex 4.06348 11.7676 -2.5
    endloop
  endfacet
  facet normal 0 0 -1
    outer loop
      vertex 0.270508 15.541 -2.5
      vertex 0.318359 15.6006 -2.5
      vertex 0.613281 15.6543 -2.5
    endloop
  endfacet
  facet normal 0 0 -1
    outer loop
      vertex 0.213867 15.4639 -2.5
      vertex 0.270508 15.541 -2.5
      vertex 0.613281 15.6543 -2.5
    endloop
  endfacet
  facet normal 0 0 -1
    outer loop
      vertex 0.126953 14.9463 -2.5
      vertex 0.213867 15.4639 -2.5
      vertex 0.613281 15.6543 -2.5
    endloop
  endfacet
  facet normal 0 0 -1
    outer loop
      vertex 1.56836 15.7412 -2.5
      vertex 0.126953 14.9463 -2.5
      vertex 0.613281 15.6543 -2.5
    endloop
  endfacet
  facet normal 0 0 -1
    outer loop
      vertex 1.56836 15.7412 -2.5
      vertex 0.0371094 13.543 -2.5
      vertex 0.126953 14.9463 -2.5
    endloop
  endfacet
  facet normal 0 0 -1
    outer loop
      vertex 0.00683594 8.68555 -2.5
      vertex 0 11.2158 -2.5
      vertex 3.68066 10.2412 -2.5
    endloop
  endfacet
  facet normal 0 0 -1
    outer loop
      vertex 0.0166016 7.84277 -2.5
      vertex 3.69727 6.94434 -2.5
      vertex 3.88184 5.18652 -2.5
    endloop
  endfacet
  facet normal 0 0 -1
    outer loop
      vertex 0.101562 0.537109 -2.5
      vertex 3.88184 5.18652 -2.5
      vertex 4.05664 4.36719 -2.5
    endloop
  endfacet
  facet normal 0 0 -1
    outer loop
      vertex 11.5479 0.188477 -2.5
      vertex 7.73242 0.210938 -2.5
      vertex 9.79883 3.99609 -2.5
    endloop
  endfacet
  facet normal 0 -0 -1
    outer loop
      vertex 4.21973 4.2041 -2.5
      vertex 4.75 0.238281 -2.5
      vertex 2.72852 0.272461 -2.5
    endloop
  endfacet
  facet normal 0 0 -1
    outer loop
      vertex 4.21973 4.2041 -2.5
      vertex 4.53613 4.17383 -2.5
      vertex 4.75 0.238281 -2.5
    endloop
  endfacet
  facet normal 0 0 -1
    outer loop
      vertex 4.75 0.238281 -2.5
      vertex 5.5332 4.10059 -2.5
      vertex 7.73242 0.210938 -2.5
    endloop
  endfacet
  facet normal 0 0 -1
    outer loop
      vertex 7.73242 0.210938 -2.5
      vertex 7.25391 4.04199 -2.5
      vertex 9.79883 3.99609 -2.5
    endloop
  endfacet
  facet normal -0 0 -1
    outer loop
      vertex 13.2695 3.96289 -2.5
      vertex 11.5479 0.188477 -2.5
      vertex 9.79883 3.99609 -2.5
    endloop
  endfacet
  facet normal 0 -0 -1
    outer loop
      vertex 3.63965 8.96094 -2.5
      vertex 3.69727 6.94434 -2.5
      vertex 0.0166016 7.84277 -2.5
    endloop
  endfacet
  facet normal -0 0 -1
    outer loop
      vertex 23.3799 3.92578 -2.5
      vertex 21.1768 0.165039 -2.5
      vertex 17.7627 3.93945 -2.5
    endloop
  endfacet
  facet normal 0 0 -1
    outer loop
      vertex 23.3799 3.92578 -2.5
      vertex 28.5117 3.92188 -2.5
      vertex 26.7344 0.164062 -2.5
    endloop
  endfacet
  facet normal 0 0 -1
    outer loop
      vertex 32.6211 0.170898 -2.5
      vertex 32.4541 3.92188 -2.5
      vertex 34.9785 0.177734 -2.5
    endloop
  endfacet
  facet normal 0 0 -1
    outer loop
      vertex 30.4482 12.1318 -2.5
      vertex 31.3232 15.8516 -2.5
      vertex 31.7461 12.1299 -2.5
    endloop
  endfacet
  facet normal 0 -0 -1
    outer loop
      vertex 28.5117 3.92188 -2.5
      vertex 31.1494 0.169922 -2.5
      vertex 26.7344 0.164062 -2.5
    endloop
  endfacet
  facet normal -0 0 -1
    outer loop
      vertex 17.2031 12.1299 -2.5
      vertex 13.2646 12.1182 -2.5
      vertex 15.4922 15.875 -2.5
    endloop
  endfacet
  facet normal 0 -0 -1
    outer loop
      vertex 23.3799 3.92578 -2.5
      vertex 26.7344 0.164062 -2.5
      vertex 21.1768 0.165039 -2.5
    endloop
  endfacet
  facet normal -0 0 -1
    outer loop
      vertex 9.96289 12.1035 -2.5
      vertex 7.41016 12.085 -2.5
      vertex 10.0938 15.8682 -2.5
    endloop
  endfacet
  facet normal 0 -0 -1
    outer loop
      vertex 17.7627 3.93945 -2.5
      vertex 21.1768 0.165039 -2.5
      vertex 16.0723 0.173828 -2.5
    endloop
  endfacet
  facet normal 0 0 -1
    outer loop
      vertex 4.39746 11.9521 -2.5
      vertex 3.33203 15.8047 -2.5
      vertex 4.83301 12.0273 -2.5
    endloop
  endfacet
  facet normal 0 -0 -1
    outer loop
      vertex 13.2695 3.96289 -2.5
      vertex 16.0723 0.173828 -2.5
      vertex 11.5479 0.188477 -2.5
    endloop
  endfacet
  facet normal 0 0 -1
    outer loop
      vertex 7.73242 0.210938 -2.5
      vertex 5.5332 4.10059 -2.5
      vertex 7.25391 4.04199 -2.5
    endloop
  endfacet
  facet normal 0 0 -1
    outer loop
      vertex 4.75 0.238281 -2.5
      vertex 4.53613 4.17383 -2.5
      vertex 5.5332 4.10059 -2.5
    endloop
  endfacet
  facet normal 0 -0 -1
    outer loop
      vertex 4.05664 4.36719 -2.5
      vertex 4.21973 4.2041 -2.5
      vertex 2.72852 0.272461 -2.5
    endloop
  endfacet
  facet normal 0 0 -1
    outer loop
      vertex 1.79395 0.311523 -2.5
      vertex 4.05664 4.36719 -2.5
      vertex 2.02441 0.28418 -2.5
    endloop
  endfacet
  facet normal 0 0 -1
    outer loop
      vertex 1.79395 0.311523 -2.5
      vertex 0.101562 0.537109 -2.5
      vertex 4.05664 4.36719 -2.5
    endloop
  endfacet
  facet normal 0 0 -1
    outer loop
      vertex 0.101562 0.537109 -2.5
      vertex 0.0166016 7.84277 -2.5
      vertex 3.88184 5.18652 -2.5
    endloop
  endfacet
  facet normal 0 0 -1
    outer loop
      vertex 0.00683594 8.68555 -2.5
      vertex 3.63965 8.96094 -2.5
      vertex 0.0166016 7.84277 -2.5
    endloop
  endfacet
  facet normal -0 0 -1
    outer loop
      vertex 3.74023 10.6621 -2.5
      vertex 3.68066 10.2412 -2.5
      vertex 0 11.2158 -2.5
    endloop
  endfacet
  facet normal -0 0 -1
    outer loop
      vertex 3.76855 10.8408 -2.5
      vertex 3.74023 10.6621 -2.5
      vertex 0 11.2158 -2.5
    endloop
  endfacet
  facet normal 0 0 -1
    outer loop
      vertex 3.87793 11.374 -2.5
      vertex 3.76855 10.8408 -2.5
      vertex 0 11.2158 -2.5
    endloop
  endfacet
  facet normal 0 -0 -1
    outer loop
      vertex 0.0371094 13.543 -2.5
      vertex 3.87793 11.374 -2.5
      vertex 0 11.2158 -2.5
    endloop
  endfacet
  facet normal 0 -0 -1
    outer loop
      vertex 1.56836 15.7412 -2.5
      vertex 4.06348 11.7676 -2.5
      vertex 0.0371094 13.543 -2.5
    endloop
  endfacet
  facet normal 0 0 -1
    outer loop
      vertex 1.56836 15.7412 -2.5
      vertex 3.33203 15.8047 -2.5
      vertex 4.06348 11.7676 -2.5
    endloop
  endfacet
  facet normal 0 0 -1
    outer loop
      vertex 4.06348 11.7676 -2.5
      vertex 3.33203 15.8047 -2.5
      vertex 4.39746 11.9521 -2.5
    endloop
  endfacet
  facet normal 0 0 -1
    outer loop
      vertex 3.33203 15.8047 -2.5
      vertex 4.98047 12.0439 -2.5
      vertex 4.83301 12.0273 -2.5
    endloop
  endfacet
  facet normal 0 0 -1
    outer loop
      vertex 3.33203 15.8047 -2.5
      vertex 6.10742 15.8457 -2.5
      vertex 4.98047 12.0439 -2.5
    endloop
  endfacet
  facet normal 0 0 -1
    outer loop
      vertex 4.98047 12.0439 -2.5
      vertex 6.10742 15.8457 -2.5
      vertex 5.12109 12.0596 -2.5
    endloop
  endfacet
  facet normal 0 0 -1
    outer loop
      vertex 5.12109 12.0596 -2.5
      vertex 6.10742 15.8457 -2.5
      vertex 5.71094 12.0664 -2.5
    endloop
  endfacet
  facet normal 0 0 -1
    outer loop
      vertex 5.71094 12.0664 -2.5
      vertex 6.10742 15.8457 -2.5
      vertex 7.41016 12.085 -2.5
    endloop
  endfacet
  facet normal 0 0 -1
    outer loop
      vertex 7.41016 12.085 -2.5
      vertex 6.10742 15.8457 -2.5
      vertex 10.0938 15.8682 -2.5
    endloop
  endfacet
  facet normal 0 0 -1
    outer loop
      vertex 9.96289 12.1035 -2.5
      vertex 10.0938 15.8682 -2.5
      vertex 13.2646 12.1182 -2.5
    endloop
  endfacet
  facet normal 0 0 -1
    outer loop
      vertex 15.4922 15.875 -2.5
      vertex 13.2646 12.1182 -2.5
      vertex 10.0938 15.8682 -2.5
    endloop
  endfacet
  facet normal -0 0 -1
    outer loop
      vertex 22.501 15.8691 -2.5
      vertex 17.2031 12.1299 -2.5
      vertex 15.4922 15.875 -2.5
    endloop
  endfacet
  facet normal 0 0 -1
    outer loop
      vertex 22.501 15.8691 -2.5
      vertex 21.6699 12.1367 -2.5
      vertex 17.2031 12.1299 -2.5
    endloop
  endfacet
  facet normal -0 0 -1
    outer loop
      vertex 29.1162 15.8574 -2.5
      vertex 26.5537 12.1367 -2.5
      vertex 22.501 15.8691 -2.5
    endloop
  endfacet
  facet normal -0 0 -1
    outer loop
      vertex 31.3232 15.8516 -2.5
      vertex 30.4482 12.1318 -2.5
      vertex 29.1162 15.8574 -2.5
    endloop
  endfacet
  facet normal 0 0 -1
    outer loop
      vertex 33.7305 12.1279 -2.5
      vertex 31.7461 12.1299 -2.5
      vertex 33.5859 15.8447 -2.5
    endloop
  endfacet
  facet normal 0 0 -1
    outer loop
      vertex 39.6875 12.1182 -2.5
      vertex 33.7305 12.1279 -2.5
      vertex 33.5859 15.8447 -2.5
    endloop
  endfacet
  facet normal -0 0 -1
    outer loop
      vertex 40.377 15.8213 -2.5
      vertex 39.6875 12.1182 -2.5
      vertex 33.5859 15.8447 -2.5
    endloop
  endfacet
  facet normal 0 -0 -1
    outer loop
      vertex 56.4473 4.23047 -2.5
      vertex 57.9326 0.311523 -2.5
      vertex 54.3857 0.263672 -2.5
    endloop
  endfacet
  facet normal 0 0 -1
    outer loop
      vertex 45.8223 12.1016 -2.5
      vertex 40.377 15.8213 -2.5
      vertex 47.4932 15.79 -2.5
    endloop
  endfacet
  facet normal 0 0 -1
    outer loop
      vertex 58.3037 4.74316 -2.5
      vertex 58.54 5.02832 -2.5
      vertex 62.4912 2.59766 -2.5
    endloop
  endfacet
  facet normal 0 0 -1
    outer loop
      vertex 55.7471 11.9736 -2.5
      vertex 53.6143 12.0342 -2.5
      vertex 52.8975 15.751 -2.5
    endloop
  endfacet
  facet normal 0 0 -1
    outer loop
      vertex 54.3857 0.263672 -2.5
      vertex 54.2764 4.08496 -2.5
      vertex 56.4473 4.23047 -2.5
    endloop
  endfacet
  facet normal 0 0 -1
    outer loop
      vertex 55.7471 11.9736 -2.5
      vertex 56.8223 15.7041 -2.5
      vertex 57.0215 11.8887 -2.5
    endloop
  endfacet
  facet normal 0 0 -1
    outer loop
      vertex 56.8223 15.7041 -2.5
      vertex 59.4951 15.6445 -2.5
      vertex 57.6768 11.7725 -2.5
    endloop
  endfacet
  facet normal 0 0 -1
    outer loop
      vertex 57.8965 11.6748 -2.5
      vertex 59.4951 15.6445 -2.5
      vertex 57.9482 11.6211 -2.5
    endloop
  endfacet
  facet normal 0 0 -1
    outer loop
      vertex 57.6768 11.7725 -2.5
      vertex 59.4951 15.6445 -2.5
      vertex 57.8965 11.6748 -2.5
    endloop
  endfacet
  facet normal 0 0 -1
    outer loop
      vertex 57.9482 11.6211 -2.5
      vertex 59.4951 15.6445 -2.5
      vertex 58.0889 11.4805 -2.5
    endloop
  endfacet
  facet normal -0 0 -1
    outer loop
      vertex 62.5488 10.8145 -2.5
      vertex 58.3467 10.4814 -2.5
      vertex 58.0889 11.4805 -2.5
    endloop
  endfacet
  facet normal 0 0 -1
    outer loop
      vertex 58.3467 10.4814 -2.5
      vertex 62.5742 8.79785 -2.5
      vertex 58.6426 8.46289 -2.5
    endloop
  endfacet
  facet normal 0 -0 -1
    outer loop
      vertex 62.5488 10.8145 -2.5
      vertex 62.5742 8.79785 -2.5
      vertex 58.3467 10.4814 -2.5
    endloop
  endfacet
  facet normal 0 0 -1
    outer loop
      vertex 58.6426 8.46289 -2.5
      vertex 62.5742 8.79785 -2.5
      vertex 62.5742 7.2832 -2.5
    endloop
  endfacet
  facet normal 0 0 -1
    outer loop
      vertex 58.7529 6.40234 -2.5
      vertex 58.6426 8.46289 -2.5
      vertex 62.5742 7.2832 -2.5
    endloop
  endfacet
  facet normal 0 0 -1
    outer loop
      vertex 62.5547 4.75879 -2.5
      vertex 58.7529 6.40234 -2.5
      vertex 62.5742 7.2832 -2.5
    endloop
  endfacet
  facet normal 0 -0 -1
    outer loop
      vertex 58.5967 5.13477 -2.5
      vertex 62.5547 4.75879 -2.5
      vertex 58.54 5.02832 -2.5
    endloop
  endfacet
  facet normal 0 0 -1
    outer loop
      vertex 60.1621 0.381836 -2.5
      vertex 58.3037 4.74316 -2.5
      vertex 62.4912 2.59766 -2.5
    endloop
  endfacet
  facet normal 0 0 -1
    outer loop
      vertex 60.1621 0.381836 -2.5
      vertex 57.6885 4.44531 -2.5
      vertex 58.3037 4.74316 -2.5
    endloop
  endfacet
  facet normal -0 0 -1
    outer loop
      vertex 60.1621 0.381836 -2.5
      vertex 57.9326 0.311523 -2.5
      vertex 57.6885 4.44531 -2.5
    endloop
  endfacet
  facet normal 0 0 -1
    outer loop
      vertex 56.4473 4.23047 -2.5
      vertex 57.6885 4.44531 -2.5
      vertex 57.9326 0.311523 -2.5
    endloop
  endfacet
  facet normal 0 0 -1
    outer loop
      vertex 54.3857 0.263672 -2.5
      vertex 50.873 3.99316 -2.5
      vertex 54.2764 4.08496 -2.5
    endloop
  endfacet
  facet normal -0 0 -1
    outer loop
      vertex 54.3857 0.263672 -2.5
      vertex 49.2002 0.228516 -2.5
      vertex 50.873 3.99316 -2.5
    endloop
  endfacet
  facet normal 0 -0 -1
    outer loop
      vertex 45.9316 3.94531 -2.5
      vertex 49.2002 0.228516 -2.5
      vertex 42.0518 0.200195 -2.5
    endloop
  endfacet
  facet normal 0 0 -1
    outer loop
      vertex 42.0518 0.200195 -2.5
      vertex 39.1504 3.92578 -2.5
      vertex 45.9316 3.94531 -2.5
    endloop
  endfacet
  facet normal 0 0 1
    outer loop
      vertex 61.9619 0.614258 2.5
      vertex 62.2559 0.904297 2.5
      vertex 62.3701 1.36719 2.5
    endloop
  endfacet
  facet normal -0 0 1
    outer loop
      vertex 58.5967 5.13477 2.5
      vertex 62.5547 4.75879 2.5
      vertex 58.7012 5.33301 2.5
    endloop
  endfacet
  facet normal 0 -0 1
    outer loop
      vertex 62.1787 0.791016 2.5
      vertex 62.2559 0.904297 2.5
      vertex 61.9619 0.614258 2.5
    endloop
  endfacet
  facet normal 0 0 1
    outer loop
      vertex 62.1787 0.791016 2.5
      vertex 61.9619 0.614258 2.5
      vertex 62.1387 0.737305 2.5
    endloop
  endfacet
  facet normal 0 -0 1
    outer loop
      vertex 61.9619 0.614258 2.5
      vertex 62.3701 1.36719 2.5
      vertex 61.3984 0.480469 2.5
    endloop
  endfacet
  facet normal 0 -0 1
    outer loop
      vertex 62.3701 1.36719 2.5
      vertex 62.4912 2.59766 2.5
      vertex 61.3984 0.480469 2.5
    endloop
  endfacet
  facet normal 0 0 1
    outer loop
      vertex 62.4912 2.59766 2.5
      vertex 60.1621 0.381836 2.5
      vertex 61.3984 0.480469 2.5
    endloop
  endfacet
  facet normal 0 0 1
    outer loop
      vertex 62.5547 4.75879 2.5
      vertex 58.7529 6.40234 2.5
      vertex 58.7012 5.33301 2.5
    endloop
  endfacet
  facet normal 0 -0 1
    outer loop
      vertex 62.4912 2.59766 2.5
      vertex 62.5547 4.75879 2.5
      vertex 58.54 5.02832 2.5
    endloop
  endfacet
  facet normal 0 0 1
    outer loop
      vertex 62.5488 10.8145 2.5
      vertex 62.4844 13.0684 2.5
      vertex 58.0889 11.4805 2.5
    endloop
  endfacet
  facet normal 0 -0 1
    outer loop
      vertex 55.7471 11.9736 2.5
      vertex 56.8223 15.7041 2.5
      vertex 52.8975 15.751 2.5
    endloop
  endfacet
  facet normal 0 0 1
    outer loop
      vertex 57.6768 11.7725 2.5
      vertex 56.8223 15.7041 2.5
      vertex 57.0215 11.8887 2.5
    endloop
  endfacet
  facet normal 0 0 1
    outer loop
      vertex 59.4951 15.6445 2.5
      vertex 62.4844 13.0684 2.5
      vertex 61.1445 15.5674 2.5
    endloop
  endfacet
  facet normal 0 0 1
    outer loop
      vertex 62.2568 15.3994 2.5
      vertex 61.999 15.4688 2.5
      vertex 62.291 15.3447 2.5
    endloop
  endfacet
  facet normal 0 0 1
    outer loop
      vertex 61.999 15.4688 2.5
      vertex 62.3262 15.2881 2.5
      vertex 62.291 15.3447 2.5
    endloop
  endfacet
  facet normal 0 0 1
    outer loop
      vertex 61.999 15.4688 2.5
      vertex 62.3945 14.6523 2.5
      vertex 62.3262 15.2881 2.5
    endloop
  endfacet
  facet normal 0 0 1
    outer loop
      vertex 61.1445 15.5674 2.5
      vertex 62.3945 14.6523 2.5
      vertex 61.999 15.4688 2.5
    endloop
  endfacet
  facet normal 0 0 1
    outer loop
      vertex 62.4844 13.0684 2.5
      vertex 62.3945 14.6523 2.5
      vertex 61.1445 15.5674 2.5
    endloop
  endfacet
  facet normal 0 0 1
    outer loop
      vertex 52.8975 15.751 2.5
      vertex 50.3848 12.0762 2.5
      vertex 53.6143 12.0342 2.5
    endloop
  endfacet
  facet normal 0 0 1
    outer loop
      vertex 62.4844 13.0684 2.5
      vertex 59.4951 15.6445 2.5
      vertex 58.0889 11.4805 2.5
    endloop
  endfacet
  facet normal 0 -0 1
    outer loop
      vertex 50.3848 12.0762 2.5
      vertex 52.8975 15.751 2.5
      vertex 47.4932 15.79 2.5
    endloop
  endfacet
  facet normal 0 0 1
    outer loop
      vertex 50.3848 12.0762 2.5
      vertex 47.4932 15.79 2.5
      vertex 45.8223 12.1016 2.5
    endloop
  endfacet
  facet normal 0 0 1
    outer loop
      vertex 40.377 15.8213 2.5
      vertex 39.6875 12.1182 2.5
      vertex 45.8223 12.1016 2.5
    endloop
  endfacet
  facet normal 0 0 1
    outer loop
      vertex 50.873 3.99316 2.5
      vertex 45.9316 3.94531 2.5
      vertex 49.2002 0.228516 2.5
    endloop
  endfacet
  facet normal 0 0 1
    outer loop
      vertex 31.3232 15.8516 2.5
      vertex 31.7461 12.1299 2.5
      vertex 33.5859 15.8447 2.5
    endloop
  endfacet
  facet normal 0 0 1
    outer loop
      vertex 34.9785 0.177734 2.5
      vertex 42.0518 0.200195 2.5
      vertex 39.1504 3.92578 2.5
    endloop
  endfacet
  facet normal -0 0 1
    outer loop
      vertex 26.5537 12.1367 2.5
      vertex 30.4482 12.1318 2.5
      vertex 29.1162 15.8574 2.5
    endloop
  endfacet
  facet normal 0 0 1
    outer loop
      vertex 32.4541 3.92188 2.5
      vertex 31.1494 0.169922 2.5
      vertex 32.6211 0.170898 2.5
    endloop
  endfacet
  facet normal 0 0 1
    outer loop
      vertex 26.5537 12.1367 2.5
      vertex 22.501 15.8691 2.5
      vertex 21.6699 12.1367 2.5
    endloop
  endfacet
  facet normal -0 0 1
    outer loop
      vertex 28.5117 3.92188 2.5
      vertex 31.1494 0.169922 2.5
      vertex 32.4541 3.92188 2.5
    endloop
  endfacet
  facet normal 0 0 1
    outer loop
      vertex 39.1504 3.92578 2.5
      vertex 32.4541 3.92188 2.5
      vertex 34.9785 0.177734 2.5
    endloop
  endfacet
  facet normal 0 0 1
    outer loop
      vertex 13.2695 3.96289 2.5
      vertex 16.0723 0.173828 2.5
      vertex 17.7627 3.93945 2.5
    endloop
  endfacet
  facet normal -0 0 1
    outer loop
      vertex 2.02441 0.28418 2.5
      vertex 2.72852 0.272461 2.5
      vertex 4.05664 4.36719 2.5
    endloop
  endfacet
  facet normal 0 -0 1
    outer loop
      vertex 3.63965 8.96094 2.5
      vertex 3.68066 10.2412 2.5
      vertex 0.00683594 8.68555 2.5
    endloop
  endfacet
  facet normal 0 0 1
    outer loop
      vertex 4.06348 11.7676 2.5
      vertex 0.0371094 13.543 2.5
      vertex 3.87793 11.374 2.5
    endloop
  endfacet
  facet normal 0 0 1
    outer loop
      vertex 0.613281 15.6543 2.5
      vertex 0.318359 15.6006 2.5
      vertex 0.270508 15.541 2.5
    endloop
  endfacet
  facet normal 0 0 1
    outer loop
      vertex 0.613281 15.6543 2.5
      vertex 0.270508 15.541 2.5
      vertex 0.213867 15.4639 2.5
    endloop
  endfacet
  facet normal 0 0 1
    outer loop
      vertex 0.613281 15.6543 2.5
      vertex 0.213867 15.4639 2.5
      vertex 0.126953 14.9463 2.5
    endloop
  endfacet
  facet normal -0 0 1
    outer loop
      vertex 0.613281 15.6543 2.5
      vertex 0.126953 14.9463 2.5
      vertex 1.56836 15.7412 2.5
    endloop
  endfacet
  facet normal -0 0 1
    outer loop
      vertex 0.126953 14.9463 2.5
      vertex 0.0371094 13.543 2.5
      vertex 1.56836 15.7412 2.5
    endloop
  endfacet
  facet normal 0 0 1
    outer loop
      vertex 3.68066 10.2412 2.5
      vertex 0 11.2158 2.5
      vertex 0.00683594 8.68555 2.5
    endloop
  endfacet
  facet normal 0 0 1
    outer loop
      vertex 3.88184 5.18652 2.5
      vertex 3.69727 6.94434 2.5
      vertex 0.0166016 7.84277 2.5
    endloop
  endfacet
  facet normal 0 0 1
    outer loop
      vertex 4.05664 4.36719 2.5
      vertex 3.88184 5.18652 2.5
      vertex 0.101562 0.537109 2.5
    endloop
  endfacet
  facet normal 0 0 1
    outer loop
      vertex 9.79883 3.99609 2.5
      vertex 7.73242 0.210938 2.5
      vertex 11.5479 0.188477 2.5
    endloop
  endfacet
  facet normal -0 0 1
    outer loop
      vertex 2.72852 0.272461 2.5
      vertex 4.75 0.238281 2.5
      vertex 4.21973 4.2041 2.5
    endloop
  endfacet
  facet normal 0 0 1
    outer loop
      vertex 4.75 0.238281 2.5
      vertex 4.53613 4.17383 2.5
      vertex 4.21973 4.2041 2.5
    endloop
  endfacet
  facet normal 0 0 1
    outer loop
      vertex 7.73242 0.210938 2.5
      vertex 5.5332 4.10059 2.5
      vertex 4.75 0.238281 2.5
    endloop
  endfacet
  facet normal 0 0 1
    outer loop
      vertex 9.79883 3.99609 2.5
      vertex 7.25391 4.04199 2.5
      vertex 7.73242 0.210938 2.5
    endloop
  endfacet
  facet normal 0 0 1
    outer loop
      vertex 9.79883 3.99609 2.5
      vertex 11.5479 0.188477 2.5
      vertex 13.2695 3.96289 2.5
    endloop
  endfacet
  facet normal -0 0 1
    outer loop
      vertex 0.0166016 7.84277 2.5
      vertex 3.69727 6.94434 2.5
      vertex 3.63965 8.96094 2.5
    endloop
  endfacet
  facet normal 0 0 1
    outer loop
      vertex 17.7627 3.93945 2.5
      vertex 21.1768 0.165039 2.5
      vertex 23.3799 3.92578 2.5
    endloop
  endfacet
  facet normal 0 -0 1
    outer loop
      vertex 26.7344 0.164062 2.5
      vertex 28.5117 3.92188 2.5
      vertex 23.3799 3.92578 2.5
    endloop
  endfacet
  facet normal 0 0 1
    outer loop
      vertex 34.9785 0.177734 2.5
      vertex 32.4541 3.92188 2.5
      vertex 32.6211 0.170898 2.5
    endloop
  endfacet
  facet normal 0 0 1
    outer loop
      vertex 31.7461 12.1299 2.5
      vertex 31.3232 15.8516 2.5
      vertex 30.4482 12.1318 2.5
    endloop
  endfacet
  facet normal 0 0 1
    outer loop
      vertex 26.7344 0.164062 2.5
      vertex 31.1494 0.169922 2.5
      vertex 28.5117 3.92188 2.5
    endloop
  endfacet
  facet normal 0 0 1
    outer loop
      vertex 15.4922 15.875 2.5
      vertex 13.2646 12.1182 2.5
      vertex 17.2031 12.1299 2.5
    endloop
  endfacet
  facet normal -0 0 1
    outer loop
      vertex 21.1768 0.165039 2.5
      vertex 26.7344 0.164062 2.5
      vertex 23.3799 3.92578 2.5
    endloop
  endfacet
  facet normal 0 0 1
    outer loop
      vertex 10.0938 15.8682 2.5
      vertex 7.41016 12.085 2.5
      vertex 9.96289 12.1035 2.5
    endloop
  endfacet
  facet normal -0 0 1
    outer loop
      vertex 16.0723 0.173828 2.5
      vertex 21.1768 0.165039 2.5
      vertex 17.7627 3.93945 2.5
    endloop
  endfacet
  facet normal 0 0 1
    outer loop
      vertex 4.83301 12.0273 2.5
      vertex 3.33203 15.8047 2.5
      vertex 4.39746 11.9521 2.5
    endloop
  endfacet
  facet normal -0 0 1
    outer loop
      vertex 11.5479 0.188477 2.5
      vertex 16.0723 0.173828 2.5
      vertex 13.2695 3.96289 2.5
    endloop
  endfacet
  facet normal 0 0 1
    outer loop
      vertex 7.25391 4.04199 2.5
      vertex 5.5332 4.10059 2.5
      vertex 7.73242 0.210938 2.5
    endloop
  endfacet
  facet normal 0 0 1
    outer loop
      vertex 5.5332 4.10059 2.5
      vertex 4.53613 4.17383 2.5
      vertex 4.75 0.238281 2.5
    endloop
  endfacet
  facet normal 0 0 1
    outer loop
      vertex 2.72852 0.272461 2.5
      vertex 4.21973 4.2041 2.5
      vertex 4.05664 4.36719 2.5
    endloop
  endfacet
  facet normal 0 -0 1
    outer loop
      vertex 2.02441 0.28418 2.5
      vertex 4.05664 4.36719 2.5
      vertex 1.79395 0.311523 2.5
    endloop
  endfacet
  facet normal 0 0 1
    outer loop
      vertex 4.05664 4.36719 2.5
      vertex 0.101562 0.537109 2.5
      vertex 1.79395 0.311523 2.5
    endloop
  endfacet
  facet normal 0 0 1
    outer loop
      vertex 3.88184 5.18652 2.5
      vertex 0.0166016 7.84277 2.5
      vertex 0.101562 0.537109 2.5
    endloop
  endfacet
  facet normal 0 -0 1
    outer loop
      vertex 0.0166016 7.84277 2.5
      vertex 3.63965 8.96094 2.5
      vertex 0.00683594 8.68555 2.5
    endloop
  endfacet
  facet normal 0 0 1
    outer loop
      vertex 0 11.2158 2.5
      vertex 3.68066 10.2412 2.5
      vertex 3.74023 10.6621 2.5
    endloop
  endfacet
  facet normal 0 0 1
    outer loop
      vertex 0 11.2158 2.5
      vertex 3.74023 10.6621 2.5
      vertex 3.76855 10.8408 2.5
    endloop
  endfacet
  facet normal -0 0 1
    outer loop
      vertex 0 11.2158 2.5
      vertex 3.76855 10.8408 2.5
      vertex 3.87793 11.374 2.5
    endloop
  endfacet
  facet normal 0 0 1
    outer loop
      vertex 0 11.2158 2.5
      vertex 3.87793 11.374 2.5
      vertex 0.0371094 13.543 2.5
    endloop
  endfacet
  facet normal -0 0 1
    outer loop
      vertex 0.0371094 13.543 2.5
      vertex 4.06348 11.7676 2.5
      vertex 1.56836 15.7412 2.5
    endloop
  endfacet
  facet normal 0 0 1
    outer loop
      vertex 4.06348 11.7676 2.5
      vertex 3.33203 15.8047 2.5
      vertex 1.56836 15.7412 2.5
    endloop
  endfacet
  facet normal 0 0 1
    outer loop
      vertex 4.39746 11.9521 2.5
      vertex 3.33203 15.8047 2.5
      vertex 4.06348 11.7676 2.5
    endloop
  endfacet
  facet normal 0 -0 1
    outer loop
      vertex 4.83301 12.0273 2.5
      vertex 4.98047 12.0439 2.5
      vertex 3.33203 15.8047 2.5
    endloop
  endfacet
  facet normal 0 -0 1
    outer loop
      vertex 4.98047 12.0439 2.5
      vertex 6.10742 15.8457 2.5
      vertex 3.33203 15.8047 2.5
    endloop
  endfacet
  facet normal 0 -0 1
    outer loop
      vertex 5.12109 12.0596 2.5
      vertex 6.10742 15.8457 2.5
      vertex 4.98047 12.0439 2.5
    endloop
  endfacet
  facet normal 0 -0 1
    outer loop
      vertex 5.71094 12.0664 2.5
      vertex 6.10742 15.8457 2.5
      vertex 5.12109 12.0596 2.5
    endloop
  endfacet
  facet normal 0 0 1
    outer loop
      vertex 7.41016 12.085 2.5
      vertex 6.10742 15.8457 2.5
      vertex 5.71094 12.0664 2.5
    endloop
  endfacet
  facet normal 0 0 1
    outer loop
      vertex 10.0938 15.8682 2.5
      vertex 6.10742 15.8457 2.5
      vertex 7.41016 12.085 2.5
    endloop
  endfacet
  facet normal 0 0 1
    outer loop
      vertex 13.2646 12.1182 2.5
      vertex 10.0938 15.8682 2.5
      vertex 9.96289 12.1035 2.5
    endloop
  endfacet
  facet normal -0 0 1
    outer loop
      vertex 10.0938 15.8682 2.5
      vertex 13.2646 12.1182 2.5
      vertex 15.4922 15.875 2.5
    endloop
  endfacet
  facet normal 0 0 1
    outer loop
      vertex 15.4922 15.875 2.5
      vertex 17.2031 12.1299 2.5
      vertex 22.501 15.8691 2.5
    endloop
  endfacet
  facet normal 0 0 1
    outer loop
      vertex 17.2031 12.1299 2.5
      vertex 21.6699 12.1367 2.5
      vertex 22.501 15.8691 2.5
    endloop
  endfacet
  facet normal 0 0 1
    outer loop
      vertex 22.501 15.8691 2.5
      vertex 26.5537 12.1367 2.5
      vertex 29.1162 15.8574 2.5
    endloop
  endfacet
  facet normal 0 0 1
    outer loop
      vertex 29.1162 15.8574 2.5
      vertex 30.4482 12.1318 2.5
      vertex 31.3232 15.8516 2.5
    endloop
  endfacet
  facet normal 0 0 1
    outer loop
      vertex 33.5859 15.8447 2.5
      vertex 31.7461 12.1299 2.5
      vertex 33.7305 12.1279 2.5
    endloop
  endfacet
  facet normal 0 0 1
    outer loop
      vertex 33.5859 15.8447 2.5
      vertex 33.7305 12.1279 2.5
      vertex 39.6875 12.1182 2.5
    endloop
  endfacet
  facet normal 0 0 1
    outer loop
      vertex 33.5859 15.8447 2.5
      vertex 39.6875 12.1182 2.5
      vertex 40.377 15.8213 2.5
    endloop
  endfacet
  facet normal 0 0 1
    outer loop
      vertex 54.3857 0.263672 2.5
      vertex 57.9326 0.311523 2.5
      vertex 56.4473 4.23047 2.5
    endloop
  endfacet
  facet normal 0 0 1
    outer loop
      vertex 47.4932 15.79 2.5
      vertex 40.377 15.8213 2.5
      vertex 45.8223 12.1016 2.5
    endloop
  endfacet
  facet normal 0 0 1
    outer loop
      vertex 62.4912 2.59766 2.5
      vertex 58.54 5.02832 2.5
      vertex 58.3037 4.74316 2.5
    endloop
  endfacet
  facet normal 0 0 1
    outer loop
      vertex 52.8975 15.751 2.5
      vertex 53.6143 12.0342 2.5
      vertex 55.7471 11.9736 2.5
    endloop
  endfacet
  facet normal 0 0 1
    outer loop
      vertex 56.4473 4.23047 2.5
      vertex 54.2764 4.08496 2.5
      vertex 54.3857 0.263672 2.5
    endloop
  endfacet
  facet normal 0 0 1
    outer loop
      vertex 57.0215 11.8887 2.5
      vertex 56.8223 15.7041 2.5
      vertex 55.7471 11.9736 2.5
    endloop
  endfacet
  facet normal 0 -0 1
    outer loop
      vertex 57.6768 11.7725 2.5
      vertex 59.4951 15.6445 2.5
      vertex 56.8223 15.7041 2.5
    endloop
  endfacet
  facet normal 0 -0 1
    outer loop
      vertex 57.9482 11.6211 2.5
      vertex 59.4951 15.6445 2.5
      vertex 57.8965 11.6748 2.5
    endloop
  endfacet
  facet normal 0 -0 1
    outer loop
      vertex 57.8965 11.6748 2.5
      vertex 59.4951 15.6445 2.5
      vertex 57.6768 11.7725 2.5
    endloop
  endfacet
  facet normal 0 -0 1
    outer loop
      vertex 58.0889 11.4805 2.5
      vertex 59.4951 15.6445 2.5
      vertex 57.9482 11.6211 2.5
    endloop
  endfacet
  facet normal 0 0 1
    outer loop
      vertex 58.0889 11.4805 2.5
      vertex 58.3467 10.4814 2.5
      vertex 62.5488 10.8145 2.5
    endloop
  endfacet
  facet normal 0 -0 1
    outer loop
      vertex 58.6426 8.46289 2.5
      vertex 62.5742 8.79785 2.5
      vertex 58.3467 10.4814 2.5
    endloop
  endfacet
  facet normal -0 0 1
    outer loop
      vertex 58.3467 10.4814 2.5
      vertex 62.5742 8.79785 2.5
      vertex 62.5488 10.8145 2.5
    endloop
  endfacet
  facet normal 0 -0 1
    outer loop
      vertex 62.5742 7.2832 2.5
      vertex 62.5742 8.79785 2.5
      vertex 58.6426 8.46289 2.5
    endloop
  endfacet
  facet normal 0 0 1
    outer loop
      vertex 62.5742 7.2832 2.5
      vertex 58.6426 8.46289 2.5
      vertex 58.7529 6.40234 2.5
    endloop
  endfacet
  facet normal 0 0 1
    outer loop
      vertex 62.5742 7.2832 2.5
      vertex 58.7529 6.40234 2.5
      vertex 62.5547 4.75879 2.5
    endloop
  endfacet
  facet normal -0 0 1
    outer loop
      vertex 58.54 5.02832 2.5
      vertex 62.5547 4.75879 2.5
      vertex 58.5967 5.13477 2.5
    endloop
  endfacet
  facet normal 0 0 1
    outer loop
      vertex 62.4912 2.59766 2.5
      vertex 58.3037 4.74316 2.5
      vertex 60.1621 0.381836 2.5
    endloop
  endfacet
  facet normal 0 0 1
    outer loop
      vertex 58.3037 4.74316 2.5
      vertex 57.6885 4.44531 2.5
      vertex 60.1621 0.381836 2.5
    endloop
  endfacet
  facet normal 0 0 1
    outer loop
      vertex 57.6885 4.44531 2.5
      vertex 57.9326 0.311523 2.5
      vertex 60.1621 0.381836 2.5
    endloop
  endfacet
  facet normal 0 0 1
    outer loop
      vertex 57.9326 0.311523 2.5
      vertex 57.6885 4.44531 2.5
      vertex 56.4473 4.23047 2.5
    endloop
  endfacet
  facet normal 0 0 1
    outer loop
      vertex 54.2764 4.08496 2.5
      vertex 50.873 3.99316 2.5
      vertex 54.3857 0.263672 2.5
    endloop
  endfacet
  facet normal 0 0 1
    outer loop
      vertex 50.873 3.99316 2.5
      vertex 49.2002 0.228516 2.5
      vertex 54.3857 0.263672 2.5
    endloop
  endfacet
  facet normal 0 0 1
    outer loop
      vertex 42.0518 0.200195 2.5
      vertex 49.2002 0.228516 2.5
      vertex 45.9316 3.94531 2.5
    endloop
  endfacet
  facet normal 0 0 1
    outer loop
      vertex 45.9316 3.94531 2.5
      vertex 39.1504 3.92578 2.5
      vertex 42.0518 0.200195 2.5
    endloop
  endfacet
  facet normal 0.000663178 -1 0
    outer loop
      vertex 32.6211 0.170898 -2.5
      vertex 31.1494 0.169922 2.5
      vertex 31.1494 0.169922 -2.5
    endloop
  endfacet
  facet normal 0.000663178 -1 0
    outer loop
      vertex 32.6211 0.170898 -2.5
      vertex 32.6211 0.170898 2.5
      vertex 31.1494 0.169922 2.5
    endloop
  endfacet
  facet normal 0.00289979 -0.999996 0
    outer loop
      vertex 34.9785 0.177734 -2.5
      vertex 32.6211 0.170898 2.5
      vertex 32.6211 0.170898 -2.5
    endloop
  endfacet
  facet normal 0.00289979 -0.999996 0
    outer loop
      vertex 34.9785 0.177734 -2.5
      vertex 34.9785 0.177734 2.5
      vertex 32.6211 0.170898 2.5
    endloop
  endfacet
  facet normal 0.00317545 -0.999995 0
    outer loop
      vertex 42.0518 0.200195 -2.5
      vertex 34.9785 0.177734 2.5
      vertex 34.9785 0.177734 -2.5
    endloop
  endfacet
  facet normal 0.00317545 -0.999995 0
    outer loop
      vertex 42.0518 0.200195 -2.5
      vertex 42.0518 0.200195 2.5
      vertex 34.9785 0.177734 2.5
    endloop
  endfacet
  facet normal 0.00396183 -0.999992 0
    outer loop
      vertex 49.2002 0.228516 -2.5
      vertex 42.0518 0.200195 2.5
      vertex 42.0518 0.200195 -2.5
    endloop
  endfacet
  facet normal 0.00396183 -0.999992 0
    outer loop
      vertex 49.2002 0.228516 -2.5
      vertex 49.2002 0.228516 2.5
      vertex 42.0518 0.200195 2.5
    endloop
  endfacet
  facet normal 0.00677952 -0.999977 0
    outer loop
      vertex 54.3857 0.263672 -2.5
      vertex 49.2002 0.228516 2.5
      vertex 49.2002 0.228516 -2.5
    endloop
  endfacet
  facet normal 0.00677952 -0.999977 0
    outer loop
      vertex 54.3857 0.263672 -2.5
      vertex 54.3857 0.263672 2.5
      vertex 49.2002 0.228516 2.5
    endloop
  endfacet
  facet normal 0.0134897 -0.999909 0
    outer loop
      vertex 57.9326 0.311523 -2.5
      vertex 54.3857 0.263672 2.5
      vertex 54.3857 0.263672 -2.5
    endloop
  endfacet
  facet normal 0.0134897 -0.999909 0
    outer loop
      vertex 57.9326 0.311523 -2.5
      vertex 57.9326 0.311523 2.5
      vertex 54.3857 0.263672 2.5
    endloop
  endfacet
  facet normal 0.0315219 -0.999503 0
    outer loop
      vertex 60.1621 0.381836 -2.5
      vertex 57.9326 0.311523 2.5
      vertex 57.9326 0.311523 -2.5
    endloop
  endfacet
  facet normal 0.0315219 -0.999503 0
    outer loop
      vertex 60.1621 0.381836 -2.5
      vertex 60.1621 0.381836 2.5
      vertex 57.9326 0.311523 2.5
    endloop
  endfacet
  facet normal 0.0795281 -0.996833 0
    outer loop
      vertex 61.3984 0.480469 -2.5
      vertex 60.1621 0.381836 2.5
      vertex 60.1621 0.381836 -2.5
    endloop
  endfacet
  facet normal 0.0795281 -0.996833 0
    outer loop
      vertex 61.3984 0.480469 -2.5
      vertex 61.3984 0.480469 2.5
      vertex 60.1621 0.381836 2.5
    endloop
  endfacet
  facet normal 0.231003 -0.972953 0
    outer loop
      vertex 61.9619 0.614258 -2.5
      vertex 61.3984 0.480469 2.5
      vertex 61.3984 0.480469 -2.5
    endloop
  endfacet
  facet normal 0.231003 -0.972953 0
    outer loop
      vertex 61.9619 0.614258 -2.5
      vertex 61.9619 0.614258 2.5
      vertex 61.3984 0.480469 2.5
    endloop
  endfacet
  facet normal 0.571239 -0.820784 0
    outer loop
      vertex 62.1387 0.737305 -2.5
      vertex 61.9619 0.614258 2.5
      vertex 61.9619 0.614258 -2.5
    endloop
  endfacet
  facet normal 0.571239 -0.820784 0
    outer loop
      vertex 62.1387 0.737305 -2.5
      vertex 62.1387 0.737305 2.5
      vertex 61.9619 0.614258 2.5
    endloop
  endfacet
  facet normal 0.802026 -0.59729 0
    outer loop
      vertex 62.1787 0.791016 -2.5
      vertex 62.1387 0.737305 2.5
      vertex 62.1387 0.737305 -2.5
    endloop
  endfacet
  facet normal 0.802026 -0.59729 0
    outer loop
      vertex 62.1787 0.791016 -2.5
      vertex 62.1787 0.791016 2.5
      vertex 62.1387 0.737305 2.5
    endloop
  endfacet
  facet normal 0.826353 -0.563152 0
    outer loop
      vertex 62.2559 0.904297 -2.5
      vertex 62.1787 0.791016 2.5
      vertex 62.1787 0.791016 -2.5
    endloop
  endfacet
  facet normal 0.826353 -0.563152 0
    outer loop
      vertex 62.2559 0.904297 -2.5
      vertex 62.2559 0.904297 2.5
      vertex 62.1787 0.791016 2.5
    endloop
  endfacet
  facet normal 0.97089 -0.239527 0
    outer loop
      vertex 62.3701 1.36719 -2.5
      vertex 62.2559 0.904297 2.5
      vertex 62.2559 0.904297 -2.5
    endloop
  endfacet
  facet normal 0.97089 -0.239527 0
    outer loop
      vertex 62.3701 1.36719 -2.5
      vertex 62.3701 1.36719 2.5
      vertex 62.2559 0.904297 2.5
    endloop
  endfacet
  facet normal 0.995192 -0.0979445 0
    outer loop
      vertex 62.4912 2.59766 -2.5
      vertex 62.3701 1.36719 2.5
      vertex 62.3701 1.36719 -2.5
    endloop
  endfacet
  facet normal 0.995192 -0.0979445 0
    outer loop
      vertex 62.4912 2.59766 -2.5
      vertex 62.4912 2.59766 2.5
      vertex 62.3701 1.36719 2.5
    endloop
  endfacet
  facet normal 0.999569 -0.0293701 0
    outer loop
      vertex 62.5547 4.75879 -2.5
      vertex 62.4912 2.59766 2.5
      vertex 62.4912 2.59766 -2.5
    endloop
  endfacet
  facet normal 0.999569 -0.0293701 0
    outer loop
      vertex 62.5547 4.75879 -2.5
      vertex 62.5547 4.75879 2.5
      vertex 62.4912 2.59766 2.5
    endloop
  endfacet
  facet normal 0.99997 -0.00772435 0
    outer loop
      vertex 62.5742 7.2832 -2.5
      vertex 62.5547 4.75879 2.5
      vertex 62.5547 4.75879 -2.5
    endloop
  endfacet
  facet normal 0.99997 -0.00772435 0
    outer loop
      vertex 62.5742 7.2832 -2.5
      vertex 62.5742 7.2832 2.5
      vertex 62.5547 4.75879 2.5
    endloop
  endfacet
  facet normal 1 0 0
    outer loop
      vertex 62.5742 8.79785 -2.5
      vertex 62.5742 7.2832 2.5
      vertex 62.5742 7.2832 -2.5
    endloop
  endfacet
  facet normal 1 0 -0
    outer loop
      vertex 62.5742 8.79785 -2.5
      vertex 62.5742 8.79785 2.5
      vertex 62.5742 7.2832 2.5
    endloop
  endfacet
  facet normal 0.999921 0.0125941 0
    outer loop
      vertex 62.5488 10.8145 -2.5
      vertex 62.5742 8.79785 2.5
      vertex 62.5742 8.79785 -2.5
    endloop
  endfacet
  facet normal 0.999921 0.0125941 -0
    outer loop
      vertex 62.5488 10.8145 -2.5
      vertex 62.5488 10.8145 2.5
      vertex 62.5742 8.79785 2.5
    endloop
  endfacet
  facet normal 0.999592 0.028561 0
    outer loop
      vertex 62.4844 13.0684 -2.5
      vertex 62.5488 10.8145 2.5
      vertex 62.5488 10.8145 -2.5
    endloop
  endfacet
  facet normal 0.999592 0.028561 -0
    outer loop
      vertex 62.4844 13.0684 -2.5
      vertex 62.4844 13.0684 2.5
      vertex 62.5488 10.8145 2.5
    endloop
  endfacet
  facet normal 0.998393 0.0566674 0
    outer loop
      vertex 62.3945 14.6523 -2.5
      vertex 62.4844 13.0684 2.5
      vertex 62.4844 13.0684 -2.5
    endloop
  endfacet
  facet normal 0.998393 0.0566674 -0
    outer loop
      vertex 62.3945 14.6523 -2.5
      vertex 62.3945 14.6523 2.5
      vertex 62.4844 13.0684 2.5
    endloop
  endfacet
  facet normal 0.99428 0.106809 0
    outer loop
      vertex 62.3262 15.2881 -2.5
      vertex 62.3945 14.6523 2.5
      vertex 62.3945 14.6523 -2.5
    endloop
  endfacet
  facet normal 0.99428 0.106809 -0
    outer loop
      vertex 62.3262 15.2881 -2.5
      vertex 62.3262 15.2881 2.5
      vertex 62.3945 14.6523 2.5
    endloop
  endfacet
  facet normal 0.849176 0.52811 0
    outer loop
      vertex 62.291 15.3447 -2.5
      vertex 62.3262 15.2881 2.5
      vertex 62.3262 15.2881 -2.5
    endloop
  endfacet
  facet normal 0.849176 0.52811 -0
    outer loop
      vertex 62.291 15.3447 -2.5
      vertex 62.291 15.3447 2.5
      vertex 62.3262 15.2881 2.5
    endloop
  endfacet
  facet normal 0.847911 0.530138 0
    outer loop
      vertex 62.2568 15.3994 -2.5
      vertex 62.291 15.3447 2.5
      vertex 62.291 15.3447 -2.5
    endloop
  endfacet
  facet normal 0.847911 0.530138 -0
    outer loop
      vertex 62.2568 15.3994 -2.5
      vertex 62.2568 15.3994 2.5
      vertex 62.291 15.3447 2.5
    endloop
  endfacet
  facet normal 0.259947 0.965623 0
    outer loop
      vertex 61.999 15.4688 -2.5
      vertex 62.2568 15.3994 2.5
      vertex 62.2568 15.3994 -2.5
    endloop
  endfacet
  facet normal 0.259947 0.965623 -0
    outer loop
      vertex 61.999 15.4688 -2.5
      vertex 61.999 15.4688 2.5
      vertex 62.2568 15.3994 2.5
    endloop
  endfacet
  facet normal 0.114629 0.993408 0
    outer loop
      vertex 61.1445 15.5674 -2.5
      vertex 61.999 15.4688 2.5
      vertex 61.999 15.4688 -2.5
    endloop
  endfacet
  facet normal 0.114629 0.993408 -0
    outer loop
      vertex 61.1445 15.5674 -2.5
      vertex 61.1445 15.5674 2.5
      vertex 61.999 15.4688 2.5
    endloop
  endfacet
  facet normal 0.0466933 0.998909 0
    outer loop
      vertex 59.4951 15.6445 -2.5
      vertex 61.1445 15.5674 2.5
      vertex 61.1445 15.5674 -2.5
    endloop
  endfacet
  facet normal 0.0466933 0.998909 -0
    outer loop
      vertex 59.4951 15.6445 -2.5
      vertex 59.4951 15.6445 2.5
      vertex 61.1445 15.5674 2.5
    endloop
  endfacet
  facet normal 0.0222932 0.999751 0
    outer loop
      vertex 56.8223 15.7041 -2.5
      vertex 59.4951 15.6445 2.5
      vertex 59.4951 15.6445 -2.5
    endloop
  endfacet
  facet normal 0.0222932 0.999751 -0
    outer loop
      vertex 56.8223 15.7041 -2.5
      vertex 56.8223 15.7041 2.5
      vertex 59.4951 15.6445 2.5
    endloop
  endfacet
  facet normal 0.0119488 0.999929 0
    outer loop
      vertex 52.8975 15.751 -2.5
      vertex 56.8223 15.7041 2.5
      vertex 56.8223 15.7041 -2.5
    endloop
  endfacet
  facet normal 0.0119488 0.999929 -0
    outer loop
      vertex 52.8975 15.751 -2.5
      vertex 52.8975 15.751 2.5
      vertex 56.8223 15.7041 2.5
    endloop
  endfacet
  facet normal 0.00721629 0.999974 0
    outer loop
      vertex 47.4932 15.79 -2.5
      vertex 52.8975 15.751 2.5
      vertex 52.8975 15.751 -2.5
    endloop
  endfacet
  facet normal 0.00721629 0.999974 -0
    outer loop
      vertex 47.4932 15.79 -2.5
      vertex 47.4932 15.79 2.5
      vertex 52.8975 15.751 2.5
    endloop
  endfacet
  facet normal 0.00439837 0.99999 0
    outer loop
      vertex 40.377 15.8213 -2.5
      vertex 47.4932 15.79 2.5
      vertex 47.4932 15.79 -2.5
    endloop
  endfacet
  facet normal 0.00439837 0.99999 -0
    outer loop
      vertex 40.377 15.8213 -2.5
      vertex 40.377 15.8213 2.5
      vertex 47.4932 15.79 2.5
    endloop
  endfacet
  facet normal 0.00344567 0.999994 0
    outer loop
      vertex 33.5859 15.8447 -2.5
      vertex 40.377 15.8213 2.5
      vertex 40.377 15.8213 -2.5
    endloop
  endfacet
  facet normal 0.00344567 0.999994 -0
    outer loop
      vertex 33.5859 15.8447 -2.5
      vertex 33.5859 15.8447 2.5
      vertex 40.377 15.8213 2.5
    endloop
  endfacet
  facet normal 0.00304944 0.999995 0
    outer loop
      vertex 31.3232 15.8516 -2.5
      vertex 33.5859 15.8447 2.5
      vertex 33.5859 15.8447 -2.5
    endloop
  endfacet
  facet normal 0.00304944 0.999995 -0
    outer loop
      vertex 31.3232 15.8516 -2.5
      vertex 31.3232 15.8516 2.5
      vertex 33.5859 15.8447 2.5
    endloop
  endfacet
  facet normal 0.00262799 0.999997 0
    outer loop
      vertex 29.1162 15.8574 -2.5
      vertex 31.3232 15.8516 2.5
      vertex 31.3232 15.8516 -2.5
    endloop
  endfacet
  facet normal 0.00262799 0.999997 -0
    outer loop
      vertex 29.1162 15.8574 -2.5
      vertex 29.1162 15.8574 2.5
      vertex 31.3232 15.8516 2.5
    endloop
  endfacet
  facet normal 0.00176865 0.999998 0
    outer loop
      vertex 22.501 15.8691 -2.5
      vertex 29.1162 15.8574 2.5
      vertex 29.1162 15.8574 -2.5
    endloop
  endfacet
  facet normal 0.00176865 0.999998 -0
    outer loop
      vertex 22.501 15.8691 -2.5
      vertex 22.501 15.8691 2.5
      vertex 29.1162 15.8574 2.5
    endloop
  endfacet
  facet normal 0.000841799 1 0
    outer loop
      vertex 15.4922 15.875 -2.5
      vertex 22.501 15.8691 2.5
      vertex 22.501 15.8691 -2.5
    endloop
  endfacet
  facet normal 0.000841799 1 -0
    outer loop
      vertex 15.4922 15.875 -2.5
      vertex 15.4922 15.875 2.5
      vertex 22.501 15.8691 2.5
    endloop
  endfacet
  facet normal -0.00125963 0.999999 0
    outer loop
      vertex 10.0938 15.8682 -2.5
      vertex 15.4922 15.875 2.5
      vertex 15.4922 15.875 -2.5
    endloop
  endfacet
  facet normal -0.00125963 0.999999 0
    outer loop
      vertex 10.0938 15.8682 -2.5
      vertex 10.0938 15.8682 2.5
      vertex 15.4922 15.875 2.5
    endloop
  endfacet
  facet normal -0.00564413 0.999984 0
    outer loop
      vertex 6.10742 15.8457 -2.5
      vertex 10.0938 15.8682 2.5
      vertex 10.0938 15.8682 -2.5
    endloop
  endfacet
  facet normal -0.00564413 0.999984 0
    outer loop
      vertex 6.10742 15.8457 -2.5
      vertex 6.10742 15.8457 2.5
      vertex 10.0938 15.8682 2.5
    endloop
  endfacet
  facet normal -0.0147711 0.999891 0
    outer loop
      vertex 3.33203 15.8047 -2.5
      vertex 6.10742 15.8457 2.5
      vertex 6.10742 15.8457 -2.5
    endloop
  endfacet
  facet normal -0.0147711 0.999891 0
    outer loop
      vertex 3.33203 15.8047 -2.5
      vertex 3.33203 15.8047 2.5
      vertex 6.10742 15.8457 2.5
    endloop
  endfacet
  facet normal -0.0359812 0.999352 0
    outer loop
      vertex 1.56836 15.7412 -2.5
      vertex 3.33203 15.8047 2.5
      vertex 3.33203 15.8047 -2.5
    endloop
  endfacet
  facet normal -0.0359812 0.999352 0
    outer loop
      vertex 1.56836 15.7412 -2.5
      vertex 1.56836 15.7412 2.5
      vertex 3.33203 15.8047 2.5
    endloop
  endfacet
  facet normal -0.0906129 0.995886 0
    outer loop
      vertex 0.613281 15.6543 -2.5
      vertex 1.56836 15.7412 2.5
      vertex 1.56836 15.7412 -2.5
    endloop
  endfacet
  facet normal -0.0906129 0.995886 0
    outer loop
      vertex 0.613281 15.6543 -2.5
      vertex 0.613281 15.6543 2.5
      vertex 1.56836 15.7412 2.5
    endloop
  endfacet
  facet normal -0.179137 0.983824 0
    outer loop
      vertex 0.318359 15.6006 -2.5
      vertex 0.613281 15.6543 2.5
      vertex 0.613281 15.6543 -2.5
    endloop
  endfacet
  facet normal -0.179137 0.983824 0
    outer loop
      vertex 0.318359 15.6006 -2.5
      vertex 0.318359 15.6006 2.5
      vertex 0.613281 15.6543 2.5
    endloop
  endfacet
  facet normal -0.779776 0.626058 0
    outer loop
      vertex 0.270508 15.541 -2.5
      vertex 0.318359 15.6006 2.5
      vertex 0.318359 15.6006 -2.5
    endloop
  endfacet
  facet normal -0.779776 0.626058 0
    outer loop
      vertex 0.270508 15.541 -2.5
      vertex 0.270508 15.541 2.5
      vertex 0.318359 15.6006 2.5
    endloop
  endfacet
  facet normal -0.805901 0.59205 0
    outer loop
      vertex 0.213867 15.4639 -2.5
      vertex 0.270508 15.541 2.5
      vertex 0.270508 15.541 -2.5
    endloop
  endfacet
  facet normal -0.805901 0.59205 0
    outer loop
      vertex 0.213867 15.4639 -2.5
      vertex 0.213867 15.4639 2.5
      vertex 0.270508 15.541 2.5
    endloop
  endfacet
  facet normal -0.986193 0.165599 0
    outer loop
      vertex 0.126953 14.9463 -2.5
      vertex 0.213867 15.4639 2.5
      vertex 0.213867 15.4639 -2.5
    endloop
  endfacet
  facet normal -0.986193 0.165599 0
    outer loop
      vertex 0.126953 14.9463 -2.5
      vertex 0.126953 14.9463 2.5
      vertex 0.213867 15.4639 2.5
    endloop
  endfacet
  facet normal -0.997957 0.0638923 0
    outer loop
      vertex 0.0371094 13.543 -2.5
      vertex 0.126953 14.9463 2.5
      vertex 0.126953 14.9463 -2.5
    endloop
  endfacet
  facet normal -0.997957 0.0638923 0
    outer loop
      vertex 0.0371094 13.543 -2.5
      vertex 0.0371094 13.543 2.5
      vertex 0.126953 14.9463 2.5
    endloop
  endfacet
  facet normal -0.999873 0.0159439 0
    outer loop
      vertex 0 11.2158 -2.5
      vertex 0.0371094 13.543 2.5
      vertex 0.0371094 13.543 -2.5
    endloop
  endfacet
  facet normal -0.999873 0.0159439 0
    outer loop
      vertex 0 11.2158 -2.5
      vertex 0 11.2158 2.5
      vertex 0.0371094 13.543 2.5
    endloop
  endfacet
  facet normal -0.999996 -0.00270168 0
    outer loop
      vertex 0.00683594 8.68555 -2.5
      vertex 0 11.2158 2.5
      vertex 0 11.2158 -2.5
    endloop
  endfacet
  facet normal -0.999996 -0.00270168 0
    outer loop
      vertex 0.00683594 8.68555 -2.5
      vertex 0.00683594 8.68555 2.5
      vertex 0 11.2158 2.5
    endloop
  endfacet
  facet normal -0.999933 -0.0115867 0
    outer loop
      vertex 0.0166016 7.84277 -2.5
      vertex 0.00683594 8.68555 2.5
      vertex 0.00683594 8.68555 -2.5
    endloop
  endfacet
  facet normal -0.999933 -0.0115867 0
    outer loop
      vertex 0.0166016 7.84277 -2.5
      vertex 0.0166016 7.84277 2.5
      vertex 0.00683594 8.68555 2.5
    endloop
  endfacet
  facet normal -0.999932 -0.0116286 0
    outer loop
      vertex 0.101562 0.537109 -2.5
      vertex 0.0166016 7.84277 2.5
      vertex 0.0166016 7.84277 -2.5
    endloop
  endfacet
  facet normal -0.999932 -0.0116286 0
    outer loop
      vertex 0.101562 0.537109 -2.5
      vertex 0.101562 0.537109 2.5
      vertex 0.0166016 7.84277 2.5
    endloop
  endfacet
  facet normal -0.132126 -0.991233 0
    outer loop
      vertex 1.79395 0.311523 -2.5
      vertex 0.101562 0.537109 2.5
      vertex 0.101562 0.537109 -2.5
    endloop
  endfacet
  facet normal -0.132126 -0.991233 0
    outer loop
      vertex 1.79395 0.311523 -2.5
      vertex 1.79395 0.311523 2.5
      vertex 0.101562 0.537109 2.5
    endloop
  endfacet
  facet normal -0.117819 -0.993035 0
    outer loop
      vertex 2.02441 0.28418 -2.5
      vertex 1.79395 0.311523 2.5
      vertex 1.79395 0.311523 -2.5
    endloop
  endfacet
  facet normal -0.117819 -0.993035 0
    outer loop
      vertex 2.02441 0.28418 -2.5
      vertex 2.02441 0.28418 2.5
      vertex 1.79395 0.311523 2.5
    endloop
  endfacet
  facet normal -0.0166414 -0.999862 0
    outer loop
      vertex 2.72852 0.272461 -2.5
      vertex 2.02441 0.28418 2.5
      vertex 2.02441 0.28418 -2.5
    endloop
  endfacet
  facet normal -0.0166414 -0.999862 0
    outer loop
      vertex 2.72852 0.272461 -2.5
      vertex 2.72852 0.272461 2.5
      vertex 2.02441 0.28418 2.5
    endloop
  endfacet
  facet normal -0.016906 -0.999857 0
    outer loop
      vertex 4.75 0.238281 -2.5
      vertex 2.72852 0.272461 2.5
      vertex 2.72852 0.272461 -2.5
    endloop
  endfacet
  facet normal -0.016906 -0.999857 0
    outer loop
      vertex 4.75 0.238281 -2.5
      vertex 4.75 0.238281 2.5
      vertex 2.72852 0.272461 2.5
    endloop
  endfacet
  facet normal -0.00916767 -0.999958 0
    outer loop
      vertex 7.73242 0.210938 -2.5
      vertex 4.75 0.238281 2.5
      vertex 4.75 0.238281 -2.5
    endloop
  endfacet
  facet normal -0.00916767 -0.999958 0
    outer loop
      vertex 7.73242 0.210938 -2.5
      vertex 7.73242 0.210938 2.5
      vertex 4.75 0.238281 2.5
    endloop
  endfacet
  facet normal -0.00588671 -0.999983 0
    outer loop
      vertex 11.5479 0.188477 -2.5
      vertex 7.73242 0.210938 2.5
      vertex 7.73242 0.210938 -2.5
    endloop
  endfacet
  facet normal -0.00588671 -0.999983 0
    outer loop
      vertex 11.5479 0.188477 -2.5
      vertex 11.5479 0.188477 2.5
      vertex 7.73242 0.210938 2.5
    endloop
  endfacet
  facet normal -0.00323776 -0.999995 0
    outer loop
      vertex 16.0723 0.173828 -2.5
      vertex 11.5479 0.188477 2.5
      vertex 11.5479 0.188477 -2.5
    endloop
  endfacet
  facet normal -0.00323776 -0.999995 0
    outer loop
      vertex 16.0723 0.173828 -2.5
      vertex 16.0723 0.173828 2.5
      vertex 11.5479 0.188477 2.5
    endloop
  endfacet
  facet normal -0.00172181 -0.999999 0
    outer loop
      vertex 21.1768 0.165039 -2.5
      vertex 16.0723 0.173828 2.5
      vertex 16.0723 0.173828 -2.5
    endloop
  endfacet
  facet normal -0.00172181 -0.999999 0
    outer loop
      vertex 21.1768 0.165039 -2.5
      vertex 21.1768 0.165039 2.5
      vertex 16.0723 0.173828 2.5
    endloop
  endfacet
  facet normal -0.000175795 -1 0
    outer loop
      vertex 26.7344 0.164062 -2.5
      vertex 21.1768 0.165039 2.5
      vertex 21.1768 0.165039 -2.5
    endloop
  endfacet
  facet normal -0.000175795 -1 0
    outer loop
      vertex 26.7344 0.164062 -2.5
      vertex 26.7344 0.164062 2.5
      vertex 21.1768 0.165039 2.5
    endloop
  endfacet
  facet normal 0.00132729 -0.999999 0
    outer loop
      vertex 31.1494 0.169922 -2.5
      vertex 26.7344 0.164062 2.5
      vertex 26.7344 0.164062 -2.5
    endloop
  endfacet
  facet normal 0.00132729 -0.999999 0
    outer loop
      vertex 31.1494 0.169922 -2.5
      vertex 31.1494 0.169922 2.5
      vertex 26.7344 0.164062 2.5
    endloop
  endfacet
  facet normal 0.000759967 1 -0
    outer loop
      vertex 23.3799 3.92578 -2.5
      vertex 23.3799 3.92578 2.5
      vertex 28.5117 3.92188 -2.5
    endloop
  endfacet
  facet normal 0.000759967 1 0
    outer loop
      vertex 28.5117 3.92188 2.5
      vertex 28.5117 3.92188 -2.5
      vertex 23.3799 3.92578 2.5
    endloop
  endfacet
  facet normal 0.00243359 0.999997 -0
    outer loop
      vertex 17.7627 3.93945 -2.5
      vertex 17.7627 3.93945 2.5
      vertex 23.3799 3.92578 -2.5
    endloop
  endfacet
  facet normal 0.00243359 0.999997 0
    outer loop
      vertex 23.3799 3.92578 2.5
      vertex 23.3799 3.92578 -2.5
      vertex 17.7627 3.93945 2.5
    endloop
  endfacet
  facet normal 0.0052167 0.999986 -0
    outer loop
      vertex 13.2695 3.96289 -2.5
      vertex 13.2695 3.96289 2.5
      vertex 17.7627 3.93945 -2.5
    endloop
  endfacet
  facet normal 0.0052167 0.999986 0
    outer loop
      vertex 17.7627 3.93945 2.5
      vertex 17.7627 3.93945 -2.5
      vertex 13.2695 3.96289 2.5
    endloop
  endfacet
  facet normal 0.00956544 0.999954 -0
    outer loop
      vertex 9.79883 3.99609 -2.5
      vertex 9.79883 3.99609 2.5
      vertex 13.2695 3.96289 -2.5
    endloop
  endfacet
  facet normal 0.00956544 0.999954 0
    outer loop
      vertex 13.2695 3.96289 2.5
      vertex 13.2695 3.96289 -2.5
      vertex 9.79883 3.99609 2.5
    endloop
  endfacet
  facet normal 0.018033 0.999837 -0
    outer loop
      vertex 7.25391 4.04199 -2.5
      vertex 7.25391 4.04199 2.5
      vertex 9.79883 3.99609 -2.5
    endloop
  endfacet
  facet normal 0.018033 0.999837 0
    outer loop
      vertex 9.79883 3.99609 2.5
      vertex 9.79883 3.99609 -2.5
      vertex 7.25391 4.04199 2.5
    endloop
  endfacet
  facet normal 0.034036 0.999421 -0
    outer loop
      vertex 5.5332 4.10059 -2.5
      vertex 5.5332 4.10059 2.5
      vertex 7.25391 4.04199 -2.5
    endloop
  endfacet
  facet normal 0.034036 0.999421 0
    outer loop
      vertex 7.25391 4.04199 2.5
      vertex 7.25391 4.04199 -2.5
      vertex 5.5332 4.10059 2.5
    endloop
  endfacet
  facet normal 0.0732579 0.997313 -0
    outer loop
      vertex 4.53613 4.17383 -2.5
      vertex 4.53613 4.17383 2.5
      vertex 5.5332 4.10059 -2.5
    endloop
  endfacet
  facet normal 0.0732579 0.997313 0
    outer loop
      vertex 5.5332 4.10059 2.5
      vertex 5.5332 4.10059 -2.5
      vertex 4.53613 4.17383 2.5
    endloop
  endfacet
  facet normal 0.0952352 0.995455 -0
    outer loop
      vertex 4.21973 4.2041 -2.5
      vertex 4.21973 4.2041 2.5
      vertex 4.53613 4.17383 -2.5
    endloop
  endfacet
  facet normal 0.0952352 0.995455 0
    outer loop
      vertex 4.53613 4.17383 2.5
      vertex 4.53613 4.17383 -2.5
      vertex 4.21973 4.2041 2.5
    endloop
  endfacet
  facet normal 0.707107 0.707107 -0
    outer loop
      vertex 4.05664 4.36719 -2.5
      vertex 4.05664 4.36719 2.5
      vertex 4.21973 4.2041 -2.5
    endloop
  endfacet
  facet normal 0.707107 0.707107 0
    outer loop
      vertex 4.21973 4.2041 2.5
      vertex 4.21973 4.2041 -2.5
      vertex 4.05664 4.36719 2.5
    endloop
  endfacet
  facet normal 0.97799 0.208649 -0
    outer loop
      vertex 3.88184 5.18652 -2.5
      vertex 3.88184 5.18652 2.5
      vertex 4.05664 4.36719 -2.5
    endloop
  endfacet
  facet normal 0.97799 0.208649 0
    outer loop
      vertex 4.05664 4.36719 2.5
      vertex 4.05664 4.36719 -2.5
      vertex 3.88184 5.18652 2.5
    endloop
  endfacet
  facet normal 0.994533 0.104425 -0
    outer loop
      vertex 3.69727 6.94434 -2.5
      vertex 3.69727 6.94434 2.5
      vertex 3.88184 5.18652 -2.5
    endloop
  endfacet
  facet normal 0.994533 0.104425 0
    outer loop
      vertex 3.88184 5.18652 2.5
      vertex 3.88184 5.18652 -2.5
      vertex 3.69727 6.94434 2.5
    endloop
  endfacet
  facet normal 0.999592 0.0285612 -0
    outer loop
      vertex 3.63965 8.96094 -2.5
      vertex 3.63965 8.96094 2.5
      vertex 3.69727 6.94434 -2.5
    endloop
  endfacet
  facet normal 0.999592 0.0285612 0
    outer loop
      vertex 3.69727 6.94434 2.5
      vertex 3.69727 6.94434 -2.5
      vertex 3.63965 8.96094 2.5
    endloop
  endfacet
  facet normal 0.999487 -0.0320161 0
    outer loop
      vertex 3.68066 10.2412 -2.5
      vertex 3.68066 10.2412 2.5
      vertex 3.63965 8.96094 -2.5
    endloop
  endfacet
  facet normal 0.999487 -0.0320161 0
    outer loop
      vertex 3.63965 8.96094 2.5
      vertex 3.63965 8.96094 -2.5
      vertex 3.68066 10.2412 2.5
    endloop
  endfacet
  facet normal 0.990133 -0.140134 0
    outer loop
      vertex 3.74023 10.6621 -2.5
      vertex 3.74023 10.6621 2.5
      vertex 3.68066 10.2412 -2.5
    endloop
  endfacet
  facet normal 0.990133 -0.140134 0
    outer loop
      vertex 3.68066 10.2412 2.5
      vertex 3.68066 10.2412 -2.5
      vertex 3.74023 10.6621 2.5
    endloop
  endfacet
  facet normal 0.987674 -0.156525 0
    outer loop
      vertex 3.76855 10.8408 -2.5
      vertex 3.76855 10.8408 2.5
      vertex 3.74023 10.6621 -2.5
    endloop
  endfacet
  facet normal 0.987674 -0.156525 0
    outer loop
      vertex 3.74023 10.6621 2.5
      vertex 3.74023 10.6621 -2.5
      vertex 3.76855 10.8408 2.5
    endloop
  endfacet
  facet normal 0.979601 -0.200954 0
    outer loop
      vertex 3.87793 11.374 -2.5
      vertex 3.87793 11.374 2.5
      vertex 3.76855 10.8408 -2.5
    endloop
  endfacet
  facet normal 0.979601 -0.200954 0
    outer loop
      vertex 3.76855 10.8408 2.5
      vertex 3.76855 10.8408 -2.5
      vertex 3.87793 11.374 2.5
    endloop
  endfacet
  facet normal 0.904529 -0.426411 0
    outer loop
      vertex 4.06348 11.7676 -2.5
      vertex 4.06348 11.7676 2.5
      vertex 3.87793 11.374 -2.5
    endloop
  endfacet
  facet normal 0.904529 -0.426411 0
    outer loop
      vertex 3.87793 11.374 2.5
      vertex 3.87793 11.374 -2.5
      vertex 4.06348 11.7676 2.5
    endloop
  endfacet
  facet normal 0.48355 -0.875317 0
    outer loop
      vertex 4.39746 11.9521 -2.5
      vertex 4.39746 11.9521 2.5
      vertex 4.06348 11.7676 -2.5
    endloop
  endfacet
  facet normal 0.48355 -0.875317 0
    outer loop
      vertex 4.06348 11.7676 2.5
      vertex 4.06348 11.7676 -2.5
      vertex 4.39746 11.9521 2.5
    endloop
  endfacet
  facet normal 0.170138 -0.98542 0
    outer loop
      vertex 4.83301 12.0273 -2.5
      vertex 4.83301 12.0273 2.5
      vertex 4.39746 11.9521 -2.5
    endloop
  endfacet
  facet normal 0.170138 -0.98542 0
    outer loop
      vertex 4.39746 11.9521 2.5
      vertex 4.39746 11.9521 -2.5
      vertex 4.83301 12.0273 2.5
    endloop
  endfacet
  facet normal 0.111866 -0.993723 0
    outer loop
      vertex 4.98047 12.0439 -2.5
      vertex 4.98047 12.0439 2.5
      vertex 4.83301 12.0273 -2.5
    endloop
  endfacet
  facet normal 0.111866 -0.993723 0
    outer loop
      vertex 4.83301 12.0273 2.5
      vertex 4.83301 12.0273 -2.5
      vertex 4.98047 12.0439 2.5
    endloop
  endfacet
  facet normal 0.110959 -0.993825 0
    outer loop
      vertex 5.12109 12.0596 -2.5
      vertex 5.12109 12.0596 2.5
      vertex 4.98047 12.0439 -2.5
    endloop
  endfacet
  facet normal 0.110959 -0.993825 0
    outer loop
      vertex 4.98047 12.0439 2.5
      vertex 4.98047 12.0439 -2.5
      vertex 5.12109 12.0596 2.5
    endloop
  endfacet
  facet normal 0.0115276 -0.999934 0
    outer loop
      vertex 5.71094 12.0664 -2.5
      vertex 5.71094 12.0664 2.5
      vertex 5.12109 12.0596 -2.5
    endloop
  endfacet
  facet normal 0.0115276 -0.999934 0
    outer loop
      vertex 5.12109 12.0596 2.5
      vertex 5.12109 12.0596 -2.5
      vertex 5.71094 12.0664 2.5
    endloop
  endfacet
  facet normal 0.0109455 -0.99994 0
    outer loop
      vertex 7.41016 12.085 -2.5
      vertex 7.41016 12.085 2.5
      vertex 5.71094 12.0664 -2.5
    endloop
  endfacet
  facet normal 0.0109455 -0.99994 0
    outer loop
      vertex 5.71094 12.0664 2.5
      vertex 5.71094 12.0664 -2.5
      vertex 7.41016 12.085 2.5
    endloop
  endfacet
  facet normal 0.00724695 -0.999974 0
    outer loop
      vertex 9.96289 12.1035 -2.5
      vertex 9.96289 12.1035 2.5
      vertex 7.41016 12.085 -2.5
    endloop
  endfacet
  facet normal 0.00724695 -0.999974 0
    outer loop
      vertex 7.41016 12.085 2.5
      vertex 7.41016 12.085 -2.5
      vertex 9.96289 12.1035 2.5
    endloop
  endfacet
  facet normal 0.00445219 -0.99999 0
    outer loop
      vertex 13.2646 12.1182 -2.5
      vertex 13.2646 12.1182 2.5
      vertex 9.96289 12.1035 -2.5
    endloop
  endfacet
  facet normal 0.00445219 -0.99999 0
    outer loop
      vertex 9.96289 12.1035 2.5
      vertex 9.96289 12.1035 -2.5
      vertex 13.2646 12.1182 2.5
    endloop
  endfacet
  facet normal 0.00297066 -0.999996 0
    outer loop
      vertex 17.2031 12.1299 -2.5
      vertex 17.2031 12.1299 2.5
      vertex 13.2646 12.1182 -2.5
    endloop
  endfacet
  facet normal 0.00297066 -0.999996 0
    outer loop
      vertex 13.2646 12.1182 2.5
      vertex 13.2646 12.1182 -2.5
      vertex 17.2031 12.1299 2.5
    endloop
  endfacet
  facet normal 0.00152234 -0.999999 0
    outer loop
      vertex 21.6699 12.1367 -2.5
      vertex 21.6699 12.1367 2.5
      vertex 17.2031 12.1299 -2.5
    endloop
  endfacet
  facet normal 0.00152234 -0.999999 0
    outer loop
      vertex 17.2031 12.1299 2.5
      vertex 17.2031 12.1299 -2.5
      vertex 21.6699 12.1367 2.5
    endloop
  endfacet
  facet normal 0 -1 0
    outer loop
      vertex 26.5537 12.1367 -2.5
      vertex 26.5537 12.1367 2.5
      vertex 21.6699 12.1367 -2.5
    endloop
  endfacet
  facet normal 0 -1 0
    outer loop
      vertex 21.6699 12.1367 2.5
      vertex 21.6699 12.1367 -2.5
      vertex 26.5537 12.1367 2.5
    endloop
  endfacet
  facet normal -0.00125818 -0.999999 0
    outer loop
      vertex 30.4482 12.1318 -2.5
      vertex 30.4482 12.1318 2.5
      vertex 26.5537 12.1367 -2.5
    endloop
  endfacet
  facet normal -0.00125818 -0.999999 -0
    outer loop
      vertex 26.5537 12.1367 2.5
      vertex 26.5537 12.1367 -2.5
      vertex 30.4482 12.1318 2.5
    endloop
  endfacet
  facet normal -0.0014639 -0.999999 0
    outer loop
      vertex 31.7461 12.1299 -2.5
      vertex 31.7461 12.1299 2.5
      vertex 30.4482 12.1318 -2.5
    endloop
  endfacet
  facet normal -0.0014639 -0.999999 -0
    outer loop
      vertex 30.4482 12.1318 2.5
      vertex 30.4482 12.1318 -2.5
      vertex 31.7461 12.1299 2.5
    endloop
  endfacet
  facet normal -0.00100786 -0.999999 0
    outer loop
      vertex 33.7305 12.1279 -2.5
      vertex 33.7305 12.1279 2.5
      vertex 31.7461 12.1299 -2.5
    endloop
  endfacet
  facet normal -0.00100786 -0.999999 -0
    outer loop
      vertex 31.7461 12.1299 2.5
      vertex 31.7461 12.1299 -2.5
      vertex 33.7305 12.1279 2.5
    endloop
  endfacet
  facet normal -0.00162833 -0.999999 0
    outer loop
      vertex 39.6875 12.1182 -2.5
      vertex 39.6875 12.1182 2.5
      vertex 33.7305 12.1279 -2.5
    endloop
  endfacet
  facet normal -0.00162833 -0.999999 -0
    outer loop
      vertex 33.7305 12.1279 2.5
      vertex 33.7305 12.1279 -2.5
      vertex 39.6875 12.1182 2.5
    endloop
  endfacet
  facet normal -0.00270586 -0.999996 0
    outer loop
      vertex 45.8223 12.1016 -2.5
      vertex 45.8223 12.1016 2.5
      vertex 39.6875 12.1182 -2.5
    endloop
  endfacet
  facet normal -0.00270586 -0.999996 -0
    outer loop
      vertex 39.6875 12.1182 2.5
      vertex 39.6875 12.1182 -2.5
      vertex 45.8223 12.1016 2.5
    endloop
  endfacet
  facet normal -0.00556704 -0.999985 0
    outer loop
      vertex 50.3848 12.0762 -2.5
      vertex 50.3848 12.0762 2.5
      vertex 45.8223 12.1016 -2.5
    endloop
  endfacet
  facet normal -0.00556704 -0.999985 -0
    outer loop
      vertex 45.8223 12.1016 2.5
      vertex 45.8223 12.1016 -2.5
      vertex 50.3848 12.0762 2.5
    endloop
  endfacet
  facet normal -0.013004 -0.999915 0
    outer loop
      vertex 53.6143 12.0342 -2.5
      vertex 53.6143 12.0342 2.5
      vertex 50.3848 12.0762 -2.5
    endloop
  endfacet
  facet normal -0.013004 -0.999915 -0
    outer loop
      vertex 50.3848 12.0762 2.5
      vertex 50.3848 12.0762 -2.5
      vertex 53.6143 12.0342 2.5
    endloop
  endfacet
  facet normal -0.0284019 -0.999597 0
    outer loop
      vertex 55.7471 11.9736 -2.5
      vertex 55.7471 11.9736 2.5
      vertex 53.6143 12.0342 -2.5
    endloop
  endfacet
  facet normal -0.0284019 -0.999597 -0
    outer loop
      vertex 53.6143 12.0342 2.5
      vertex 53.6143 12.0342 -2.5
      vertex 55.7471 11.9736 2.5
    endloop
  endfacet
  facet normal -0.0664722 -0.997788 0
    outer loop
      vertex 57.0215 11.8887 -2.5
      vertex 57.0215 11.8887 2.5
      vertex 55.7471 11.9736 -2.5
    endloop
  endfacet
  facet normal -0.0664722 -0.997788 -0
    outer loop
      vertex 55.7471 11.9736 2.5
      vertex 55.7471 11.9736 -2.5
      vertex 57.0215 11.8887 2.5
    endloop
  endfacet
  facet normal -0.1746 -0.98464 0
    outer loop
      vertex 57.6768 11.7725 -2.5
      vertex 57.6768 11.7725 2.5
      vertex 57.0215 11.8887 -2.5
    endloop
  endfacet
  facet normal -0.1746 -0.98464 -0
    outer loop
      vertex 57.0215 11.8887 2.5
      vertex 57.0215 11.8887 -2.5
      vertex 57.6768 11.7725 2.5
    endloop
  endfacet
  facet normal -0.406331 -0.913726 0
    outer loop
      vertex 57.8965 11.6748 -2.5
      vertex 57.8965 11.6748 2.5
      vertex 57.6768 11.7725 -2.5
    endloop
  endfacet
  facet normal -0.406331 -0.913726 -0
    outer loop
      vertex 57.6768 11.7725 2.5
      vertex 57.6768 11.7725 -2.5
      vertex 57.8965 11.6748 2.5
    endloop
  endfacet
  facet normal -0.720395 -0.693564 0
    outer loop
      vertex 57.9482 11.6211 -2.5
      vertex 57.9482 11.6211 2.5
      vertex 57.8965 11.6748 -2.5
    endloop
  endfacet
  facet normal -0.720395 -0.693564 -0
    outer loop
      vertex 57.8965 11.6748 2.5
      vertex 57.8965 11.6748 -2.5
      vertex 57.9482 11.6211 2.5
    endloop
  endfacet
  facet normal -0.706855 -0.707358 0
    outer loop
      vertex 58.0889 11.4805 -2.5
      vertex 58.0889 11.4805 2.5
      vertex 57.9482 11.6211 -2.5
    endloop
  endfacet
  facet normal -0.706855 -0.707358 -0
    outer loop
      vertex 57.9482 11.6211 2.5
      vertex 57.9482 11.6211 -2.5
      vertex 58.0889 11.4805 2.5
    endloop
  endfacet
  facet normal -0.968285 -0.249849 0
    outer loop
      vertex 58.3467 10.4814 -2.5
      vertex 58.3467 10.4814 2.5
      vertex 58.0889 11.4805 -2.5
    endloop
  endfacet
  facet normal -0.968285 -0.249849 -0
    outer loop
      vertex 58.0889 11.4805 2.5
      vertex 58.0889 11.4805 -2.5
      vertex 58.3467 10.4814 2.5
    endloop
  endfacet
  facet normal -0.989425 -0.145043 0
    outer loop
      vertex 58.6426 8.46289 -2.5
      vertex 58.6426 8.46289 2.5
      vertex 58.3467 10.4814 -2.5
    endloop
  endfacet
  facet normal -0.989425 -0.145043 -0
    outer loop
      vertex 58.3467 10.4814 2.5
      vertex 58.3467 10.4814 -2.5
      vertex 58.6426 8.46289 2.5
    endloop
  endfacet
  facet normal -0.99857 -0.0534529 0
    outer loop
      vertex 58.7529 6.40234 -2.5
      vertex 58.7529 6.40234 2.5
      vertex 58.6426 8.46289 -2.5
    endloop
  endfacet
  facet normal -0.99857 -0.0534529 -0
    outer loop
      vertex 58.6426 8.46289 2.5
      vertex 58.6426 8.46289 -2.5
      vertex 58.7529 6.40234 2.5
    endloop
  endfacet
  facet normal -0.998833 0.0482916 0
    outer loop
      vertex 58.7012 5.33301 -2.5
      vertex 58.7012 5.33301 2.5
      vertex 58.7529 6.40234 -2.5
    endloop
  endfacet
  facet normal -0.998833 0.0482916 0
    outer loop
      vertex 58.7529 6.40234 2.5
      vertex 58.7529 6.40234 -2.5
      vertex 58.7012 5.33301 2.5
    endloop
  endfacet
  facet normal -0.884618 0.466316 0
    outer loop
      vertex 58.5967 5.13477 -2.5
      vertex 58.5967 5.13477 2.5
      vertex 58.7012 5.33301 -2.5
    endloop
  endfacet
  facet normal -0.884618 0.466316 0
    outer loop
      vertex 58.7012 5.33301 2.5
      vertex 58.7012 5.33301 -2.5
      vertex 58.5967 5.13477 2.5
    endloop
  endfacet
  facet normal -0.882605 0.470115 0
    outer loop
      vertex 58.54 5.02832 -2.5
      vertex 58.54 5.02832 2.5
      vertex 58.5967 5.13477 -2.5
    endloop
  endfacet
  facet normal -0.882605 0.470115 0
    outer loop
      vertex 58.5967 5.13477 2.5
      vertex 58.5967 5.13477 -2.5
      vertex 58.54 5.02832 2.5
    endloop
  endfacet
  facet normal -0.769989 0.638057 0
    outer loop
      vertex 58.3037 4.74316 -2.5
      vertex 58.3037 4.74316 2.5
      vertex 58.54 5.02832 -2.5
    endloop
  endfacet
  facet normal -0.769989 0.638057 0
    outer loop
      vertex 58.54 5.02832 2.5
      vertex 58.54 5.02832 -2.5
      vertex 58.3037 4.74316 2.5
    endloop
  endfacet
  facet normal -0.435766 0.90006 0
    outer loop
      vertex 57.6885 4.44531 -2.5
      vertex 57.6885 4.44531 2.5
      vertex 58.3037 4.74316 -2.5
    endloop
  endfacet
  facet normal -0.435766 0.90006 0
    outer loop
      vertex 58.3037 4.74316 2.5
      vertex 58.3037 4.74316 -2.5
      vertex 57.6885 4.44531 2.5
    endloop
  endfacet
  facet normal -0.170554 0.985348 0
    outer loop
      vertex 56.4473 4.23047 -2.5
      vertex 56.4473 4.23047 2.5
      vertex 57.6885 4.44531 -2.5
    endloop
  endfacet
  facet normal -0.170554 0.985348 0
    outer loop
      vertex 57.6885 4.44531 2.5
      vertex 57.6885 4.44531 -2.5
      vertex 56.4473 4.23047 2.5
    endloop
  endfacet
  facet normal -0.0668774 0.997761 0
    outer loop
      vertex 54.2764 4.08496 -2.5
      vertex 54.2764 4.08496 2.5
      vertex 56.4473 4.23047 -2.5
    endloop
  endfacet
  facet normal -0.0668774 0.997761 0
    outer loop
      vertex 56.4473 4.23047 2.5
      vertex 56.4473 4.23047 -2.5
      vertex 54.2764 4.08496 2.5
    endloop
  endfacet
  facet normal -0.0269632 0.999636 0
    outer loop
      vertex 50.873 3.99316 -2.5
      vertex 50.873 3.99316 2.5
      vertex 54.2764 4.08496 -2.5
    endloop
  endfacet
  facet normal -0.0269632 0.999636 0
    outer loop
      vertex 54.2764 4.08496 2.5
      vertex 54.2764 4.08496 -2.5
      vertex 50.873 3.99316 2.5
    endloop
  endfacet
  facet normal -0.00968304 0.999953 0
    outer loop
      vertex 45.9316 3.94531 -2.5
      vertex 45.9316 3.94531 2.5
      vertex 50.873 3.99316 -2.5
    endloop
  endfacet
  facet normal -0.00968304 0.999953 0
    outer loop
      vertex 50.873 3.99316 2.5
      vertex 50.873 3.99316 -2.5
      vertex 45.9316 3.94531 2.5
    endloop
  endfacet
  facet normal -0.00288001 0.999996 0
    outer loop
      vertex 39.1504 3.92578 -2.5
      vertex 39.1504 3.92578 2.5
      vertex 45.9316 3.94531 -2.5
    endloop
  endfacet
  facet normal -0.00288001 0.999996 0
    outer loop
      vertex 45.9316 3.94531 2.5
      vertex 45.9316 3.94531 -2.5
      vertex 39.1504 3.92578 2.5
    endloop
  endfacet
  facet normal -0.000582411 1 0
    outer loop
      vertex 32.4541 3.92188 -2.5
      vertex 32.4541 3.92188 2.5
      vertex 39.1504 3.92578 -2.5
    endloop
  endfacet
  facet normal -0.000582411 1 0
    outer loop
      vertex 39.1504 3.92578 2.5
      vertex 39.1504 3.92578 -2.5
      vertex 32.4541 3.92188 2.5
    endloop
  endfacet
  facet normal 0 1 0
    outer loop
      vertex 28.5117 3.92188 -2.5
      vertex 28.5117 3.92188 2.5
      vertex 32.4541 3.92188 -2.5
    endloop
  endfacet
  facet normal 0 1 0
    outer loop
      vertex 32.4541 3.92188 2.5
      vertex 32.4541 3.92188 -2.5
      vertex 28.5117 3.92188 2.5
    endloop
  endfacet
endsolid OpenSCAD_Model
